<?xml version="1.0" encoding="utf-8"?>
<!-- Generator: Adobe Illustrator 22.1.0, SVG Export Plug-In . SVG Version: 6.00 Build 0)  -->
<svg version="1.1" id="Layer_1" xmlns="http://www.w3.org/2000/svg" xmlns:xlink="http://www.w3.org/1999/xlink" x="0px" y="0px"
	 viewBox="0 0 880 388" style="enable-background:new 0 0 880 388;" xml:space="preserve">
<style type="text/css">
	.st0{fill:#21303C;}
	.st1{filter:url(#Adobe_OpacityMaskFilter);}
	.st2{fill:#FFFFFF;}
	.st3{mask:url(#mask-2_1_);fill:#FAAD4D;}
	.st4{filter:url(#Adobe_OpacityMaskFilter_1_);}
	.st5{mask:url(#mask-4_1_);fill:#152D3D;}
	.st6{fill:#152D3D;}
	.st7{fill:#2BA9E0;}
	.st8{filter:url(#Adobe_OpacityMaskFilter_2_);}
	.st9{mask:url(#mask-6_1_);fill:#2BA9E0;}
	.st10{fill:#1565C0;}
	.st11{filter:url(#Adobe_OpacityMaskFilter_3_);}
	.st12{mask:url(#mask-8_1_);fill:#1565C0;}
	.st13{fill:#FF7A59;}
	.st14{fill:#01AFD6;}
	.st15{filter:url(#Adobe_OpacityMaskFilter_4_);}
	.st16{mask:url(#mask-10_1_);fill:#495C62;}
	.st17{fill:#495C62;}
	.st18{filter:url(#Adobe_OpacityMaskFilter_5_);}
	.st19{mask:url(#mask-12_1_);fill:#495C62;}
	.st20{fill:#7AC143;}
	.st21{fill:#F9A541;}
	.st22{filter:url(#Adobe_OpacityMaskFilter_6_);}
	.st23{mask:url(#mask-14_1_);fill:#F44321;}
	.st24{filter:url(#Adobe_OpacityMaskFilter_7_);}
	.st25{mask:url(#mask-16_1_);fill:#5091CD;}
	.st26{fill:#F26322;}
	.st27{filter:url(#Adobe_OpacityMaskFilter_8_);}
	.st28{mask:url(#mask-18_1_);fill:#9FDAE7;}
	.st29{fill:#515353;}
	.st30{fill:#231F20;}
	.st31{fill:#A99577;}
	.st32{fill:#C0B098;}
	.st33{filter:url(#Adobe_OpacityMaskFilter_9_);}
	.st34{mask:url(#mask-20_1_);fill:#776453;}
	.st35{filter:url(#Adobe_OpacityMaskFilter_10_);}
	.st36{mask:url(#mask-20_2_);fill:#8A7360;}
	.st37{filter:url(#Adobe_OpacityMaskFilter_11_);}
	.st38{mask:url(#mask-20_3_);fill:#515353;}
	.st39{filter:url(#Adobe_OpacityMaskFilter_12_);}
	.st40{mask:url(#mask-20_4_);fill:#A99577;}
	.st41{filter:url(#Adobe_OpacityMaskFilter_13_);}
	.st42{mask:url(#mask-20_5_);fill:#FEFEFE;}
	.st43{filter:url(#Adobe_OpacityMaskFilter_14_);}
	.st44{mask:url(#mask-20_6_);fill:#FEFEFE;}
	.st45{filter:url(#Adobe_OpacityMaskFilter_15_);}
	.st46{mask:url(#mask-20_7_);fill:#BABBBC;}
	.st47{filter:url(#Adobe_OpacityMaskFilter_16_);}
	.st48{mask:url(#mask-20_8_);fill:#BABBBC;}
	.st49{filter:url(#Adobe_OpacityMaskFilter_17_);}
	.st50{mask:url(#mask-20_9_);fill:#67696A;}
	.st51{filter:url(#Adobe_OpacityMaskFilter_18_);}
	.st52{mask:url(#mask-20_10_);fill:#231F20;}
	.st53{filter:url(#Adobe_OpacityMaskFilter_19_);}
	.st54{mask:url(#mask-20_11_);fill:#FEFEFE;}
	.st55{filter:url(#Adobe_OpacityMaskFilter_20_);}
	.st56{mask:url(#mask-20_12_);fill:#909393;}
	.st57{filter:url(#Adobe_OpacityMaskFilter_21_);}
	.st58{mask:url(#mask-20_13_);fill:#231F20;}
	.st59{filter:url(#Adobe_OpacityMaskFilter_22_);}
	.st60{mask:url(#mask-20_14_);fill:#FEFEFE;}
	.st61{filter:url(#Adobe_OpacityMaskFilter_23_);}
	.st62{mask:url(#mask-20_15_);fill:#BABBBC;}
	.st63{filter:url(#Adobe_OpacityMaskFilter_24_);}
	.st64{mask:url(#mask-20_16_);fill:#E1DCDA;}
	.st65{filter:url(#Adobe_OpacityMaskFilter_25_);}
	.st66{mask:url(#mask-20_17_);fill:#FAAF3F;}
	.st67{filter:url(#Adobe_OpacityMaskFilter_26_);}
	.st68{mask:url(#mask-20_18_);fill:#FAAF3F;}
	.st69{filter:url(#Adobe_OpacityMaskFilter_27_);}
	.st70{mask:url(#mask-20_19_);fill:#909393;}
	.st71{filter:url(#Adobe_OpacityMaskFilter_28_);}
	.st72{mask:url(#mask-20_20_);fill:#67696A;}
	.st73{filter:url(#Adobe_OpacityMaskFilter_29_);}
	.st74{mask:url(#mask-20_21_);fill:#E1DCDA;}
	.st75{filter:url(#Adobe_OpacityMaskFilter_30_);}
	.st76{mask:url(#mask-20_22_);fill:#E1DCDA;}
	.st77{filter:url(#Adobe_OpacityMaskFilter_31_);}
	.st78{mask:url(#mask-20_23_);fill:#515353;}
	.st79{filter:url(#Adobe_OpacityMaskFilter_32_);}
	.st80{mask:url(#mask-20_24_);fill:#FEFEFE;}
	.st81{filter:url(#Adobe_OpacityMaskFilter_33_);}
	.st82{mask:url(#mask-20_25_);fill:#231F20;}
	.st83{filter:url(#Adobe_OpacityMaskFilter_34_);}
	.st84{mask:url(#mask-20_26_);fill:none;}
	.st85{filter:url(#Adobe_OpacityMaskFilter_35_);}
	.st86{mask:url(#mask-20_27_);fill:#231F20;}
	.st87{filter:url(#Adobe_OpacityMaskFilter_36_);}
	.st88{mask:url(#mask-20_28_);fill:#FEFEFE;}
	.st89{filter:url(#Adobe_OpacityMaskFilter_37_);}
	.st90{mask:url(#mask-20_29_);fill:#9E2254;}
	.st91{filter:url(#Adobe_OpacityMaskFilter_38_);}
	.st92{mask:url(#mask-20_30_);fill:#E1066E;}
	.st93{filter:url(#Adobe_OpacityMaskFilter_39_);}
	.st94{mask:url(#mask-20_31_);fill:#231F20;}
	.st95{filter:url(#Adobe_OpacityMaskFilter_40_);}
	.st96{mask:url(#mask-22_1_);fill:#95BF47;}
	.st97{filter:url(#Adobe_OpacityMaskFilter_41_);}
	.st98{mask:url(#mask-24_1_);fill:#5E8E3E;}
	.st99{fill:#8AB4F8;}
	.st100{fill:#4285F4;}
	.st101{filter:url(#Adobe_OpacityMaskFilter_42_);}
	.st102{mask:url(#mask-28_1_);fill:#8AB4F8;}
	.st103{fill:#246FDB;}
	.st104{filter:url(#Adobe_OpacityMaskFilter_43_);}
	.st105{mask:url(#mask-30_1_);fill:#9B5C8F;}
	.st106{filter:url(#Adobe_OpacityMaskFilter_44_);}
	.st107{mask:url(#mask-32_1_);fill:#0099D6;}
	.st108{fill:#288CC0;}
	.st109{fill:#030303;}
	.st110{filter:url(#Adobe_OpacityMaskFilter_45_);}
	.st111{mask:url(#mask-34_1_);fill:#030303;}
	.st112{filter:url(#Adobe_OpacityMaskFilter_46_);}
	.st113{mask:url(#mask-36_1_);}
	.st114{filter:url(#Adobe_OpacityMaskFilter_47_);}
	.st115{mask:url(#mask-38_1_);}
	.st116{fill:#98CDAB;}
	.st117{fill:#49B682;}
	.st118{filter:url(#Adobe_OpacityMaskFilter_48_);}
	.st119{mask:url(#mask-40_1_);fill:#FFFFFF;}
	.st120{fill:#464342;}
	.st121{filter:url(#Adobe_OpacityMaskFilter_49_);}
	.st122{mask:url(#mask-42_1_);fill:#C5C5C5;}
	.st123{filter:url(#Adobe_OpacityMaskFilter_50_);}
	.st124{mask:url(#mask-44_1_);fill:#C5C5C5;}
	.st125{fill:#C5C5C5;}
	.st126{filter:url(#Adobe_OpacityMaskFilter_51_);}
	.st127{mask:url(#mask-46_1_);fill:#C5C5C5;}
</style>
<title>Group 34</title>
<desc>Created with Sketch.</desc>
<polygon id="Fill-1" class="st0" points="658.9,385.8 660,385.8 660,383.7 658.9,383.7 "/>
<g id="Group-18">
	<path id="Fill-2" class="st0" d="M671.3,379.3c0-0.5-0.2-0.9-0.4-1.2c-0.2-0.4-0.5-0.6-0.8-0.9c-0.3-0.2-0.7-0.4-1.2-0.5
		c-0.5-0.1-0.9-0.2-1.5-0.2c-0.7,0-1.3,0.1-1.9,0.4c-0.5,0.3-1,0.6-1.4,1.1c-0.4,0.4-0.7,1-0.8,1.5c-0.2,0.6-0.3,1.2-0.3,1.8
		c0,0.7,0.1,1.4,0.3,2c0.2,0.6,0.5,1.1,0.8,1.6c0.4,0.4,0.8,0.8,1.4,1c0.5,0.2,1.2,0.4,1.9,0.4c0.5,0,1-0.1,1.5-0.2
		c0.5-0.2,0.9-0.4,1.2-0.7c0.3-0.3,0.6-0.6,0.9-1c0.2-0.4,0.4-0.8,0.4-1.3h0.8c-0.1,0.6-0.3,1.2-0.6,1.7c-0.3,0.5-0.6,0.9-1.1,1.2
		c-0.4,0.3-0.9,0.6-1.4,0.8c-0.5,0.2-1.1,0.3-1.8,0.3c-0.9,0-1.7-0.2-2.4-0.5c-0.7-0.3-1.2-0.7-1.6-1.2c-0.4-0.5-0.7-1.1-0.9-1.8
		c-0.2-0.7-0.3-1.4-0.3-2.1s0.1-1.4,0.3-2.1c0.2-0.7,0.6-1.2,1-1.7c0.4-0.5,1-0.9,1.7-1.2c0.7-0.3,1.4-0.4,2.3-0.4
		c0.6,0,1.2,0.1,1.8,0.2c0.5,0.1,1,0.4,1.4,0.6c0.4,0.3,0.8,0.6,1,1.1c0.3,0.4,0.4,1,0.5,1.6H671.3z"/>
	<path id="Fill-4" class="st0" d="M674.5,381.3c0,0.6,0.1,1.2,0.3,1.8c0.2,0.6,0.5,1.1,0.8,1.5c0.4,0.5,0.8,0.8,1.4,1.1
		c0.5,0.3,1.2,0.4,1.9,0.4c0.7,0,1.3-0.1,1.9-0.4c0.5-0.3,1-0.6,1.4-1.1c0.4-0.5,0.7-1,0.8-1.5c0.2-0.6,0.3-1.2,0.3-1.8
		c0-0.6-0.1-1.2-0.3-1.8c-0.2-0.6-0.5-1.1-0.8-1.5c-0.4-0.5-0.8-0.8-1.4-1.1c-0.5-0.3-1.2-0.4-1.9-0.4c-0.7,0-1.3,0.1-1.9,0.4
		c-0.6,0.3-1,0.6-1.4,1.1c-0.4,0.5-0.7,1-0.8,1.5C674.6,380.1,674.5,380.7,674.5,381.3 M673.7,381.3c0-0.8,0.1-1.5,0.3-2.1
		c0.2-0.7,0.6-1.2,1-1.8c0.4-0.5,1-0.9,1.7-1.2c0.7-0.3,1.4-0.4,2.3-0.4c0.8,0,1.6,0.1,2.3,0.4c0.7,0.3,1.2,0.7,1.6,1.2
		c0.4,0.5,0.8,1.1,1,1.8c0.2,0.7,0.3,1.4,0.3,2.1c0,0.8-0.1,1.5-0.3,2.1c-0.2,0.7-0.6,1.3-1,1.8c-0.4,0.5-1,0.9-1.6,1.2
		c-0.7,0.3-1.4,0.4-2.3,0.4c-0.8,0-1.6-0.1-2.3-0.4c-0.7-0.3-1.2-0.7-1.7-1.2c-0.4-0.5-0.8-1.1-1-1.8
		C673.8,382.8,673.7,382.1,673.7,381.3"/>
	<path id="Fill-6" class="st0" d="M686.2,376.1h0.8v2.2h0c0.1-0.3,0.2-0.6,0.5-0.9c0.2-0.3,0.5-0.6,0.8-0.8c0.3-0.2,0.7-0.4,1.1-0.5
		c0.4-0.1,0.8-0.2,1.2-0.2c0.5,0,1,0.1,1.4,0.2c0.4,0.1,0.7,0.3,1,0.5c0.3,0.2,0.5,0.5,0.7,0.7c0.2,0.3,0.3,0.5,0.3,0.8h0
		c0.3-0.7,0.8-1.3,1.4-1.7s1.3-0.6,2.3-0.6c0.5,0,1,0.1,1.4,0.2c0.4,0.1,0.8,0.4,1.1,0.7c0.3,0.3,0.6,0.7,0.7,1.1
		c0.2,0.5,0.3,1,0.3,1.6v7.2h-0.8v-7.2c0-0.7-0.1-1.2-0.3-1.6c-0.2-0.4-0.5-0.7-0.8-0.9c-0.3-0.2-0.6-0.3-0.9-0.4
		c-0.3,0-0.5-0.1-0.7-0.1c-0.5,0-1,0.1-1.4,0.2c-0.4,0.2-0.8,0.4-1.1,0.7c-0.3,0.3-0.6,0.7-0.7,1.2c-0.2,0.5-0.3,1-0.3,1.7v6.2h-0.8
		v-7.2c0-0.7-0.1-1.2-0.3-1.6c-0.2-0.4-0.5-0.7-0.8-0.9c-0.3-0.2-0.6-0.3-0.9-0.4c-0.3-0.1-0.5-0.1-0.7-0.1c-0.4,0-0.8,0.1-1.2,0.2
		c-0.4,0.2-0.8,0.4-1.2,0.7c-0.4,0.3-0.6,0.7-0.9,1.2c-0.2,0.5-0.3,1.1-0.3,1.7v6.2h-0.8V376.1z"/>
	<g id="Group-10" transform="translate(31.110867, 0.000000)">
		<g id="Clip-9">
		</g>
		<defs>
			<filter id="Adobe_OpacityMaskFilter" filterUnits="userSpaceOnUse" x="600.1" y="366.1" width="4" height="4.4">
				<feColorMatrix  type="matrix" values="1 0 0 0 0  0 1 0 0 0  0 0 1 0 0  0 0 0 1 0"/>
			</filter>
		</defs>
		<mask maskUnits="userSpaceOnUse" x="600.1" y="366.1" width="4" height="4.4" id="mask-2_1_">
			<g class="st1">
				<polygon id="path-1_1_" class="st2" points="600.1,366.1 604.1,366.1 604.1,370.5 600.1,370.5 				"/>
			</g>
		</mask>
		<path id="Fill-8" class="st3" d="M601.7,366.5c-1.1,0.5-1.6,1.5-1.6,4c0,0,0.6-0.5,1.4-0.8c0.6-0.2,1.2-0.5,1.5-0.7
			c1-0.6,1.1-1.5,1.1-2.9C604.1,366.1,602.5,366.1,601.7,366.5"/>
	</g>
	<g id="Group-13">
		<g id="Clip-12">
		</g>
		<defs>
			<filter id="Adobe_OpacityMaskFilter_1_" filterUnits="userSpaceOnUse" x="600" y="366.1" width="29.8" height="20.5">
				<feColorMatrix  type="matrix" values="1 0 0 0 0  0 1 0 0 0  0 0 1 0 0  0 0 0 1 0"/>
			</filter>
		</defs>
		<mask maskUnits="userSpaceOnUse" x="600" y="366.1" width="29.8" height="20.5" id="mask-4_1_">
			<g class="st4">
				<polygon id="path-3_1_" class="st2" points="600,366.1 629.8,366.1 629.8,386.6 600,386.6 				"/>
			</g>
		</mask>
		<path id="Fill-11" class="st5" d="M626.1,367.1c-0.9,0.8-1.2,1.9-1.2,1.9l-3.1,10.9l-2.6-8.9c-0.2-1-0.7-2.1-1.4-2.9
			c-0.9-1-2.7-1.1-2.9-1.1c-0.2,0-2,0.1-2.9,1.1c-0.7,0.8-1.2,2-1.4,2.9L608,380L605,369c0,0-0.3-1.2-1.2-1.9c-1.5-1.2-3.8-1-3.8-1
			l5.9,20.4c0,0,1.9,0.1,2.9-0.3c1.3-0.6,1.9-1.1,2.6-3.8c0.7-2.5,2.6-9.8,2.8-10.3c0.1-0.3,0.2-0.9,0.7-0.9c0.5,0,0.6,0.6,0.7,0.9
			c0.2,0.5,2.1,7.8,2.8,10.3c0.8,2.8,1.4,3.2,2.6,3.8c1,0.5,2.9,0.3,2.9,0.3l5.9-20.4C629.8,366.1,627.6,365.9,626.1,367.1"/>
	</g>
	<path id="Fill-14" class="st6" d="M635.2,369.5c0,0-0.4,0.5-1.2,1c-0.5,0.3-1.1,0.5-1.6,0.7c-0.9,0.4-1.2,0.9-1.2,1.6v0.2v1.1v0
		v0.2v12.3c0,0,1.5,0.2,2.5-0.3c1.2-0.6,1.5-1.1,1.5-3.7v-12.4l0,0V369.5z"/>
	<path id="Fill-16" class="st6" d="M649.9,376.4l7.5-10.2c0,0-3.1-0.5-4.7,0.8c-1,0.8-2.1,2.3-2.1,2.3l-2.7,3.6
		c-0.1,0.2-0.3,0.4-0.6,0.4s-0.5-0.2-0.6-0.4l-2.7-3.6c0,0-1.1-1.5-2.1-2.3c-1.6-1.3-4.7-0.8-4.7-0.8l7.5,10.2l-7.4,10.2
		c0,0,3.3,0.4,4.8-0.9c1-0.8,2-2.2,2-2.2l2.7-3.6c0.1-0.2,0.3-0.4,0.6-0.4s0.5,0.2,0.6,0.4l2.7,3.6c0,0,1,1.4,2,2.2
		c1.6,1.3,4.8,0.9,4.8,0.9L649.9,376.4z"/>
</g>
<path id="Fill-1_1_" class="st7" d="M24.9,207.2c-5.2,0-9.4,4-9.4,8.9c0,4.9,4.2,8.9,9.4,8.9c5.2,0,9.4-4,9.4-8.9
	C34.3,211.2,30.1,207.2,24.9,207.2"/>
<path id="Fill-3" class="st7" d="M35.2,207.1c2.8,2.7,4.5,6.4,4.5,10.4c0,5.1-2.8,9.6-7,12.3c7.8-2.2,14.3-7.6,17.1-14.2
	c4-9.1,0.3-15.9-6-22.1c0.2,0.8,0.3,1.6,0.3,2.5C44.2,201.3,40.4,205.7,35.2,207.1"/>
<path id="Fill-5" class="st7" d="M24.5,195.6c0,3.8,3.1,6.8,6.9,6.8c3.8,0,7-3.1,7-6.8c0-3.8-3.1-6.8-6.9-6.8
	C27.7,188.7,24.5,191.8,24.5,195.6"/>
<g id="Group-9" transform="translate(0.809754, 0.427184)">
	<g id="Clip-8">
	</g>
	<defs>
		<filter id="Adobe_OpacityMaskFilter_2_" filterUnits="userSpaceOnUse" x="0" y="173" width="33.5" height="52.3">
			<feColorMatrix  type="matrix" values="1 0 0 0 0  0 1 0 0 0  0 0 1 0 0  0 0 0 1 0"/>
		</filter>
	</defs>
	<mask maskUnits="userSpaceOnUse" x="0" y="173" width="33.5" height="52.3" id="mask-6_1_">
		<g class="st8">
			<polygon id="path-5_1_" class="st2" points="0,173 33.5,173 33.5,225.3 0,225.3 			"/>
		</g>
	</mask>
	<path id="Fill-7" class="st9" d="M12,225.3c-2.3-2.6-3.7-6-3.7-9.6c0-7.7,6-14,13.8-14.8c-1.3-1.8-2.1-4.1-2.1-6.5
		c0-6.3,5.3-11.4,11.9-11.4c0.6,0,1.1,0,1.6,0.1c-3.9-3.2-7.8-6.5-10.9-10.1c1.6,15.7-14.9,10-21,24.4
		C-2.5,207.1,1.2,219.1,12,225.3"/>
</g>
<path id="Fill-1_2_" class="st10" d="M217.2,383.4v-26.9c0-0.2-0.3-0.5-0.7-0.5l-2.5-0.2c-0.5,0-0.9,0.2-0.9,0.5v27.4
	c0,0.3,0.4,0.5,0.9,0.5l2.5-0.2C216.9,383.8,217.2,383.6,217.2,383.4"/>
<path id="Fill-3_1_" class="st10" d="M211.5,382.6v-23.6c0-0.3-0.3-0.5-0.7-0.5l-2.5-0.2c-0.5,0-0.9,0.2-0.9,0.5v24
	c0,0.3,0.4,0.6,0.9,0.5l2.5-0.2C211.2,383.1,211.5,382.8,211.5,382.6"/>
<g id="Group-7" transform="translate(10.966732, 0.321183)">
	<g id="Clip-6">
	</g>
	<defs>
		<filter id="Adobe_OpacityMaskFilter_3_" filterUnits="userSpaceOnUse" x="207.1" y="353.1" width="23.4" height="33.5">
			<feColorMatrix  type="matrix" values="1 0 0 0 0  0 1 0 0 0  0 0 1 0 0  0 0 0 1 0"/>
		</filter>
	</defs>
	<mask maskUnits="userSpaceOnUse" x="207.1" y="353.1" width="23.4" height="33.5" id="mask-8_1_">
		<g class="st11">
			<polygon id="path-7_1_" class="st2" points="207.1,353.1 230.4,353.1 230.4,386.6 207.1,386.6 			"/>
		</g>
	</mask>
	<path id="Fill-5_1_" class="st12" d="M227.6,380.1c0,0.2-0.2,0.5-0.5,0.5l-15.7,2.1c-0.3,0-0.6-0.2-0.6-0.5v-24.4
		c0-0.3,0.3-0.5,0.6-0.5l15.7,1.8c0.3,0,0.5,0.2,0.5,0.5L227.6,380.1L227.6,380.1z M230,356.5l-22.3-3.4c-0.3-0.1-0.6,0.2-0.6,0.5
		v32.5c0,0.3,0.3,0.5,0.6,0.5l22.3-3.7c0.3,0,0.4-0.2,0.4-0.5V357C230.4,356.7,230.3,356.5,230,356.5L230,356.5z"/>
</g>
<path id="Fill-1_3_" class="st13" d="M36.7,36.2c-3.8,0-6.9-3.1-6.9-6.9c0-3.8,3.1-6.9,6.9-6.9c3.8,0,6.9,3.1,6.9,6.9
	C43.6,33.1,40.5,36.2,36.7,36.2 M38.7,16.5v-5.9c1.6-0.7,2.7-2.4,2.7-4.1V6.3c0-2.5-2.1-4.6-4.7-4.6h-0.1c-2.6,0-4.7,2-4.7,4.6v0.1
	c0,1.8,1.1,3.4,2.7,4.1v5.9c-2.3,0.3-4.5,1.3-6.3,2.7L11.5,6.5c0.8-2.8-0.9-5.6-3.8-6.4C4.9-0.6,1.9,1.1,1.2,3.9
	C0.4,6.6,2.1,9.5,5,10.2c1.4,0.4,2.8,0.2,4-0.5l16.5,12.5c-3,4.5-3,10.3,0.2,14.7l-5,4.9c-0.4-0.1-0.8-0.2-1.2-0.2
	c-2.4,0-4.3,1.9-4.3,4.2c0,2.3,1.9,4.2,4.3,4.2c2.4,0,4.3-1.9,4.3-4.2c0-0.4-0.1-0.8-0.2-1.2l5-4.8c5.9,4.4,14.3,3.3,18.7-2.4
	s3.4-13.9-2.5-18.2C43,17.7,40.9,16.9,38.7,16.5"/>
<path id="Fill-1_4_" class="st14" d="M258.6,16.8c-0.1,0.4-0.2,0.7-0.4,1.1c-1.6,4.2-3.1,8.3-4.7,12.5c-0.2,0.4-0.4,0.5-0.8,0.5
	c-1.2,0-1.2,0-1.6-1c-1.5-4.3-2.9-8.6-4.4-12.9c0-0.1-0.1-0.2-0.1-0.3c-0.3,4.7-0.6,9.5-0.8,14.3h-2.3c0.4-5.6,0.8-11.2,1.2-16.8
	c0.9,0,1.8,0,2.6,0c0.2,0,0.5,0.2,0.5,0.4c1.5,4.2,3,8.4,4.5,12.7c0.1,0.2,0.1,0.3,0.2,0.4c1.2-3.3,2.5-6.6,3.8-9.9
	c0.4-1.1,0.8-2.1,1.3-3.1c0.1-0.2,0.4-0.4,0.6-0.4c0.6-0.1,1.3,0,1.9,0c0.4,0,0.6,0.1,0.6,0.5c0.3,5.2,0.7,10.4,1,15.5
	c0,0.2,0,0.5,0,0.8h-2.3C259.2,26.3,259,21.5,258.6,16.8C258.7,16.8,258.7,16.8,258.6,16.8"/>
<g id="Group-5" transform="translate(16.066990, 6.294110)">
	<g id="Clip-4">
	</g>
	<defs>
		<filter id="Adobe_OpacityMaskFilter_4_" filterUnits="userSpaceOnUse" x="174.1" y="13.1" width="12.6" height="16.7">
			<feColorMatrix  type="matrix" values="1 0 0 0 0  0 1 0 0 0  0 0 1 0 0  0 0 0 1 0"/>
		</filter>
	</defs>
	<mask maskUnits="userSpaceOnUse" x="174.1" y="13.1" width="12.6" height="16.7" id="mask-10_1_">
		<g class="st15">
			<polygon id="path-9_1_" class="st2" points="174.1,13.1 186.7,13.1 186.7,29.8 174.1,29.8 			"/>
		</g>
	</mask>
	<path id="Fill-3_2_" class="st16" d="M184.3,19c0-0.4,0-0.8,0-1.2c-0.1-1.3-1.1-2.5-2.4-2.8c-1.4-0.4-3,0-4,1
		c-1.5,1.5-1.5,4.5-0.1,6.1c0.9,1,2.2,1.4,3.6,1.1c1.5-0.3,2.3-1.1,2.7-2.3C184.3,20.2,184.3,19,184.3,19 M176.1,27.2
		c1.4,0.7,2.9,1,4.4,0.9c2-0.1,3.3-1.1,3.6-2.8c0.1-0.7,0.1-1.5,0.1-2.3c-1.5,1.6-3.4,2-5.6,1.6c-2.5-0.5-4-2.1-4.4-4.2
		c-0.5-2.4,0.1-4.6,2.4-6.2c2.6-1.8,5.7-1.5,7.9,0.8c0-0.5,0.1-1,0.1-1.5h2c0,0.9,0,1.8,0,2.6c0,2.7,0,5.4,0,8.1
		c0,0.5-0.1,1-0.2,1.5c-0.6,2.5-2.6,3.9-5.6,4c-1.9,0.1-3.7,0-5.4-0.9C175.7,28.3,175.9,27.8,176.1,27.2"/>
</g>
<path id="Fill-6_1_" class="st17" d="M208.4,31h-2.2V14.2h2.2v7.1c0.3-0.3,0.4-0.4,0.5-0.5c1.3-1.3,2.9-1.8,4.8-1.4
	c1.8,0.5,2.7,1.7,3.1,3.3c0.1,0.5,0.1,1,0.1,1.5c0,2.2,0,4.4,0,6.7h-2.3c0-0.7,0-1.3,0-1.9c0-1.7,0-3.5-0.1-5.2
	c-0.1-1.9-1.2-2.8-3-2.8c-1.7,0.1-3.1,1.4-3.1,3.1c0,2,0,4.1,0,6.1C208.4,30.4,208.4,30.7,208.4,31"/>
<path id="Fill-8_1_" class="st14" d="M274,14.8c-0.2,0.6-0.4,1.2-0.6,1.5c-1.3-0.3-2.4-0.5-3.7-0.5c-0.5,0-1.1,0.1-1.6,0.3
	c-1.7,0.7-2,2.8-0.5,3.9c0.7,0.5,1.6,0.8,2.4,1.2c0.9,0.4,1.8,0.7,2.6,1.2c2.9,1.9,2.8,5.9-0.3,7.5c-2.7,1.4-5.5,1-8.3-0.2
	c0.2-0.6,0.4-1.2,0.6-1.8c1.5,0.8,3.1,1.1,4.7,1c2.2-0.2,3.5-1.7,2.8-3.5c-0.2-0.5-0.6-1-1.1-1.4c-0.7-0.5-1.5-0.7-2.3-1.1
	c-0.9-0.4-1.9-0.8-2.6-1.3c-2.5-1.7-2.3-5.1,0.3-6.7C268.8,13.6,271.4,13.9,274,14.8"/>
<path id="Fill-10" class="st14" d="M241.5,14.8c-0.2,0.6-0.4,1.1-0.6,1.7c-4.5-1.1-7.6-0.5-9.4,1.9c-1.8,2.3-1.7,6.3,0.1,8.4
	c1.9,2.3,5.2,2.9,9.4,1.6c0.1,0.5,0.3,0.9,0.4,1.4c0,0.1-0.1,0.4-0.3,0.4c-3.3,1.1-8.7,1.2-11.6-2.3c-4.2-5-1.1-12.5,5.8-13.7
	C237.3,13.9,239.4,14,241.5,14.8"/>
<g id="Group-14">
	<g id="Clip-13">
	</g>
	<defs>
		<filter id="Adobe_OpacityMaskFilter_5_" filterUnits="userSpaceOnUse" x="174" y="14.4" width="9.6" height="16.6">
			<feColorMatrix  type="matrix" values="1 0 0 0 0  0 1 0 0 0  0 0 1 0 0  0 0 0 1 0"/>
		</filter>
	</defs>
	<mask maskUnits="userSpaceOnUse" x="174" y="14.4" width="9.6" height="16.6" id="mask-12_1_">
		<g class="st18">
			<polygon id="path-11_1_" class="st2" points="174,14.4 183.6,14.4 183.6,31 174,31 			"/>
		</g>
	</mask>
	<polygon id="Fill-12" class="st19" points="176.2,29.2 183.6,29.2 183.6,31 174,31 174,14.4 176.2,14.4 	"/>
</g>
<path id="Fill-15" class="st17" d="M221,20h-2v-1.8h2c0-0.7,0-1.2,0-1.8c0-0.2,0.2-0.5,0.4-0.5c0.6-0.2,1.2-0.4,1.9-0.6v2.9
	c0.9,0,1.7,0,2.5,0c0.5,0,0.7,0.2,0.6,0.6c0,0.4,0,0.8,0,1.2h-3c0,0.2-0.1,0.4-0.1,0.6c0,2.1,0,4.2,0,6.2c0,1.7,0.6,2.2,2.3,2.1
	c0.2,0,0.4,0,0.7-0.1c0,0.5,0.1,1.1,0.1,1.6c-2.5,1.3-5.3-0.1-5.4-2.9c-0.1-2.2,0-4.4-0.1-6.6C221,20.7,221,20.4,221,20"/>
<g>
	<path id="Fill-17" class="st17" d="M185.8,30.9V18.4h2.1c0,0.3,0,0.5,0,0.8c0,3.7,0,11.8,0,11.8H185.8z"/>
	<path id="Fill-19" class="st17" d="M186.9,13.1c0.9,0,1.6,0.7,1.6,1.6c0,0.9-0.8,1.6-1.7,1.6c-0.9,0-1.5-0.7-1.5-1.6
		C185.3,13.7,185.9,13.1,186.9,13.1"/>
</g>
<path id="Fill-1_5_" class="st20" d="M839.5,203.1l-0.8-0.8c-2.5-2.6-3.3-6.3-2.3-9.6c-2.5-0.6-4.4-2.9-4.4-5.7
	c0-3.2,2.5-5.9,5.6-5.9c2.8,0,5.1,2.1,5.6,4.9c3-0.7,6.4,0.1,8.7,2.6l0.3,0.3l-4.2,4.3l-0.3-0.3c-1.4-1.4-3.5-1.4-4.9,0
	c-1.4,1.4-1.4,3.7,0,5.1l0.8,0.8l4.2,4.3l4.4,4.6l-4.2,4.3l-4.4-4.6L839.5,203.1z"/>
<path id="Fill-3_3_" class="st21" d="M844.8,197.2l4.3-4.3l4-4.1l0.8-0.8c2.4-2.4,5.9-3.2,8.9-2.3c0.4-2.7,2.6-4.8,5.4-4.8
	c3,0,5.4,2.5,5.4,5.5c0,2.8-2.1,5.1-4.7,5.5c0.9,3.1,0.1,6.6-2.3,9l-0.3,0.3l-4-4.1l0.3-0.3c1.3-1.3,1.3-3.5,0-4.8
	c-1.3-1.3-3.4-1.3-4.7,0l-0.8,0.8l-4,4.1l-4.3,4.3L844.8,197.2z"/>
<g id="Group-7_1_" transform="translate(21.350345, 10.673151)">
	<g id="Clip-6_1_">
	</g>
	<defs>
		<filter id="Adobe_OpacityMaskFilter_6_" filterUnits="userSpaceOnUse" x="832" y="181.2" width="21" height="30.8">
			<feColorMatrix  type="matrix" values="1 0 0 0 0  0 1 0 0 0  0 0 1 0 0  0 0 0 1 0"/>
		</filter>
	</defs>
	<mask maskUnits="userSpaceOnUse" x="832" y="181.2" width="21" height="30.8" id="mask-14_1_">
		<g class="st22">
			<polygon id="path-13_1_" class="st2" points="832,181.2 853,181.2 853,212 832,212 			"/>
		</g>
	</mask>
	<path id="Fill-5_2_" class="st23" d="M841.8,207.2c-3.2,1-6.9,0.2-9.4-2.4l-0.3-0.3l4.2-4.4l0.3,0.3c1.4,1.4,3.6,1.4,4.9,0
		c1.4-1.4,1.4-3.7,0-5.1l-0.8-0.9l-4.2-4.4l-4.4-4.6l4.2-4.4l4.4,4.6l4.2,4.4l0.8,0.9c2.4,2.5,3.2,6,2.5,9.2
		c2.8,0.4,4.9,2.9,4.9,5.8c0,3.3-2.5,5.9-5.7,5.9C844.6,212,842.3,209.9,841.8,207.2"/>
</g>
<g id="Group-10_2_" transform="translate(0.000000, 21.346303)">
	<g id="Clip-9_1_">
	</g>
	<defs>
		<filter id="Adobe_OpacityMaskFilter_7_" filterUnits="userSpaceOnUse" x="832" y="181" width="28.6" height="20.3">
			<feColorMatrix  type="matrix" values="1 0 0 0 0  0 1 0 0 0  0 0 1 0 0  0 0 0 1 0"/>
		</filter>
	</defs>
	<mask maskUnits="userSpaceOnUse" x="832" y="181" width="28.6" height="20.3" id="mask-16_1_">
		<g class="st24">
			<polygon id="path-15_1_" class="st2" points="832,181 860.6,181 860.6,201.3 832,201.3 			"/>
		</g>
	</mask>
	<path id="Fill-8_2_" class="st25" d="M860.6,185.2l-4.3,4.4l-4.1,4.1l-0.8,0.8c-2.3,2.4-5.6,3.2-8.6,2.4c-0.6,2.5-2.7,4.3-5.4,4.3
		c-3,0-5.5-2.5-5.5-5.6c0-2.7,1.8-4.9,4.2-5.5c-0.8-3.1,0-6.5,2.4-8.9l0.3-0.3l4.1,4.1l-0.3,0.3c-1.3,1.3-1.3,3.5,0,4.9
		c1.3,1.3,3.5,1.3,4.8,0l0.8-0.8l4.1-4.1l4.3-4.4L860.6,185.2z"/>
</g>
<polygon id="Fill-1_6_" class="st26" points="224,226 187,246.8 187,288.4 197.6,294.4 197.5,252.8 223.9,237.9 250.3,252.8 
	250.3,294.4 260.8,288.4 260.8,246.8 "/>
<polygon id="Fill-2_1_" class="st26" points="230.8,294 225.6,297 220.3,294.1 220.3,252.5 209.7,258.5 209.7,300 225.5,308.9 
	241.4,300 241.4,258.5 230.8,252.5 "/>
<g id="Group-3_1_">
	<g id="Clip-2">
	</g>
	<defs>
		<filter id="Adobe_OpacityMaskFilter_8_" filterUnits="userSpaceOnUse" x="399" y="302" width="83.8" height="73.7">
			<feColorMatrix  type="matrix" values="1 0 0 0 0  0 1 0 0 0  0 0 1 0 0  0 0 0 1 0"/>
		</filter>
	</defs>
	<mask maskUnits="userSpaceOnUse" x="399" y="302" width="83.8" height="73.7" id="mask-18_1_">
		<g class="st27">
			<polygon id="path-17_1_" class="st2" points="399,302 482.8,302 482.8,375.8 399,375.8 			"/>
		</g>
	</mask>
	<path id="Fill-1_7_" class="st28" d="M426.2,366.5c0.7-0.3,1.3-0.6,2-0.8c0.8-0.3,1.6-0.6,2.3-0.8c1-0.3,2-0.6,3-0.8
		c1.4-0.3,2.7-0.5,4.1-0.6c-0.8,2.4-1.6,4.9-2.6,7.3c0,0.5,0.1,0.9,0.1,1.4c1.9-0.4,3.8-0.6,5.8-0.6s3.9,0.2,5.8,0.6
		c0-0.5,0-0.9,0.1-1.4c-0.9-2.4-1.8-4.8-2.6-7.3c1.4,0.1,2.7,0.3,4.1,0.6c1,0.2,2,0.5,3,0.8c0.8,0.2,1.6,0.5,2.3,0.8
		c0.7,0.3,1.4,0.5,2,0.8c4.7,2.1,9.1,5.3,12.6,9.3c8.9-7.7,14.5-19.1,14.5-31.8c0-23.2-18.8-42-41.9-42c-23.1,0-41.9,18.8-41.9,42
		c0,12.7,5.6,24.1,14.5,31.8C417.1,371.7,421.4,368.6,426.2,366.5"/>
</g>
<path id="Fill-4_1_" class="st29" d="M427.4,373.6c1.9-0.8,3.8-1.4,5.9-1.8c0-0.4,0-0.9-0.1-1.3c0.9-2.2,1.7-4.4,2.4-6.6
	c-1.3,0.1-2.6,0.3-3.9,0.6c-1,0.2-1.9,0.4-2.8,0.7c-0.8,0.2-1.5,0.5-2.2,0.7l2.9,0.7L427.4,373.6z"/>
<path id="Fill-6_2_" class="st29" d="M421,376.7c0.1-0.8,0.1-1.6,0.1-2.3c0-0.5,0.4-0.9,1-0.9h0.8l2.9-8.8
	c-5.2,2.1-9.9,5.2-13.8,9.2c2.1,1.7,4.5,3.2,6.9,4.5C419.6,377.8,420.3,377.3,421,376.7"/>
<path id="Fill-8_3_" class="st29" d="M456,364.7l2.9,8.8h0.8c0.5,0,1,0.4,1,0.9c0,0.8,0.1,1.6,0.1,2.3c0.7,0.5,1.4,1.1,2,1.7
	c2.5-1.3,4.8-2.8,6.9-4.5C465.9,369.9,461.2,366.8,456,364.7"/>
<path id="Fill-10_1_" class="st29" d="M452.3,366.6l2.9-0.7c-0.7-0.3-1.5-0.5-2.2-0.7c-0.9-0.3-1.9-0.5-2.8-0.7
	c-1.3-0.3-2.6-0.5-3.9-0.6c0.7,2.2,1.5,4.4,2.4,6.6c0,0.4-0.1,0.8-0.1,1.3c2.1,0.4,4,1,5.9,1.8L452.3,366.6z"/>
<path id="Fill-12_1_" class="st30" d="M441.3,372.8h5.7c-0.1-0.9-0.2-1.8-0.1-2.7c-1.8-0.3-3.7-0.5-5.6-0.5c-1.9,0-3.8,0.2-5.6,0.5
	c0,0.9,0,1.8-0.1,2.7H441.3z"/>
<path id="Fill-14_1_" class="st30" d="M420.2,379.3c0.2,0.3,0.4,0.5,0.6,0.8c0.1-0.8,0.1-1.6,0.2-2.4
	C420.7,378.1,420.4,378.7,420.2,379.3"/>
<path id="Fill-16_1_" class="st30" d="M428.3,375.2h5.6c0.1-1.1,0.1-2.2,0.1-3.2c-1.9,0.4-3.7,1.1-5.4,1.9L428.3,375.2z"/>
<path id="Fill-18" class="st30" d="M460.9,377.6c0,0.8,0.1,1.6,0.2,2.4c0.2-0.2,0.4-0.5,0.6-0.8
	C461.4,378.7,461.1,378.1,460.9,377.6"/>
<path id="Fill-20" class="st30" d="M454.4,375.2l-0.3-1.3c-1.7-0.9-3.5-1.5-5.4-1.9c0,1.1,0,2.1,0.1,3.2H454.4z"/>
<path id="Fill-22" class="st31" d="M428.7,375.2l0.4-1.2l2.4-7l-3.2-0.7c-0.7,0.2-1.4,0.5-2.1,0.8l-2.8,8.1h3H428.7z"/>
<path id="Fill-24" class="st31" d="M452.7,374l0.4,1.2h2.3h3l-2.8-8.1c-0.7-0.3-1.4-0.5-2.1-0.8l-3.2,0.7L452.7,374z"/>
<path id="Fill-26" class="st32" d="M423.7,375.7c0.1-0.1,0.1-0.1,0.2-0.2h-0.2C423.7,375.6,423.7,375.6,423.7,375.7"/>
<path id="Fill-28" class="st32" d="M441.3,376h-6.1h-6.7h-4.4c0,0-0.1,0-0.1,0.1c-0.1,1.6-0.3,3.2-0.6,4.8c5.4,2.6,11.5,4,17.9,4
	V376z"/>
<path id="Fill-30" class="st31" d="M458.1,375.5h-0.2c0.1,0.1,0.1,0.1,0.2,0.2C458.1,375.6,458.1,375.6,458.1,375.5"/>
<path id="Fill-32" class="st31" d="M457.7,376h-4.4h-6.7h-6.1h0v8.8c6.4,0,12.5-1.4,17.9-4C458.1,379.3,457.9,377.7,457.7,376
	C457.8,376,457.7,376,457.7,376"/>
<g id="Clip-35">
</g>
<defs>
	<filter id="Adobe_OpacityMaskFilter_9_" filterUnits="userSpaceOnUse" x="440.9" y="375.2" width="0" height="0.8">
		<feColorMatrix  type="matrix" values="1 0 0 0 0  0 1 0 0 0  0 0 1 0 0  0 0 0 1 0"/>
	</filter>
</defs>
<mask maskUnits="userSpaceOnUse" x="440.9" y="375.2" width="0" height="0.8" id="mask-20_1_">
	<g class="st33">
		<polygon id="path-19_1_" class="st2" points="399,384.9 482.8,384.9 482.8,302 399,302 		"/>
	</g>
</mask>
<polygon id="Fill-34" class="st34" points="440.9,376 440.9,376 440.9,375.2 440.9,375.2 "/>
<defs>
	<filter id="Adobe_OpacityMaskFilter_10_" filterUnits="userSpaceOnUse" x="422.6" y="375.2" width="39.1" height="5.6">
		<feColorMatrix  type="matrix" values="1 0 0 0 0  0 1 0 0 0  0 0 1 0 0  0 0 0 1 0"/>
	</filter>
</defs>
<mask maskUnits="userSpaceOnUse" x="422.6" y="375.2" width="39.1" height="5.6" id="mask-20_2_">
	<g class="st35">
		<polygon id="path-19_2_" class="st2" points="399,384.9 482.8,384.9 482.8,302 399,302 		"/>
	</g>
</mask>
<path id="Fill-36" class="st36" d="M461.3,378c-0.1-0.7-0.1-1.3-0.1-2c0-0.4-0.4-0.7-0.9-0.7h-0.8h-2.9h-2.2H448h-5.9h-5.9h-6.5
	h-2.2h-2.9H424c-0.5,0-0.9,0.3-0.9,0.7c0,0.7,0,1.4-0.1,2c-0.1,0.7-0.2,1.5-0.4,2.2c0.5,0.2,1.1,0.5,1.6,0.7
	c0.4-1.3,0.6-2.7,0.6-4.1c0,0,0,0,0,0h0.1h4.4h6.7h6.2h0h6.2h6.7h4.4h0.1c0,0,0,0,0,0c0.1,1.4,0.3,2.8,0.6,4.1
	c0.5-0.2,1.1-0.5,1.6-0.7C461.5,379.4,461.4,378.7,461.3,378"/>
<defs>
	<filter id="Adobe_OpacityMaskFilter_11_" filterUnits="userSpaceOnUse" x="451.9" y="367.2" width="0.8" height="0.8">
		<feColorMatrix  type="matrix" values="1 0 0 0 0  0 1 0 0 0  0 0 1 0 0  0 0 0 1 0"/>
	</filter>
</defs>
<mask maskUnits="userSpaceOnUse" x="451.9" y="367.2" width="0.8" height="0.8" id="mask-20_3_">
	<g class="st37">
		<polygon id="path-19_3_" class="st2" points="399,384.9 482.8,384.9 482.8,302 399,302 		"/>
	</g>
</mask>
<path id="Fill-37" class="st38" d="M452.7,368c-0.3-0.2-0.5-0.5-0.8-0.8C452.2,367.5,452.5,367.7,452.7,368"/>
<defs>
	<filter id="Adobe_OpacityMaskFilter_12_" filterUnits="userSpaceOnUse" x="454.4" y="367.2" width="0.8" height="0.8">
		<feColorMatrix  type="matrix" values="1 0 0 0 0  0 1 0 0 0  0 0 1 0 0  0 0 0 1 0"/>
	</filter>
</defs>
<mask maskUnits="userSpaceOnUse" x="454.4" y="367.2" width="0.8" height="0.8" id="mask-20_4_">
	<g class="st39">
		<polygon id="path-19_4_" class="st2" points="399,384.9 482.8,384.9 482.8,302 399,302 		"/>
	</g>
</mask>
<path id="Fill-38" class="st40" d="M455.2,367.9C455.2,367.9,455.2,367.9,455.2,367.9C455.2,367.9,455.2,367.9,455.2,367.9
	s-0.4-0.3-0.8-0.8C454.8,367.7,455.2,367.9,455.2,367.9"/>
<defs>
	<filter id="Adobe_OpacityMaskFilter_13_" filterUnits="userSpaceOnUse" x="467" y="332.2" width="0" height="0">
		<feColorMatrix  type="matrix" values="1 0 0 0 0  0 1 0 0 0  0 0 1 0 0  0 0 0 1 0"/>
	</filter>
</defs>
<mask maskUnits="userSpaceOnUse" x="467" y="332.2" width="0" height="0" id="mask-20_5_">
	<g class="st41">
		<polygon id="path-19_5_" class="st2" points="399,384.9 482.8,384.9 482.8,302 399,302 		"/>
	</g>
</mask>
<polygon id="Fill-39" class="st42" points="467,332.2 467,332.2 467,332.2 "/>
<defs>
	<filter id="Adobe_OpacityMaskFilter_14_" filterUnits="userSpaceOnUse" x="469.4" y="343.4" width="0" height="0">
		<feColorMatrix  type="matrix" values="1 0 0 0 0  0 1 0 0 0  0 0 1 0 0  0 0 0 1 0"/>
	</filter>
</defs>
<mask maskUnits="userSpaceOnUse" x="469.4" y="343.4" width="0" height="0" id="mask-20_6_">
	<g class="st43">
		<polygon id="path-19_6_" class="st2" points="399,384.9 482.8,384.9 482.8,302 399,302 		"/>
	</g>
</mask>
<path id="Fill-40" class="st44" d="M469.4,343.4C469.4,343.4,469.4,343.4,469.4,343.4C469.4,343.4,469.4,343.4,469.4,343.4"/>
<defs>
	<filter id="Adobe_OpacityMaskFilter_15_" filterUnits="userSpaceOnUse" x="466.6" y="332.6" width="3.3" height="11.3">
		<feColorMatrix  type="matrix" values="1 0 0 0 0  0 1 0 0 0  0 0 1 0 0  0 0 0 1 0"/>
	</filter>
</defs>
<mask maskUnits="userSpaceOnUse" x="466.6" y="332.6" width="3.3" height="11.3" id="mask-20_7_">
	<g class="st45">
		<polygon id="path-19_7_" class="st2" points="399,384.9 482.8,384.9 482.8,302 399,302 		"/>
	</g>
</mask>
<path id="Fill-41" class="st46" d="M468.5,334.8L468.5,334.8L468.5,334.8C468.4,334.8,468.4,334.7,468.5,334.8L468.5,334.8
	c-0.3-0.5-0.6-0.9-1-1.3c0,0,0,0,0,0c0,0,0,0,0,0c0,0,0,0,0,0v0c-0.1-0.2-0.3-0.3-0.4-0.5c-0.1-0.1-0.1-0.1-0.2-0.2
	c-0.1-0.1-0.2-0.2-0.3-0.3v0v3.6l1.3,6.4v0c0,0,0,0.1,0,0.1l0.9,1.1l0,0h1c0-0.1,0-0.2,0-0.3v0c0-3-0.5-5.9-1.3-8.6v0
	C468.5,334.9,468.5,334.8,468.5,334.8"/>
<defs>
	<filter id="Adobe_OpacityMaskFilter_16_" filterUnits="userSpaceOnUse" x="469.4" y="343.4" width="0" height="0">
		<feColorMatrix  type="matrix" values="1 0 0 0 0  0 1 0 0 0  0 0 1 0 0  0 0 0 1 0"/>
	</filter>
</defs>
<mask maskUnits="userSpaceOnUse" x="469.4" y="343.4" width="0" height="0" id="mask-20_8_">
	<g class="st47">
		<polygon id="path-19_8_" class="st2" points="399,384.9 482.8,384.9 482.8,302 399,302 		"/>
	</g>
</mask>
<path id="Fill-42" class="st48" d="M469.4,343.4C469.4,343.4,469.4,343.4,469.4,343.4C469.4,343.4,469.4,343.4,469.4,343.4"/>
<defs>
	<filter id="Adobe_OpacityMaskFilter_17_" filterUnits="userSpaceOnUse" x="467.4" y="343" width="0.8" height="0.8">
		<feColorMatrix  type="matrix" values="1 0 0 0 0  0 1 0 0 0  0 0 1 0 0  0 0 0 1 0"/>
	</filter>
</defs>
<mask maskUnits="userSpaceOnUse" x="467.4" y="343" width="0.8" height="0.8" id="mask-20_9_">
	<g class="st49">
		<polygon id="path-19_9_" class="st2" points="399,384.9 482.8,384.9 482.8,302 399,302 		"/>
	</g>
</mask>
<path id="Fill-43" class="st50" d="M467.5,343.2C467.5,343.2,467.5,343.2,467.5,343.2C467.5,343.2,467.5,343.2,467.5,343.2
	L467.5,343.2c0,0.1,0,0.1,0,0.2c0,0,0,0,0,0c0,0,0,0,0,0c0,0,0,0,0,0c0,0,0,0,0,0c0,0.1,0,0.1,0,0.2c0,0,0,0,0,0c0,0,0,0,0,0
	c0,0,0,0,0,0c0,0.1,0,0.1-0.1,0.2c0,0,0,0,0,0v0l0,0c0,0,0,0,0,0v0l0.8-0.4l-0.8-0.4c0,0,0,0,0,0
	C467.4,343.1,467.4,343.1,467.5,343.2"/>
<defs>
	<filter id="Adobe_OpacityMaskFilter_18_" filterUnits="userSpaceOnUse" x="464.9" y="342.2" width="3.3" height="5.6">
		<feColorMatrix  type="matrix" values="1 0 0 0 0  0 1 0 0 0  0 0 1 0 0  0 0 0 1 0"/>
	</filter>
</defs>
<mask maskUnits="userSpaceOnUse" x="464.9" y="342.2" width="3.3" height="5.6" id="mask-20_10_">
	<g class="st51">
		<polygon id="path-19_10_" class="st2" points="399,384.9 482.8,384.9 482.8,302 399,302 		"/>
	</g>
</mask>
<path id="Fill-44" class="st52" d="M466.6,344.7c-0.3,0-0.6-0.5-0.6-1.1c0-0.6,0.3-1.1,0.6-1.1c0.3,0,0.6,0.5,0.6,1.1
	C467.2,344.2,467,344.7,466.6,344.7 M468.1,345.7C468.1,345.7,468.2,345.6,468.1,345.7c0-0.2,0-0.4,0-0.5c0,0,0-0.1,0-0.1
	c0,0,0-0.1,0-0.1c0-0.2,0-0.3,0-0.5c0,0,0,0,0-0.1c0-0.2-0.1-0.3-0.1-0.5c0-0.1,0-0.1,0-0.2c-0.1-0.3-0.2-0.6-0.4-0.8
	c0,0,0-0.1-0.1-0.1c0-0.1-0.1-0.1-0.1-0.2c-0.1-0.1-0.1-0.1-0.2-0.2c0,0-0.1,0-0.1-0.1c-0.1,0-0.1-0.1-0.2-0.1c0,0-0.1,0-0.1,0
	c-0.1,0-0.2-0.1-0.3-0.1c-0.1,0-0.2,0-0.3,0.1c0,0-0.1,0-0.1,0c-0.1,0-0.1,0.1-0.2,0.1c0,0-0.1,0-0.1,0.1c-0.1,0.1-0.1,0.1-0.2,0.2
	c0,0.1-0.1,0.1-0.1,0.2c0,0,0,0.1-0.1,0.1c-0.2,0.2-0.3,0.5-0.4,0.8c0,0,0,0,0,0c0,0.1-0.1,0.3-0.1,0.5c0,0,0,0.1,0,0.1
	c0,0.2,0,0.4,0,0.6c0,0,0,0.1,0,0.1h0c0,1.6,0.7,2.8,1.6,2.8c0.2,0,0.3,0,0.4-0.1c0,0,0,0,0.1,0c0.1,0,0.1-0.1,0.2-0.1
	c0,0,0.1-0.1,0.1-0.1c0.1-0.1,0.1-0.1,0.2-0.2c0-0.1,0.1-0.1,0.1-0.2c0,0,0.1-0.1,0.1-0.1c0-0.1,0.1-0.2,0.1-0.3c0,0,0-0.1,0-0.1
	c0-0.1,0.1-0.3,0.1-0.4C468.1,346,468.1,345.9,468.1,345.7"/>
<defs>
	<filter id="Adobe_OpacityMaskFilter_19_" filterUnits="userSpaceOnUse" x="466.6" y="342.2" width="0.8" height="0.8">
		<feColorMatrix  type="matrix" values="1 0 0 0 0  0 1 0 0 0  0 0 1 0 0  0 0 0 1 0"/>
	</filter>
</defs>
<mask maskUnits="userSpaceOnUse" x="466.6" y="342.2" width="0.8" height="0.8" id="mask-20_11_">
	<g class="st53">
		<polygon id="path-19_11_" class="st2" points="399,384.9 482.8,384.9 482.8,302 399,302 		"/>
	</g>
</mask>
<path id="Fill-45" class="st54" d="M467,342.2c-0.2,0-0.4,0.2-0.4,0.4c0,0.2,0.2,0.4,0.4,0.4c0.2,0,0.4-0.2,0.4-0.4
	C467.4,342.4,467.2,342.2,467,342.2"/>
<defs>
	<filter id="Adobe_OpacityMaskFilter_20_" filterUnits="userSpaceOnUse" x="466.6" y="335" width="2.4" height="6.4">
		<feColorMatrix  type="matrix" values="1 0 0 0 0  0 1 0 0 0  0 0 1 0 0  0 0 0 1 0"/>
	</filter>
</defs>
<mask maskUnits="userSpaceOnUse" x="466.6" y="335" width="2.4" height="6.4" id="mask-20_12_">
	<g class="st55">
		<polygon id="path-19_12_" class="st2" points="399,384.9 482.8,384.9 482.8,302 399,302 		"/>
	</g>
</mask>
<path id="Fill-46" class="st56" d="M466.6,341.4L466.6,341.4c0.1-0.3,0.2-0.6,0.3-0.8c0,0,0-0.1,0.1-0.1c0-0.1,0.1-0.1,0.1-0.2
	c0.1-0.1,0.1-0.1,0.2-0.2c0,0,0,0,0.1-0.1c0.1,0,0.1-0.1,0.2-0.1c0,0,0,0,0.1,0c0.1,0,0.2,0,0.2,0c0.1,0,0.2,0,0.2,0c0,0,0,0,0.1,0
	c0.1,0,0.1,0.1,0.2,0.1c0,0,0,0,0.1,0.1c0.1,0.1,0.1,0.1,0.2,0.2c0,0,0.1,0.1,0.1,0.2c0,0,0,0.1,0.1,0.1c0.1,0.2,0.2,0.5,0.3,0.8v0
	h0l-1.2-6.4L466.6,341.4L466.6,341.4z"/>
<defs>
	<filter id="Adobe_OpacityMaskFilter_21_" filterUnits="userSpaceOnUse" x="438.9" y="340.6" width="8.1" height="8">
		<feColorMatrix  type="matrix" values="1 0 0 0 0  0 1 0 0 0  0 0 1 0 0  0 0 0 1 0"/>
	</filter>
</defs>
<mask maskUnits="userSpaceOnUse" x="438.9" y="340.6" width="8.1" height="8" id="mask-20_13_">
	<g class="st57">
		<polygon id="path-19_13_" class="st2" points="399,384.9 482.8,384.9 482.8,302 399,302 		"/>
	</g>
</mask>
<path id="Fill-47" class="st58" d="M443,344.1c-0.8,0-1.5-0.7-1.5-1.5s0.7-1.5,1.5-1.5c0.8,0,1.5,0.7,1.5,1.5S443.8,344.1,443,344.1
	 M447,344.6c0-0.1,0-0.3,0-0.4c0,0,0,0,0,0c0-0.1,0-0.3-0.1-0.4c0,0,0,0,0,0c0-0.1-0.1-0.3-0.1-0.4c0,0,0,0,0,0
	c0-0.1-0.1-0.2-0.1-0.4c0,0,0,0,0,0c-0.1-0.1-0.1-0.2-0.2-0.3l0,0c-0.2-0.3-0.4-0.7-0.7-0.9c-0.4-0.3-0.8-0.6-1.3-0.8c0,0,0,0,0,0
	c-0.2-0.1-0.5-0.2-0.7-0.2c0,0,0,0,0,0c-0.3,0-0.5-0.1-0.8-0.1c-0.3,0-0.5,0-0.8,0.1c0,0,0,0,0,0c-0.2,0-0.5,0.1-0.7,0.2
	c0,0,0,0,0,0c-0.2,0.1-0.5,0.2-0.7,0.3c0,0,0,0,0,0c-0.2,0.1-0.4,0.3-0.6,0.5l0,0l0,0c-0.3,0.3-0.5,0.6-0.7,0.9c0,0,0,0,0,0
	c-0.1,0.1-0.1,0.2-0.2,0.3c0,0,0,0,0,0c0,0.1-0.1,0.2-0.1,0.3c0,0,0,0,0,0.1c0,0.1-0.1,0.2-0.1,0.3c0,0,0,0.1,0,0.1
	c0,0.1,0,0.2-0.1,0.3c0,0,0,0.1,0,0.1c0,0.1,0,0.3,0,0.4c0,0.3,0,0.5,0.1,0.8c0,0,0,0,0,0c0.1,0.3,0.1,0.5,0.2,0.7c0,0,0,0,0,0
	c0.2,0.5,0.5,0.9,0.8,1.3c0.3,0.3,0.6,0.5,0.9,0.7c0,0,0,0,0,0c0.1,0.1,0.2,0.1,0.3,0.2c0,0,0,0,0,0c0.1,0,0.2,0.1,0.3,0.1
	c0,0,0,0,0.1,0c0.1,0,0.2,0.1,0.3,0.1c0,0,0.1,0,0.1,0c0.1,0,0.2,0,0.3,0c0,0,0.1,0,0.1,0c0.1,0,0.3,0,0.4,0c0.6,0,1.1-0.1,1.6-0.3
	c0.2-0.1,0.5-0.2,0.7-0.4c0.4-0.3,0.8-0.7,1.1-1.1c0.1-0.2,0.3-0.4,0.4-0.7C446.9,345.7,447,345.2,447,344.6
	C447,344.6,447,344.6,447,344.6C447,344.6,447,344.6,447,344.6"/>
<defs>
	<filter id="Adobe_OpacityMaskFilter_22_" filterUnits="userSpaceOnUse" x="443" y="340.6" width="2.4" height="2.4">
		<feColorMatrix  type="matrix" values="1 0 0 0 0  0 1 0 0 0  0 0 1 0 0  0 0 0 1 0"/>
	</filter>
</defs>
<mask maskUnits="userSpaceOnUse" x="443" y="340.6" width="2.4" height="2.4" id="mask-20_14_">
	<g class="st59">
		<polygon id="path-19_14_" class="st2" points="399,384.9 482.8,384.9 482.8,302 399,302 		"/>
	</g>
</mask>
<path id="Fill-48" class="st60" d="M444.2,340.6c-0.7,0-1.2,0.5-1.2,1.2c0,0.7,0.5,1.2,1.2,1.2c0.7,0,1.2-0.5,1.2-1.2
	C445.4,341.2,444.9,340.6,444.2,340.6"/>
<defs>
	<filter id="Adobe_OpacityMaskFilter_23_" filterUnits="userSpaceOnUse" x="416.9" y="331" width="26" height="13.7">
		<feColorMatrix  type="matrix" values="1 0 0 0 0  0 1 0 0 0  0 0 1 0 0  0 0 0 1 0"/>
	</filter>
</defs>
<mask maskUnits="userSpaceOnUse" x="416.9" y="331" width="26" height="13.7" id="mask-20_15_">
	<g class="st61">
		<polygon id="path-19_15_" class="st2" points="399,384.9 482.8,384.9 482.8,302 399,302 		"/>
	</g>
</mask>
<path id="Fill-49" class="st62" d="M440.3,341.8L440.3,341.8L440.3,341.8L440.3,341.8l2.7-8.4v-1c0-0.1,0-0.3,0-0.4v-0.1v-0.2v-0.1
	v-0.1v-0.1c0,0,0,0,0,0c-1.5-0.3-3-0.5-4.6-0.5c-0.5,0-1,0-1.6,0.1c-0.1,0-0.2,0-0.2,0c-2.7,0.2-5.3,0.9-7.8,2.1
	c-2.1,1-4,2.3-5.8,3.8l0,0c0,0,0,0,0,0c-0.5,0.4-0.9,0.8-1.4,1.3c-0.1,0.1-0.2,0.2-0.2,0.2c-0.4,0.4-0.8,0.9-1.2,1.3
	c-0.1,0.1-0.2,0.2-0.2,0.3c-0.4,0.5-0.8,0.9-1.1,1.4c0,0-0.1,0.1-0.1,0.1c-0.3,0.5-0.7,1-1,1.5c-0.1,0.1-0.1,0.2-0.2,0.3
	c-0.3,0.4-0.5,0.8-0.7,1.3H429h0L440.3,341.8z"/>
<defs>
	<filter id="Adobe_OpacityMaskFilter_24_" filterUnits="userSpaceOnUse" x="443" y="331" width="8.1" height="13.7">
		<feColorMatrix  type="matrix" values="1 0 0 0 0  0 1 0 0 0  0 0 1 0 0  0 0 0 1 0"/>
	</filter>
</defs>
<mask maskUnits="userSpaceOnUse" x="443" y="331" width="8.1" height="13.7" id="mask-20_16_">
	<g class="st63">
		<polygon id="path-19_16_" class="st2" points="399,384.9 482.8,384.9 482.8,302 399,302 		"/>
	</g>
</mask>
<path id="Fill-50" class="st64" d="M451,340.7c0-0.3,0-0.7,0.1-1c0-0.5,0-0.9,0-1.4c0-0.4,0-0.7,0-1.1c0-0.1,0-0.2,0-0.3
	c0-0.9,0-1.8-0.1-2.8c0,0,0,0,0,0c0,0,0,0,0,0c0,0,0,0,0,0c0,0,0,0,0,0c-0.2-0.1-0.6-0.3-1-0.5c0,0,0,0,0,0
	c-0.1-0.1-0.2-0.1-0.3-0.2c0,0,0,0,0,0c-0.1,0-0.1-0.1-0.2-0.1c0,0,0,0,0,0c-0.1,0-0.1-0.1-0.1-0.1c-0.6-0.3-1.2-0.6-1.8-0.9
	c-1.5-0.6-3.4-1.2-4.5-1.4v0.8v0.2v0.1v1l2.8,8.7l0,0c0.3,0.3,0.5,0.6,0.7,0.9l0,0c0.1,0.1,0.1,0.2,0.2,0.4c0,0,0,0,0,0
	c0.1,0.1,0.1,0.2,0.1,0.4c0,0,0,0,0,0c0,0.1,0.1,0.3,0.1,0.4c0,0,0,0,0,0c0,0.1,0.1,0.3,0.1,0.4c0,0,0,0,0,0c0,0.1,0,0.3,0,0.4l0,0
	h3.4c0.2-1.3,0.4-2.5,0.5-3.8C451,340.8,451,340.8,451,340.7"/>
<defs>
	<filter id="Adobe_OpacityMaskFilter_25_" filterUnits="userSpaceOnUse" x="455.6" y="337.8" width="0" height="0">
		<feColorMatrix  type="matrix" values="1 0 0 0 0  0 1 0 0 0  0 0 1 0 0  0 0 0 1 0"/>
	</filter>
</defs>
<mask maskUnits="userSpaceOnUse" x="455.6" y="337.8" width="0" height="0" id="mask-20_17_">
	<g class="st65">
		<polygon id="path-19_17_" class="st2" points="399,384.9 482.8,384.9 482.8,302 399,302 		"/>
	</g>
</mask>
<path id="Fill-51" class="st66" d="M455.6,337.8C455.6,337.8,455.6,337.8,455.6,337.8C455.6,337.8,455.6,337.8,455.6,337.8
	L455.6,337.8z"/>
<defs>
	<filter id="Adobe_OpacityMaskFilter_26_" filterUnits="userSpaceOnUse" x="446.2" y="333.4" width="11.4" height="24.1">
		<feColorMatrix  type="matrix" values="1 0 0 0 0  0 1 0 0 0  0 0 1 0 0  0 0 0 1 0"/>
	</filter>
</defs>
<mask maskUnits="userSpaceOnUse" x="446.2" y="333.4" width="11.4" height="24.1" id="mask-20_18_">
	<g class="st67">
		<polygon id="path-19_18_" class="st2" points="399,384.9 482.8,384.9 482.8,302 399,302 		"/>
	</g>
</mask>
<path id="Fill-52" class="st68" d="M448.2,355.5c0.7-0.8,1.4-1.5,2.1-2.2c0.4-0.4,0.8-0.8,1.2-1.2c2.7-3,4.7-5.9,5.9-9.5
	c0-0.1,0.1-0.2,0.1-0.3c0,0,0,0,0-0.1c0-0.1,0.1-0.3,0.1-0.5c0-0.1,0-0.2,0-0.3c-0.3-1.6-0.9-3.1-1.4-4.6c0,0,0,0,0,0c0,0,0,0,0,0
	c-0.1-0.1-0.2-0.2-0.3-0.3c-0.3-0.3-0.6-0.6-0.9-0.8c-1-0.8-2-1.6-3-2.2c0.1,0.9,0.1,1.8,0.1,2.7c0,0.1,0,0.2,0,0.3c0,0.3,0,0.7,0,1
	c0,0.4,0,0.9,0,1.3c0,0.3,0,0.7-0.1,1c0,0,0,0.1,0,0.1c-0.1,1.2-0.3,2.5-0.5,3.7l-0.4,1.9c-0.8,3.3-2.4,6.3-3.8,9.4
	c-0.4,0.8-0.7,1.7-1,2.5c0,0.1-0.1,0.2-0.1,0.2c0.4-0.4,0.8-0.8,1.1-1.1C447.6,356.1,447.9,355.8,448.2,355.5"/>
<defs>
	<filter id="Adobe_OpacityMaskFilter_27_" filterUnits="userSpaceOnUse" x="440.5" y="333.4" width="5.7" height="8.8">
		<feColorMatrix  type="matrix" values="1 0 0 0 0  0 1 0 0 0  0 0 1 0 0  0 0 0 1 0"/>
	</filter>
</defs>
<mask maskUnits="userSpaceOnUse" x="440.5" y="333.4" width="5.7" height="8.8" id="mask-20_19_">
	<g class="st69">
		<polygon id="path-19_19_" class="st2" points="399,384.9 482.8,384.9 482.8,302 399,302 		"/>
	</g>
</mask>
<path id="Fill-53" class="st70" d="M440.5,342.2L440.5,342.2c0.2-0.2,0.4-0.3,0.6-0.5c0,0,0,0,0,0c0.2-0.1,0.4-0.3,0.7-0.4
	c0,0,0,0,0,0c0.2-0.1,0.5-0.2,0.7-0.2c0,0,0,0,0,0c0.3,0,0.5-0.1,0.8-0.1c0.3,0,0.5,0,0.8,0.1c0,0,0,0,0,0c0.3,0.1,0.5,0.1,0.7,0.2
	c0,0,0,0,0,0c0.5,0.2,0.9,0.5,1.3,0.8l0,0l-2.8-8.8L440.5,342.2z"/>
<defs>
	<filter id="Adobe_OpacityMaskFilter_28_" filterUnits="userSpaceOnUse" x="429.1" y="342.2" width="11.4" height="5.6">
		<feColorMatrix  type="matrix" values="1 0 0 0 0  0 1 0 0 0  0 0 1 0 0  0 0 0 1 0"/>
	</filter>
</defs>
<mask maskUnits="userSpaceOnUse" x="429.1" y="342.2" width="11.4" height="5.6" id="mask-20_20_">
	<g class="st71">
		<polygon id="path-19_20_" class="st2" points="399,384.9 482.8,384.9 482.8,302 399,302 		"/>
	</g>
</mask>
<path id="Fill-54" class="st72" d="M439.6,346.6c-0.1-0.2-0.2-0.5-0.2-0.7c0,0,0,0,0,0c0-0.2-0.1-0.5-0.1-0.8c0-0.1,0-0.3,0-0.4
	c0,0,0-0.1,0-0.1c0-0.1,0-0.2,0-0.3c0,0,0-0.1,0-0.1c0-0.1,0-0.2,0.1-0.3c0,0,0,0,0-0.1c0-0.1,0.1-0.2,0.1-0.3c0,0,0,0,0,0
	c0-0.1,0.1-0.2,0.2-0.3c0,0,0,0,0,0c0.2-0.3,0.4-0.7,0.7-0.9l-11.4,2.8h0l11.3,2.8C440,347.5,439.8,347.1,439.6,346.6
	C439.6,346.6,439.6,346.6,439.6,346.6"/>
<defs>
	<filter id="Adobe_OpacityMaskFilter_29_" filterUnits="userSpaceOnUse" x="455.2" y="331" width="11.4" height="13.7">
		<feColorMatrix  type="matrix" values="1 0 0 0 0  0 1 0 0 0  0 0 1 0 0  0 0 0 1 0"/>
	</filter>
</defs>
<mask maskUnits="userSpaceOnUse" x="455.2" y="331" width="11.4" height="13.7" id="mask-20_21_">
	<g class="st73">
		<polygon id="path-19_21_" class="st2" points="399,384.9 482.8,384.9 482.8,302 399,302 		"/>
	</g>
</mask>
<path id="Fill-55" class="st74" d="M465,344c0-0.1,0-0.1,0-0.1c0-0.2,0.1-0.3,0.1-0.5c0,0,0,0,0-0.1l1.5-6.9l0-3.9
	c-1.2-1-2.5-1.6-3.8-1.6c-1.7,0-3.2,1-4.4,2.1c-1.3,1.3-2.3,2.9-3.1,4.5c0,0.1-0.1,0.1-0.1,0.2c0.2,0.2,0.5,0.4,0.7,0.7
	c0.5,0.5,1.1,1,1.6,1.6c0.2,0.2,0.5,0.5,0.7,0.8c0.3,0.3,0.5,0.5,0.8,0.8c0.3,0.4,0.6,0.7,1,1.1c0.1,0.1,0.3,0.3,0.4,0.5
	c0.4,0.4,0.8,0.9,1.1,1.3l0,0c0.1,0.1,0.1,0.1,0.1,0.1h3.3c0,0,0-0.1,0-0.1C464.9,344.4,464.9,344.2,465,344"/>
<defs>
	<filter id="Adobe_OpacityMaskFilter_30_" filterUnits="userSpaceOnUse" x="455.6" y="337.8" width="0" height="0.1">
		<feColorMatrix  type="matrix" values="1 0 0 0 0  0 1 0 0 0  0 0 1 0 0  0 0 0 1 0"/>
	</filter>
</defs>
<mask maskUnits="userSpaceOnUse" x="455.6" y="337.8" width="0" height="0.1" id="mask-20_22_">
	<g class="st75">
		<polygon id="path-19_22_" class="st2" points="399,384.9 482.8,384.9 482.8,302 399,302 		"/>
	</g>
</mask>
<path id="Fill-56" class="st76" d="M455.6,337.8C455.6,337.8,455.6,337.8,455.6,337.8C455.6,337.8,455.6,337.8,455.6,337.8
	C455.6,337.8,455.6,337.8,455.6,337.8C455.6,337.8,455.6,337.8,455.6,337.8"/>
<defs>
	<filter id="Adobe_OpacityMaskFilter_31_" filterUnits="userSpaceOnUse" x="412" y="313.3" width="58.6" height="38.6">
		<feColorMatrix  type="matrix" values="1 0 0 0 0  0 1 0 0 0  0 0 1 0 0  0 0 0 1 0"/>
	</filter>
</defs>
<mask maskUnits="userSpaceOnUse" x="412" y="313.3" width="58.6" height="38.6" id="mask-20_23_">
	<g class="st77">
		<polygon id="path-19_23_" class="st2" points="399,384.9 482.8,384.9 482.8,302 399,302 		"/>
	</g>
</mask>
<path id="Fill-57" class="st78" d="M414.9,347.3C414.9,347.3,414.9,347.3,414.9,347.3c0.3-0.6,0.5-1.2,0.8-1.8
	c0.1-0.2,0.1-0.3,0.2-0.5c0.2-0.4,0.4-0.9,0.7-1.3c0.1-0.2,0.2-0.3,0.3-0.5c0.1-0.1,0.1-0.2,0.2-0.3c0.2-0.4,0.5-0.8,0.8-1.3
	c0.1-0.1,0.1-0.2,0.2-0.3c0.3-0.5,0.7-1,1-1.5c0,0,0.1-0.1,0.1-0.1c0.4-0.5,0.8-1,1.2-1.4c0.1-0.1,0.2-0.2,0.3-0.3
	c0.4-0.5,0.8-0.9,1.3-1.3c0.1-0.1,0.2-0.2,0.3-0.2c0.5-0.4,0.9-0.9,1.4-1.3c0,0,0,0,0,0c1.9-6.3,7.8-10.9,14.8-10.9
	c2.8,0,5.6,0.8,8,2.2c2.5,1.5,4.5,3.6,5.8,6.1c0,0,0,0,0,0c0,0.1,0.1,0.1,0.1,0.2c0,0,0,0,0,0c0,0,0,0,0,0c1.1,0.7,2.1,1.4,3.1,2.2
	c0.3,0.3,0.7,0.6,1,0.8c0.1,0.1,0.2,0.2,0.3,0.3c0,0,0,0,0,0c0,0,0,0,0,0c0-0.1,0.1-0.1,0.1-0.2c1-6.1,3.7-10.5,6.9-10.5
	c2.4,0,4.6,2.5,5.9,6.3l0,0l0,0c0.4,0.4,0.7,0.8,1.1,1.3l0,0c0,0,0,0,0,0l0,0l0,0c0,0.1,0,0.1,0.1,0.2v0l-0.1-0.2
	c-4-11.6-15.3-20-28.5-20c-16.6,0-30.1,13.2-30.1,29.4c0,3.2,0.5,6.3,1.5,9.2c0,0,0,0,0,0c0.2-0.9,0.4-1.7,0.7-2.6
	C414.4,348.6,414.6,348,414.9,347.3"/>
<defs>
	<filter id="Adobe_OpacityMaskFilter_32_" filterUnits="userSpaceOnUse" x="460.9" y="343.8" width="9" height="8.8">
		<feColorMatrix  type="matrix" values="1 0 0 0 0  0 1 0 0 0  0 0 1 0 0  0 0 0 1 0"/>
	</filter>
</defs>
<mask maskUnits="userSpaceOnUse" x="460.9" y="343.8" width="9" height="8.8" id="mask-20_24_">
	<g class="st79">
		<polygon id="path-19_24_" class="st2" points="399,384.9 482.8,384.9 482.8,302 399,302 		"/>
	</g>
</mask>
<path id="Fill-58" class="st80" d="M468.7,343.8l-1.1,1.1v0c0,0,0,0,0,0c0,0.1-0.1,0.3-0.1,0.4c0,0,0,0.1,0,0.1
	c0,0.1-0.1,0.2-0.1,0.3c0,0-0.1,0.1-0.1,0.1c0,0.1-0.1,0.1-0.1,0.2c-0.1,0.1-0.1,0.2-0.2,0.2c0,0-0.1,0.1-0.1,0.1
	c-0.1,0-0.1,0.1-0.2,0.1c0,0,0,0-0.1,0c-0.2,0.1-0.3,0.1-0.5,0.1c-1,0-1.7-1.3-1.7-2.8h0h0h-3.4h0c0,0,0,0,0,0
	c0.6,0.7,1.3,1.4,1.9,2.1c0,0,0,0,0,0c0.6,0.7,1.2,1.4,1.8,2.1c0,0,0.1,0.1,0.1,0.1c0.6,0.7,1.1,1.4,1.7,2c0.1,0.1,0.1,0.1,0.2,0.2
	c0.6,0.7,1.2,1.5,1.7,2.2c0,0,0,0,0,0c1-2.8,1.5-5.8,1.6-8.8h0L468.7,343.8L468.7,343.8z"/>
<defs>
	<filter id="Adobe_OpacityMaskFilter_33_" filterUnits="userSpaceOnUse" x="422.6" y="325.3" width="27.7" height="11.3">
		<feColorMatrix  type="matrix" values="1 0 0 0 0  0 1 0 0 0  0 0 1 0 0  0 0 0 1 0"/>
	</filter>
</defs>
<mask maskUnits="userSpaceOnUse" x="422.6" y="325.3" width="27.7" height="11.3" id="mask-20_25_">
	<g class="st81">
		<polygon id="path-19_25_" class="st2" points="399,384.9 482.8,384.9 482.8,302 399,302 		"/>
	</g>
</mask>
<path id="Fill-59" class="st82" d="M436.2,330.6c0.1,0,0.2,0,0.2,0c0.5,0,1-0.1,1.6-0.1c1.6,0,3.1,0.2,4.6,0.5c0,0,0,0,0,0v0.1v0.1
	v0.1v0.2v0.1c0,0.1,0,0.1,0,0.2V331c1.1,0.3,2.9,0.8,4.3,1.4c0.6,0.3,1.2,0.5,1.7,0.8c0,0,0.1,0,0.1,0.1c0,0,0,0,0,0
	c0.1,0,0.1,0.1,0.2,0.1c0,0,0,0,0,0c0.1,0,0.2,0.1,0.3,0.1c0,0,0,0,0,0c0.4,0.2,0.8,0.4,0.9,0.5c0,0,0,0,0,0c0,0,0,0,0,0
	c0-0.1-0.1-0.1-0.1-0.2c0,0,0,0,0,0c-1.3-2.6-3.2-4.8-5.6-6.3c-2.3-1.5-5-2.3-7.7-2.3c-6.7,0-12.4,4.7-14.3,11.3
	c1.8-1.6,3.7-2.9,5.8-3.9C430.9,331.5,433.6,330.8,436.2,330.6"/>
<defs>
	<filter id="Adobe_OpacityMaskFilter_34_" filterUnits="userSpaceOnUse" x="442.6" y="331.9" width="0" height="0.5">
		<feColorMatrix  type="matrix" values="1 0 0 0 0  0 1 0 0 0  0 0 1 0 0  0 0 0 1 0"/>
	</filter>
</defs>
<mask maskUnits="userSpaceOnUse" x="442.6" y="331.9" width="0" height="0.5" id="mask-20_26_">
	<g class="st83">
		<polygon id="path-19_26_" class="st2" points="399,384.9 482.8,384.9 482.8,302 399,302 		"/>
	</g>
</mask>
<path id="Stroke-60" class="st84" d="M442.6,331.9v0.5"/>
<defs>
	<filter id="Adobe_OpacityMaskFilter_35_" filterUnits="userSpaceOnUse" x="453.5" y="327.7" width="13.8" height="9.7">
		<feColorMatrix  type="matrix" values="1 0 0 0 0  0 1 0 0 0  0 0 1 0 0  0 0 0 1 0"/>
	</filter>
</defs>
<mask maskUnits="userSpaceOnUse" x="453.5" y="327.7" width="13.8" height="9.7" id="mask-20_27_">
	<g class="st85">
		<polygon id="path-19_27_" class="st2" points="399,384.9 482.8,384.9 482.8,302 399,302 		"/>
	</g>
</mask>
<path id="Fill-61" class="st86" d="M457,333.2c1.3-1.1,3.1-2,5-2c1.5,0,2.9,0.5,4.3,1.4c0,0,0,0,0,0l0,0v0c0.1,0.1,0.2,0.2,0.4,0.3
	c0.1,0.1,0.1,0.1,0.2,0.2c0.2,0.2,0.4,0.3,0.6,0.5v0c0,0,0,0,0,0c0,0,0,0,0,0l0,0l0,0c-1.4-3.5-3.7-5.8-6.4-5.8
	c-3.5,0-6.4,4-7.5,9.7l0,0C454.5,335.9,455.6,334.4,457,333.2"/>
<defs>
	<filter id="Adobe_OpacityMaskFilter_36_" filterUnits="userSpaceOnUse" x="413.7" y="344.6" width="40.7" height="27.4">
		<feColorMatrix  type="matrix" values="1 0 0 0 0  0 1 0 0 0  0 0 1 0 0  0 0 0 1 0"/>
	</filter>
</defs>
<mask maskUnits="userSpaceOnUse" x="413.7" y="344.6" width="40.7" height="27.4" id="mask-20_28_">
	<g class="st87">
		<polygon id="path-19_28_" class="st2" points="399,384.9 482.8,384.9 482.8,302 399,302 		"/>
	</g>
</mask>
<path id="Fill-62" class="st88" d="M430.9,370.2c0.3,0.1,0.5,0.2,0.8,0.3c3,1,6.3,1.6,9.6,1.6c3.8,0,7.5-0.7,10.9-2
	c0.2-0.1,0.4-0.1,0.5-0.2c0.3-0.1,0.6-0.2,0.9-0.4c0.3-0.1,0.5-0.2,0.7-0.3c-0.1,0-0.1,0-0.2,0v0c-1,0.1-2.1,0.1-3.1,0
	c-6-0.8-7.3-3.6-7.1-6.4c-0.4-0.2-0.9-0.5-1.3-0.8c-4.6-3.2-7.3-6.6-7.3-6.6s3.6,2.6,8.9,4.6c0.1,0,0.2,0.1,0.3,0.1
	c0.2-0.8,0.5-1.6,0.8-2.3v0c0-0.1,0.1-0.2,0.1-0.2c0.3-0.8,0.6-1.6,1-2.3c1.3-2.9,3-5.7,3.8-8.8l0.4-1.7h-3.3h0h0c0,0,0,0,0,0l0,0
	c0,0,0,0,0,0c0,0.5-0.1,1-0.3,1.4c-0.1,0.2-0.2,0.4-0.4,0.6c-0.3,0.4-0.6,0.7-1.1,1c-0.2,0.1-0.4,0.2-0.7,0.3
	c-0.5,0.2-1,0.3-1.5,0.3c-0.1,0-0.3,0-0.4,0c0,0-0.1,0-0.1,0c-0.1,0-0.2,0-0.3,0c0,0-0.1,0-0.1,0c-0.1,0-0.2,0-0.3-0.1
	c0,0,0,0-0.1,0c-0.1,0-0.2-0.1-0.3-0.1c0,0,0,0,0,0c-0.1,0-0.2-0.1-0.3-0.2c0,0,0,0,0,0c-0.3-0.2-0.6-0.4-0.9-0.7l-11.2-2.6H417
	c-0.1,0.1-0.1,0.2-0.2,0.3c-0.1,0.2-0.2,0.3-0.3,0.5c-0.2,0.4-0.4,0.8-0.6,1.2c-0.1,0.1-0.1,0.3-0.2,0.4c-0.2,0.5-0.5,1-0.7,1.6
	c0,0,0,0,0,0.1c-0.2,0.6-0.5,1.2-0.7,1.9c-0.3,0.8-0.5,1.6-0.7,2.4c1.9,5.6,5.7,10.4,10.6,13.8c0.1,0.1,0.3,0.2,0.4,0.3
	c0.8,0.6,1.7,1.1,2.6,1.5C428.4,369.2,429.6,369.7,430.9,370.2"/>
<defs>
	<filter id="Adobe_OpacityMaskFilter_37_" filterUnits="userSpaceOnUse" x="450.3" y="358.3" width="22.8" height="11.3">
		<feColorMatrix  type="matrix" values="1 0 0 0 0  0 1 0 0 0  0 0 1 0 0  0 0 0 1 0"/>
	</filter>
</defs>
<mask maskUnits="userSpaceOnUse" x="450.3" y="358.3" width="22.8" height="11.3" id="mask-20_29_">
	<g class="st89">
		<polygon id="path-19_29_" class="st2" points="399,384.9 482.8,384.9 482.8,302 399,302 		"/>
	</g>
</mask>
<path id="Fill-63" class="st90" d="M450.4,361.5c0,0.3-0.1,0.6-0.1,0.9c0,0.6,0,1.1,0.1,1.6c0.1,0.3,0.1,0.6,0.2,1
	c0.1,0.5,0.3,0.9,0.5,1.3c0.2,0.4,0.4,0.8,0.6,1.1c0.1,0.1,0.1,0.2,0.2,0.3c0.1,0.2,0.2,0.3,0.3,0.4c0.1,0.2,0.3,0.3,0.4,0.5
	c0.6,0.6,1,1,1,1s0,0,0,0c0,0,0,0,0,0.1v0c0.1,0,0.1,0,0.2,0c1.3-0.2,2.7-0.5,4-1c0.7-0.2,1.4-0.5,2-0.8c0.2-0.1,0.4-0.2,0.6-0.3
	c6.9-3.3,12.6-9.1,12.6-9.1C464.4,362.5,456,362.4,450.4,361.5"/>
<defs>
	<filter id="Adobe_OpacityMaskFilter_38_" filterUnits="userSpaceOnUse" x="450.3" y="337.4" width="22.8" height="24.1">
		<feColorMatrix  type="matrix" values="1 0 0 0 0  0 1 0 0 0  0 0 1 0 0  0 0 0 1 0"/>
	</filter>
</defs>
<mask maskUnits="userSpaceOnUse" x="450.3" y="337.4" width="22.8" height="24.1" id="mask-20_30_">
	<g class="st91">
		<polygon id="path-19_30_" class="st2" points="399,384.9 482.8,384.9 482.8,302 399,302 		"/>
	</g>
</mask>
<path id="Fill-64" class="st92" d="M466.9,350.2c-0.6-0.7-1.1-1.3-1.7-2c0,0-0.1-0.1-0.1-0.1c-0.6-0.7-1.2-1.4-1.8-2.1c0,0,0,0,0,0
	c-0.6-0.7-1.3-1.4-1.9-2.1c0,0-0.1-0.1-0.1-0.1c-0.4-0.4-0.8-0.8-1.2-1.3c-0.1-0.1-0.3-0.3-0.4-0.4c-0.3-0.3-0.7-0.7-1-1
	c-0.3-0.3-0.5-0.5-0.8-0.8c-0.3-0.2-0.5-0.5-0.8-0.7c-0.6-0.5-1.1-1-1.7-1.5c-0.3-0.2-0.5-0.4-0.8-0.6c0,0,0,0,0,0
	c0.5,1.5,1.2,2.9,1.5,4.5c0.1,0.4,0.1,0.8,0.2,1.2c0.8,5.3-1.1,8.7-3.9,13.2c-0.2,0.3-0.4,0.7-0.6,1c-0.7,1-1.1,2-1.3,2.9
	c-0.1,0.3-0.1,0.6-0.2,0.9c5.6,0.8,14.1,1,22.8-3c0,0-1.7-2.3-4.3-5.5c-0.6-0.7-1.1-1.4-1.7-2.1C467,350.3,467,350.3,466.9,350.2"/>
<defs>
	<filter id="Adobe_OpacityMaskFilter_39_" filterUnits="userSpaceOnUse" x="434.8" y="342.2" width="22.8" height="27.4">
		<feColorMatrix  type="matrix" values="1 0 0 0 0  0 1 0 0 0  0 0 1 0 0  0 0 0 1 0"/>
	</filter>
</defs>
<mask maskUnits="userSpaceOnUse" x="434.8" y="342.2" width="22.8" height="27.4" id="mask-20_31_">
	<g class="st93">
		<polygon id="path-19_31_" class="st2" points="399,384.9 482.8,384.9 482.8,302 399,302 		"/>
	</g>
</mask>
<path id="Fill-65" class="st94" d="M454.6,369.4c0,0-0.4-0.3-1-0.9c-0.1-0.1-0.3-0.3-0.4-0.5c-0.1-0.1-0.2-0.3-0.3-0.4
	c-0.1-0.1-0.1-0.2-0.2-0.3c-0.2-0.3-0.4-0.7-0.6-1c-0.2-0.4-0.4-0.8-0.5-1.2c-0.1-0.3-0.2-0.6-0.2-0.9c-0.1-0.5-0.1-1-0.1-1.5
	c0-0.3,0-0.6,0.1-0.9c0-0.3,0.1-0.6,0.2-0.9c0.2-0.9,0.7-1.9,1.3-2.9c0,0,0,0,0,0c0.2-0.3,0.4-0.7,0.6-1c2.9-4.6,4.7-8.1,4-13.5
	c-0.1-0.4-0.1-0.8-0.2-1.2c0,0.3-0.1,0.5-0.1,0.7c0,0,0,0,0,0.1c0,0.1-0.1,0.2-0.1,0.3c-1.3,3.5-3.4,6.2-6.2,9.1
	c-0.4,0.4-0.8,0.8-1.2,1.2c-0.7,0.7-1.4,1.4-2.2,2.1c-0.3,0.3-0.6,0.6-0.9,0.9c-0.3,0.3-0.7,0.6-1.1,1.1v0c-0.3,0.7-0.6,1.5-0.8,2.4
	c-0.1,0-0.2-0.1-0.3-0.1c-5.6-2-9.3-4.7-9.3-4.7s2.9,3.5,7.7,6.8c0.5,0.3,0.9,0.6,1.4,0.8c-0.2,3,1.2,5.8,7.5,6.6
	C452.4,369.6,453.5,369.6,454.6,369.4C454.6,369.5,454.6,369.4,454.6,369.4C454.6,369.4,454.6,369.4,454.6,369.4"/>
<g id="Group-3_2_">
	<g id="Clip-2_1_">
	</g>
	<defs>
		<filter id="Adobe_OpacityMaskFilter_40_" filterUnits="userSpaceOnUse" x="604" y="79.4" width="92.2" height="100.3">
			<feColorMatrix  type="matrix" values="1 0 0 0 0  0 1 0 0 0  0 0 1 0 0  0 0 0 1 0"/>
		</filter>
	</defs>
	<mask maskUnits="userSpaceOnUse" x="604" y="79.4" width="92.2" height="100.3" id="mask-22_1_">
		<g class="st95">
			<polygon id="path-21_1_" class="st2" points="604,79.4 696.2,79.4 696.2,179.7 604,179.7 			"/>
		</g>
	</mask>
	<path id="Fill-1_8_" class="st96" d="M646.5,82.9c0.6,0,1.2,0.2,1.8,0.6c-4.3,1.9-9,6.9-11,16.7c-2.9,0.9-5.6,1.7-8.3,2.4
		C631.3,95,636.8,82.9,646.5,82.9 M650.5,86.5c0.8,2,1.3,4.8,1.3,8.7v0.6c-3.3,1-6.9,2-10.4,3.1C643.4,91.5,647.2,87.9,650.5,86.5
		 M660.4,93.3c-1.5,0.5-3.2,1-5.1,1.5v-1c0-3.2-0.5-5.8-1.2-7.8C657.2,86.3,659.2,89.5,660.4,93.3 M684.8,98.9
		c-0.1-0.5-0.5-0.8-0.9-0.8s-8.4-0.6-8.4-0.6s-5.6-5.3-6.2-5.9c-0.6-0.6-1.9-0.4-2.3-0.2c-0.1,0-1.3,0.3-3.1,0.9
		c-1.9-5.2-5.1-9.9-11-9.9h-0.5c-1.7-2.1-3.7-3-5.5-3c-13.6,0-20,16.2-22.1,24.4c-5.2,1.5-9,2.7-9.4,2.8c-2.9,0.9-3,1-3.4,3.6
		c-0.3,1.9-8,58.8-8,58.8l59.8,10.7l32.4-6.7C696.2,173.1,684.9,99.5,684.8,98.9"/>
</g>
<g id="Group-6" transform="translate(59.336390, 12.149097)">
	<g id="Clip-5">
	</g>
	<defs>
		<filter id="Adobe_OpacityMaskFilter_41_" filterUnits="userSpaceOnUse" x="604" y="79.2" width="32.9" height="88.9">
			<feColorMatrix  type="matrix" values="1 0 0 0 0  0 1 0 0 0  0 0 1 0 0  0 0 0 1 0"/>
		</filter>
	</defs>
	<mask maskUnits="userSpaceOnUse" x="604" y="79.2" width="32.9" height="88.9" id="mask-24_1_">
		<g class="st97">
			<polygon id="path-23_1_" class="st2" points="604,79.2 636.9,79.2 636.9,168.1 604,168.1 			"/>
		</g>
	</mask>
	<path id="Fill-4_2_" class="st98" d="M624.3,86c-0.4,0-8.5-0.6-8.5-0.6s-5.6-5.3-6.3-5.9c-0.3-0.2-0.5-0.3-0.9-0.4l-4.6,88.9
		l32.9-6.7c0,0-11.5-73.9-11.6-74.4C625.2,86.4,624.7,86.1,624.3,86"/>
</g>
<path id="Fill-7_1_" class="st2" d="M651.1,116.2l-3.9,11.4c0,0-3.5-1.8-7.7-1.8c-6.2,0-6.5,3.8-6.5,4.8c0,5.2,14,7.2,14,19.4
	c0,9.6-6.2,15.7-14.7,15.7c-10.2,0-15.3-6.1-15.3-6.1l2.7-8.7c0,0,5.3,4.4,9.8,4.4c2.9,0,4.2-2.3,4.2-3.9c0-6.8-11.5-7.1-11.5-18.2
	c0-9.4,6.9-18.5,21-18.5C648.5,114.6,651.1,116.2,651.1,116.2"/>
<polygon id="Fill-1_10_" class="st99" points="448.9,99.3 431.1,81.6 469.3,43.4 487.5,61.3 "/>
<g id="Group-9_2_" transform="translate(0.349306, 0.469168)">
	<path id="Fill-2_2_" class="st100" d="M449.4,21.8L431.2,4l-38.5,37.8c-5,4.9-5,12.9,0,17.8c0,0,0,0,0,0l38.5,37.8l17.8-17.6
		L420,50.8L449.4,21.8z"/>
	<g id="Group-6_1_" transform="translate(38.207581, 0.000000)">
		<g id="Clip-5_1_">
		</g>
		<defs>
			<filter id="Adobe_OpacityMaskFilter_42_" filterUnits="userSpaceOnUse" x="389.3" y="0.3" width="64.2" height="63.1">
				<feColorMatrix  type="matrix" values="1 0 0 0 0  0 1 0 0 0  0 0 1 0 0  0 0 0 1 0"/>
			</filter>
		</defs>
		<mask maskUnits="userSpaceOnUse" x="389.3" y="0.3" width="64.2" height="63.1" id="mask-28_1_">
			<g class="st101">
				<polygon id="path-27_1_" class="st2" points="389.3,0.3 453.5,0.3 453.5,63.4 389.3,63.4 				"/>
			</g>
		</mask>
		<path id="Fill-4_3_" class="st102" d="M449.7,41.8L411.2,4C406.2-1,398.1-1,393,4c-5,4.9-5,12.9,0,17.8l38.5,37.8
			c5,4.9,13.1,4.9,18.1,0C454.7,54.7,454.7,46.7,449.7,41.8L449.7,41.8z"/>
	</g>
	<path id="Fill-7_3_" class="st103" d="M440.2,76.2c7,0,12.7,5.6,12.7,12.5c0,6.9-5.7,12.5-12.7,12.5c-7,0-12.7-5.6-12.7-12.5
		C427.5,81.8,433.2,76.2,440.2,76.2"/>
</g>
<g id="Group-3_3_">
	<g id="Clip-2_2_">
	</g>
	<defs>
		<filter id="Adobe_OpacityMaskFilter_43_" filterUnits="userSpaceOnUse" x="541" y="246.1" width="81.1" height="47.8">
			<feColorMatrix  type="matrix" values="1 0 0 0 0  0 1 0 0 0  0 0 1 0 0  0 0 0 1 0"/>
		</filter>
	</defs>
	<mask maskUnits="userSpaceOnUse" x="541" y="246.1" width="81.1" height="47.8" id="mask-30_1_">
		<g class="st104">
			<polygon id="path-29_1_" class="st2" points="541,246.1 622.1,246.1 622.1,294 541,294 			"/>
		</g>
	</mask>
	<path id="Fill-1_11_" class="st105" d="M548.5,246.1h66c4.2,0,7.6,3.4,7.6,7.5v25c0,4.1-3.4,7.5-7.6,7.5h-23.7l3.3,7.9l-14.3-7.9
		h-31.3c-4.2,0-7.6-3.4-7.6-7.5v-25C541,249.5,544.4,246.1,548.5,246.1"/>
</g>
<path id="Fill-4_4_" class="st2" d="M544,252.5c0.5-0.6,1.1-1,2-1c1.6-0.1,2.6,0.7,2.8,2.4c1,6.9,2.1,12.7,3.3,17.4l7.1-13.7
	c0.6-1.2,1.5-1.9,2.4-2c1.4-0.1,2.3,0.8,2.7,2.8c0.8,4.4,1.8,8.1,3.1,11.2c0.8-8.3,2.3-14.4,4.3-18.1c0.5-0.9,1.2-1.4,2.1-1.4
	c0.7-0.1,1.4,0.2,2,0.7c0.6,0.5,0.9,1.1,1,1.9c0,0.6-0.1,1.1-0.3,1.6c-1.3,2.4-2.3,6.3-3.1,11.9c-0.8,5.4-1.1,9.5-0.9,12.5
	c0.1,0.8-0.1,1.5-0.4,2.2c-0.4,0.7-1,1.1-1.7,1.2c-0.8,0.1-1.7-0.3-2.6-1.2c-3-3.1-5.4-7.8-7.1-14c-2.1,4.2-3.7,7.4-4.7,9.5
	c-1.9,3.7-3.5,5.6-4.9,5.7c-0.9,0.1-1.6-0.7-2.3-2.3c-1.6-4.3-3.4-12.6-5.3-24.9C543.4,253.8,543.5,253.1,544,252.5"/>
<path id="Fill-6_3_" class="st2" d="M611.7,267.2c-0.5,2.3-1.3,4-2.5,5.1c-0.9,0.9-1.8,1.3-2.6,1.1c-0.8-0.2-1.4-0.9-1.9-2.3
	c-0.4-1.1-0.6-2.2-0.6-3.2c0-0.9,0.1-1.7,0.2-2.5c0.3-1.4,0.8-2.8,1.7-4.1c1.1-1.7,2.2-2.4,3.4-2.2c0.8,0.2,1.4,0.9,1.9,2.3
	c0.4,1.1,0.6,2.2,0.6,3.2C612,265.5,611.9,266.4,611.7,267.2 M615.8,257.6c-1.2-2.2-2.9-3.5-5.2-4c-0.6-0.1-1.2-0.2-1.8-0.2
	c-3.1,0-5.7,1.7-7.6,5.2c-1.7,3-2.5,6.2-2.5,9.8c0,2.7,0.5,5,1.6,6.9c1.2,2.2,2.9,3.5,5.2,4c0.6,0.1,1.2,0.2,1.8,0.2
	c3.2,0,5.7-1.7,7.6-5.2c1.7-3,2.5-6.3,2.5-9.8C617.4,261.7,616.9,259.5,615.8,257.6"/>
<path id="Fill-8_4_" class="st2" d="M589,267.2c-0.5,2.3-1.3,4-2.5,5.1c-0.9,0.9-1.8,1.3-2.6,1.1c-0.8-0.2-1.4-0.9-1.9-2.3
	c-0.4-1.1-0.6-2.2-0.6-3.2c0-0.9,0.1-1.7,0.2-2.5c0.3-1.4,0.8-2.8,1.7-4.1c1.1-1.7,2.2-2.4,3.4-2.2c0.8,0.2,1.4,0.9,1.9,2.3
	c0.4,1.1,0.6,2.2,0.6,3.2C589.2,265.5,589.1,266.4,589,267.2 M593.1,257.6c-1.2-2.2-2.9-3.5-5.2-4c-0.6-0.1-1.2-0.2-1.8-0.2
	c-3.1,0-5.7,1.7-7.6,5.2c-1.7,3-2.5,6.2-2.5,9.8c0,2.7,0.5,5,1.6,6.9c1.2,2.2,2.9,3.5,5.2,4c0.6,0.1,1.2,0.2,1.8,0.2
	c3.2,0,5.7-1.7,7.6-5.2c1.7-3,2.5-6.3,2.5-9.8C594.6,261.7,594.1,259.5,593.1,257.6"/>
<path id="Fill-10_2_" d="M769.6,273.3v-4.1h5.3v-4.7h-5.3v-4.1h6.2v-4.8h-12.2v22.5h12.2v-4.8L769.6,273.3L769.6,273.3z
	 M750.1,258.3c-2.2,2.2-3.3,5-3.3,8.3c0,3.6,1.1,6.5,3.2,8.8c2.2,2.2,5,3.3,8.5,3.3c1,0,2.2-0.2,3.4-0.5v-5.4
	c-1.1,0.3-2.1,0.5-3,0.5c-1.7,0-3.1-0.6-4.2-1.8c-1-1.2-1.6-2.8-1.6-4.8c0-1.9,0.5-3.4,1.5-4.6c1-1.2,2.3-1.8,3.9-1.8
	c1,0,2.1,0.2,3.3,0.5v-5.4c-1.1-0.3-2.3-0.4-3.6-0.4C755.1,255,752.3,256.1,750.1,258.3L750.1,258.3z M736.4,265.3v-5.4
	c1.4,0,2.5,0.3,3.1,0.7c0.6,0.5,0.9,1.2,0.9,2.2C740.4,264.5,739.1,265.3,736.4,265.3L736.4,265.3z M745.6,265.6
	c0.6-1,0.9-2.1,0.9-3.2c0-2.1-0.8-3.8-2.5-5s-3.9-1.8-6.7-1.8h-7v22.5h6v-10.2h0.1l4.9,10.2h6.3L743,268
	C744.1,267.4,745,266.7,745.6,265.6L745.6,265.6z M722.5,269.2h5.3v-4.7h-5.3v-4.1h6.1v-4.8h-12.2v22.5h12.2v-4.8h-6.2V269.2z
	 M704,255.6l-1.2,5.1c-0.3,1.3-0.6,2.6-0.8,4l-0.7,3.5c-0.6-3.5-1.5-7.7-2.6-12.5h-7.6l-2.8,22.5h5.7l1.5-15.5l3.9,15.5h4.1
	l3.7-15.5l1.6,15.5h6l-3-22.5H704z M676.8,255.6l-1.2,5.1c-0.3,1.3-0.6,2.6-0.8,4l-0.7,3.5c-0.6-3.5-1.5-7.7-2.6-12.5h-7.6
	l-2.8,22.5h5.7l1.5-15.5l3.9,15.5h4.1l3.7-15.5l1.6,15.5h6l-3-22.5H676.8z M653.3,272.2c-0.6,0.9-1.5,1.4-2.6,1.4
	c-1,0-1.8-0.5-2.4-1.4c-0.6-0.9-0.8-2.8-0.8-5.6c0-4.3,1.1-6.5,3.3-6.5c2.3,0,3.5,2.2,3.5,6.6C654.2,269.4,653.8,271.2,653.3,272.2
	L653.3,272.2z M650.7,255c-3,0-5.4,1-7.1,3c-1.7,2-2.5,4.9-2.5,8.5c0,3.9,0.9,6.9,2.5,9c1.7,2.1,4.1,3.1,7.3,3.1
	c3.1,0,5.5-1.1,7.2-3.1c1.7-2.1,2.5-5,2.5-8.8c0-3.8-0.9-6.7-2.6-8.7C656.3,256,653.9,255,650.7,255L650.7,255z M628,258.3
	c-2.2,2.2-3.3,5-3.3,8.3c0,3.6,1.1,6.5,3.2,8.8c2.2,2.2,5,3.3,8.5,3.3c1,0,2.2-0.2,3.4-0.5v-5.4c-1.1,0.3-2.1,0.5-3,0.5
	c-1.7,0-3.1-0.6-4.2-1.8c-1-1.2-1.6-2.8-1.6-4.8c0-1.9,0.5-3.4,1.5-4.6c1-1.2,2.3-1.8,3.9-1.8c1,0,2.1,0.2,3.3,0.5v-5.4
	c-1.1-0.3-2.3-0.4-3.6-0.4C632.9,255,630.2,256.1,628,258.3L628,258.3z"/>
<g id="Clip-2_3_">
</g>
<defs>
	<filter id="Adobe_OpacityMaskFilter_44_" filterUnits="userSpaceOnUse" x="610" y="11" width="82.1" height="26.3">
		<feColorMatrix  type="matrix" values="1 0 0 0 0  0 1 0 0 0  0 0 1 0 0  0 0 0 1 0"/>
	</filter>
</defs>
<mask maskUnits="userSpaceOnUse" x="610" y="11" width="82.1" height="26.3" id="mask-32_1_">
	<g class="st106">
		<polygon id="path-31_1_" class="st2" points="610,11 692.1,11 692.1,37.3 610,37.3 		"/>
	</g>
</mask>
<path id="Fill-1_12_" class="st107" d="M689.8,20.5L683.9,34c-0.3,0.7-0.8,1.3-1.7,1.3c-1.2,0-1.8-0.7-1.8-1.4
	c0-0.3,0.1-0.6,0.2-0.9l1.5-3.5l-3.9-8.9c-0.1-0.2-0.2-0.5-0.2-0.8c0-0.8,0.9-1.4,1.7-1.4c0.9,0,1.5,0.4,1.8,1.2l2.4,6.1l2.6-6.1
	c0.3-0.7,0.9-1.2,1.8-1.2c0.7,0,1.7,0.6,1.7,1.4C690,20,689.9,20.3,689.8,20.5L689.8,20.5z M676.8,28.9c0,1.1-0.7,1.8-1.8,1.8
	c-1,0-1.8-0.7-1.8-1.8v-14c0-1.1,0.7-1.8,1.8-1.8c1,0,1.8,0.7,1.8,1.8V28.9z M666.1,30.7c-1.2,0-2.6-0.5-3.2-1.5
	c-0.2,0.9-0.8,1.4-1.8,1.4c-1,0-1.8-0.7-1.8-1.8V14.9c0-1.1,0.7-1.8,1.7-1.8c1,0,1.7,0.7,1.7,1.8v4.4c1-0.8,2.2-1.1,3.4-1.1
	c3.8,0,5.7,3.3,5.7,6.4C672,27.6,669.7,30.7,666.1,30.7L666.1,30.7z M656.6,25.5H649c0.2,1.6,1.7,2.3,3.3,2.3c1.8,0,3.1-1.3,4-1.3
	c0.7,0,1.5,0.7,1.5,1.4c0,1.4-3.1,2.7-5.8,2.7c-4,0-6.6-2.7-6.6-6.2c0-3.3,2.6-6.3,6.3-6.3c3.8,0,6.4,3.2,6.4,5.9
	C658.1,25.1,657.7,25.5,656.6,25.5L656.6,25.5z M638.4,27.9c1.8,0,3.1-1.3,4-1.3c0.7,0,1.5,0.7,1.5,1.4c0,1.4-3.1,2.7-5.8,2.7
	c-4,0-6.6-2.7-6.6-6.2c0-3.3,2.6-6.3,6.3-6.3c3.8,0,6.4,3.2,6.4,5.9c0,1-0.5,1.5-1.5,1.5h-7.6C635.4,27.1,636.8,27.9,638.4,27.9
	L638.4,27.9z M631.1,21l-3.1,8c-0.4,1-1,1.7-2.2,1.7c-1.1,0-1.8-0.6-2.1-1.5l-1.8-5.3h0l-1.8,5.3c-0.3,1-1,1.5-2.1,1.5
	c-1.2,0-1.8-0.7-2.2-1.7l-3.1-7.9c-0.3-0.7-0.4-1.1-0.4-1.6c0-0.8,0.7-1.3,1.8-1.3c0.9,0,1.5,0.5,1.7,1.3l2.1,6.3h0l2.1-6.2
	c0.3-0.9,0.8-1.5,1.8-1.5c1,0,1.5,0.5,1.8,1.5l2.1,6.2h0l2.1-6.3c0.2-0.8,0.8-1.3,1.7-1.3c1.1,0,1.8,0.6,1.8,1.6
	C631.4,20.1,631.2,20.5,631.1,21L631.1,21z M688.3,16.3c-1.8,0-3.2,0.9-3.9,2.5l-0.4,1.1l-0.4-1.1c-0.6-1.5-2.1-2.5-3.9-2.5
	c-0.2,0-0.4,0-0.7,0.1v-1.5c0-2.2-1.7-3.8-4-3.8c-2.3,0-4,1.7-4,3.8v2.8c-1.3-1-3-1.6-4.7-1.6c-0.4,0-0.8,0-1.2,0.1v-1.3
	c0-2.2-1.7-3.8-4-3.8c-2.2,0-4,1.7-4,3.8V18c-1.5-1.2-3.4-1.8-5.4-1.8c-2.4,0-4.6,0.9-6.2,2.6c-0.3,0.3-0.5,0.5-0.7,0.9
	c-0.2-0.3-0.4-0.6-0.7-0.8c-1.6-1.7-3.9-2.6-6.3-2.6c-1.8,0-3.5,0.5-4.9,1.5c-0.7-0.9-1.9-1.5-3.3-1.5c-1.8,0-3.4,1.1-3.9,2.8
	c-0.9-2.5-3-2.8-3.9-2.8c-0.9,0-3.1,0.3-3.9,2.8c-0.5-1.7-2-2.8-3.9-2.8c-2.2,0-4,1.5-4,3.4c0,0.8,0.2,1.5,0.5,2.2l3.1,8
	c1,2.6,3.1,3,4.3,3c1.8,0,3.2-0.9,4-2.4c0.7,1.5,2.2,2.4,4,2.4c1.2,0,3.3-0.4,4.3-3l0.4-0.9c1.5,2.4,4.3,4,7.7,4
	c2.5,0,5.7-1,7.2-2.7c1.6,1.7,4,2.7,6.7,2.7c1.9,0,4.2-0.6,5.9-1.6c0.7,0.9,1.8,1.5,3.2,1.5c0.8,0,1.5-0.2,2.1-0.5
	c0.9,0.4,1.9,0.6,2.9,0.6c2,0,3.9-0.7,5.3-2c0.7,1.2,2,2,3.6,2c1.7,0,3.1-0.9,3.7-2.3c0,0-0.6,3-0.6,3.5c0,2,1.8,3.4,4.1,3.4
	c1.6,0,3-1,3.7-2.6l5.9-13.5c0.2-0.5,0.4-1,0.4-1.6C692.2,17.6,690.1,16.3,688.3,16.3L688.3,16.3z M638.1,20.8
	c-1.6,0-2.6,1.1-2.8,2.5h5.6C640.7,21.9,639.7,20.8,638.1,20.8L638.1,20.8z M665.7,21.1c-1.9,0-2.8,1.6-2.8,3.2
	c0,1.6,0.8,3.4,2.8,3.4c1.8,0,2.8-1.8,2.8-3.3C668.4,22.9,667.5,21.1,665.7,21.1L665.7,21.1z M651.9,20.8c-1.6,0-2.6,1.1-2.8,2.5
	h5.6C654.5,21.9,653.6,20.8,651.9,20.8L651.9,20.8z"/>
<path id="Fill-1_13_" class="st108" d="M854.2,0C840.3,0,829,11.1,829,24.7c0,13.6,11.3,24.7,25.2,24.7c13.9,0,25.2-11.1,25.2-24.7
	C879.4,11.1,868.1,0,854.2,0z M847.2,42.1c0.3-1.8,0.5-3.4,0.8-4.9c-5.5-2.7-9.1-8.2-8.2-14.6c1.2-8.6,8-13,16.5-12.3
	c0.6-0.9,1.4-1.8,2.2-2.6c1.4-1.6,3.6-1.6,2.6,0.2c-1.9,3.6-2.7,6.3-4.4,10.7c-1.7,4.6-4.2,11.4-7.6,23.4
	C848.9,43.1,847.1,42.9,847.2,42.1z M868.5,26.2c-1.1,8.2-8.9,12.9-16.7,12.1c0.6-1.9,0.8-2.7,1.5-4.2c0.5-0.9,2.3-1.2,3.8-1.8
	c2.9-1,5.2-3.6,5.6-6.8c0.3-2.3-0.4-4.5-1.7-6.2c-0.9-1.2-1.8-1.9-1.5-3c0.4-1.5,0.8-2.6,1.6-4.4C866.1,14.6,869.3,20.3,868.5,26.2
	L868.5,26.2z"/>
<path id="Fill-2_3_" class="st108" d="M845.1,23.3c-0.3,2.2,0.3,4.3,1.5,6c0.8,1.1,1.4,1.7,1.7,2.2c1-5.4,1.7-8.2,2.6-11.4
	c0.4-1.3,1.1-3.2,1.6-4.4c-0.6,0.2-1.5,0.4-2.2,0.7C847.7,17.5,845.5,20.1,845.1,23.3"/>
<g id="Group-34" transform="translate(0.349176, 0.667428)">
	<g id="Group">
		<path id="Fill-1_14_" class="st109" d="M840.5,358.3l14.1-14.2c1-1,2.2-1.5,3.6-1.5c1.4,0,2.6,0.5,3.6,1.5l1.1,1.1l2.2-2.2
			l-1.1-1.1c-1.5-1.6-3.6-2.4-5.8-2.4c-2.2,0-4.3,0.9-5.8,2.4l-14.1,14.2L840.5,358.3z"/>
		<g id="Group-5_1_" transform="translate(2.127943, 0.045166)">
			<g id="Fill-3-Clipped">
				<g id="path-1_2_">
				</g>
				<defs>
					<filter id="Adobe_OpacityMaskFilter_45_" filterUnits="userSpaceOnUse" x="829.1" y="339.1" width="28.1" height="26.3">
						<feColorMatrix  type="matrix" values="1 0 0 0 0  0 1 0 0 0  0 0 1 0 0  0 0 0 1 0"/>
					</filter>
				</defs>
				<mask maskUnits="userSpaceOnUse" x="829.1" y="339.1" width="28.1" height="26.3" id="mask-34_1_">
					<g class="st110">
						<polygon id="path-33_1_" class="st2" points="829.1,339.1 857.2,339.1 857.2,365.3 829.1,365.3 						"/>
					</g>
				</mask>
				<path id="Fill-3_5_" class="st111" d="M857.2,348.8l-2.2-2.2l-14.1,14.2c-2,2-5.2,2-7.2,0c-2-2-2-5.2,0-7.2l12.2-12.2l-2.2-2.2
					l-12.2,12.2c-3.2,3.2-3.2,8.4,0,11.6c1.5,1.6,3.6,2.4,5.8,2.4c2.2,0,4.3-0.9,5.8-2.4L857.2,348.8z"/>
			</g>
		</g>
		<path id="Fill-6_4_" class="st109" d="M873.4,351.4c-1.5-1.6-3.6-2.4-5.8-2.4c-2.2,0-4.3,0.9-5.8,2.4l-14.1,14.2l2.2,2.2
			l14.1-14.2c2-2,5.2-2,7.2,0c1,1,1.5,2.2,1.5,3.6c0,1.4-0.5,2.6-1.5,3.6L859,373l2.2,2.2l12.2-12.2
			C876.6,359.8,876.6,354.6,873.4,351.4"/>
		<path id="Fill-8_5_" class="st109" d="M866.5,356l-14.1,14.2c-2,2-5.2,2-7.2,0l-1.1-1.1l-2.2,2.2l1.1,1.1c1.5,1.6,3.6,2.4,5.8,2.4
			c2.2,0,4.3-0.9,5.8-2.4l14.1-14.2L866.5,356z"/>
		<path id="Fill-10_3_" d="M829.8,384.3c0,0.2,0.2,0.4,0.3,0.5c0.2,0.1,0.4,0.2,0.7,0.2c0.3,0,0.5-0.1,0.6-0.2
			c0.1-0.1,0.2-0.3,0.2-0.5c0-0.1,0-0.2-0.1-0.3c0-0.1-0.1-0.1-0.2-0.2c-0.1,0-0.2-0.1-0.3-0.1c-0.1,0-0.2-0.1-0.3-0.1l-0.3-0.1
			c-0.2-0.1-0.4-0.1-0.5-0.2c-0.2-0.1-0.3-0.2-0.4-0.3c-0.1-0.1-0.2-0.2-0.3-0.4c-0.1-0.1-0.1-0.3-0.1-0.5c0-0.2,0-0.4,0.1-0.5
			c0.1-0.2,0.2-0.3,0.3-0.4c0.1-0.1,0.3-0.2,0.5-0.3c0.2-0.1,0.4-0.1,0.7-0.1c0.5,0,0.8,0.1,1.1,0.3c0.3,0.2,0.4,0.5,0.5,0.9
			l-0.7,0.1c0-0.2-0.1-0.3-0.3-0.4c-0.1-0.1-0.3-0.2-0.6-0.2c-0.2,0-0.4,0.1-0.5,0.2c-0.1,0.1-0.2,0.2-0.2,0.4c0,0.1,0,0.2,0.1,0.2
			c0,0.1,0.1,0.1,0.2,0.2c0.1,0,0.2,0.1,0.3,0.1c0.1,0,0.2,0.1,0.3,0.1l0.3,0.1c0.2,0.1,0.4,0.1,0.5,0.2c0.2,0.1,0.3,0.2,0.4,0.2
			c0.1,0.1,0.2,0.2,0.3,0.3c0.1,0.1,0.1,0.3,0.1,0.5c0,0.2,0,0.4-0.1,0.6c-0.1,0.2-0.2,0.3-0.3,0.4c-0.1,0.1-0.3,0.2-0.5,0.3
			c-0.2,0.1-0.4,0.1-0.7,0.1c-0.5,0-0.8-0.1-1.1-0.3c-0.3-0.2-0.5-0.5-0.6-1L829.8,384.3z"/>
		<g id="Group-14_1_" transform="translate(4.255886, 41.948902)">
			<g id="Fill-12-Clipped">
				<g id="path-3_2_">
				</g>
				<defs>
					<filter id="Adobe_OpacityMaskFilter_46_" filterUnits="userSpaceOnUse" x="829.1" y="339.1" width="4.5" height="4.9">
						<feColorMatrix  type="matrix" values="1 0 0 0 0  0 1 0 0 0  0 0 1 0 0  0 0 0 1 0"/>
					</filter>
				</defs>
				<mask maskUnits="userSpaceOnUse" x="829.1" y="339.1" width="4.5" height="4.9" id="mask-36_1_">
					<g class="st112">
						<polygon id="path-35_1_" class="st2" points="829.1,339.1 833.6,339.1 833.6,344 829.1,344 						"/>
					</g>
				</mask>
				<path id="Fill-12_2_" class="st113" d="M831.3,339.7c-0.2,0-0.4,0-0.6,0.1c-0.2,0.1-0.3,0.2-0.4,0.3c-0.1,0.1-0.2,0.3-0.3,0.5
					c-0.1,0.2-0.1,0.4-0.1,0.7c0,0.2,0,0.5,0.1,0.7c0.1,0.2,0.2,0.4,0.3,0.5c0.1,0.1,0.3,0.3,0.4,0.4c0.2,0.1,0.4,0.1,0.6,0.1
					c0.2,0,0.4,0,0.6-0.1c0.2-0.1,0.3-0.2,0.4-0.3c0.1-0.1,0.2-0.3,0.3-0.5c0.1-0.2,0.1-0.4,0.1-0.7c0-0.2,0-0.5-0.1-0.7
					c-0.1-0.2-0.2-0.4-0.3-0.5c-0.1-0.1-0.3-0.3-0.5-0.3C831.7,339.8,831.5,339.7,831.3,339.7 M831.3,339.1c0.3,0,0.6,0.1,0.9,0.2
					s0.5,0.3,0.7,0.5c0.2,0.2,0.3,0.5,0.5,0.7c0.1,0.3,0.2,0.6,0.2,0.9c0,0.4-0.1,0.7-0.2,1c-0.1,0.3-0.3,0.5-0.5,0.7l0.6,0.7v0.2
					h-0.8l-0.4-0.5c-0.1,0.1-0.3,0.1-0.5,0.2c-0.2,0-0.3,0.1-0.5,0.1c-0.3,0-0.7-0.1-0.9-0.2c-0.3-0.1-0.5-0.3-0.7-0.5
					c-0.2-0.2-0.3-0.5-0.4-0.7c-0.1-0.3-0.2-0.6-0.2-0.9c0-0.3,0.1-0.7,0.2-0.9c0.1-0.3,0.3-0.5,0.5-0.7c0.2-0.2,0.4-0.4,0.7-0.5
					C830.7,339.1,831,339.1,831.3,339.1"/>
			</g>
		</g>
		<path id="Fill-15_1_" d="M840.8,385c0.3,0,0.6-0.1,0.7-0.3c0.2-0.2,0.3-0.5,0.3-0.9v-2.7h0.8v2.7c0,0.3,0,0.6-0.1,0.8
			c-0.1,0.2-0.2,0.4-0.4,0.6c-0.2,0.1-0.3,0.3-0.6,0.3c-0.2,0.1-0.5,0.1-0.8,0.1c-0.3,0-0.5,0-0.8-0.1c-0.2-0.1-0.4-0.2-0.6-0.3
			c-0.2-0.1-0.3-0.3-0.4-0.6c-0.1-0.2-0.1-0.5-0.1-0.8v-2.7h0.8v2.7c0,0.4,0.1,0.7,0.3,0.9C840.2,384.9,840.4,385,840.8,385"/>
		<path id="Fill-17_1_" d="M844.8,383.6h1.5l-0.2-0.7c-0.1-0.3-0.2-0.5-0.2-0.7c-0.1-0.2-0.1-0.3-0.2-0.5h-0.2c0,0.1,0,0.1-0.1,0.2
			c0,0.1-0.1,0.1-0.1,0.2c0,0.1-0.1,0.2-0.1,0.3c0,0.1-0.1,0.2-0.1,0.4L844.8,383.6z M843.3,385.4l1.6-4.3h1.2l1.6,4.3v0.2h-0.8
			l-0.4-1.3h-1.9l-0.4,1.3h-0.7V385.4z"/>
		<path id="Fill-19_1_" d="M849.4,383.2h0.7c0.3,0,0.5-0.1,0.7-0.2c0.2-0.1,0.3-0.3,0.3-0.5c0-0.3-0.1-0.4-0.3-0.5
			c-0.2-0.1-0.4-0.1-0.7-0.1h-0.7V383.2z M852,385.6h-0.8l-1.4-1.8h-0.5v1.8h-0.8v-4.5h1.4c0.2,0,0.4,0,0.6,0c0.2,0,0.4,0.1,0.6,0.2
			c0.4,0.2,0.5,0.6,0.5,1.1c0,0.2,0,0.4-0.1,0.5c-0.1,0.2-0.1,0.3-0.2,0.4c-0.1,0.1-0.2,0.2-0.3,0.3c-0.1,0.1-0.3,0.1-0.4,0.1
			l1.3,1.6V385.6z"/>
		<polygon id="Fill-21" points="853,381.1 855.9,381.1 855.9,381.8 853.8,381.8 853.8,383 855.8,383 855.8,383.6 853.8,383.6 
			853.8,384.9 856,384.9 856,385.6 853,385.6 		"/>
		<path id="Fill-23" d="M857.7,384.3c0,0.2,0.2,0.4,0.3,0.5c0.2,0.1,0.4,0.2,0.7,0.2c0.3,0,0.5-0.1,0.6-0.2c0.1-0.1,0.2-0.3,0.2-0.5
			c0-0.1,0-0.2-0.1-0.3c0-0.1-0.1-0.1-0.2-0.2c-0.1,0-0.2-0.1-0.3-0.1c-0.1,0-0.2-0.1-0.3-0.1l-0.3-0.1c-0.2-0.1-0.4-0.1-0.5-0.2
			c-0.2-0.1-0.3-0.2-0.4-0.3c-0.1-0.1-0.2-0.2-0.3-0.4c-0.1-0.1-0.1-0.3-0.1-0.5c0-0.2,0-0.4,0.1-0.5c0.1-0.2,0.2-0.3,0.3-0.4
			c0.1-0.1,0.3-0.2,0.5-0.3c0.2-0.1,0.4-0.1,0.7-0.1c0.5,0,0.8,0.1,1.1,0.3c0.3,0.2,0.4,0.5,0.5,0.9l-0.7,0.1c0-0.2-0.1-0.3-0.3-0.4
			c-0.1-0.1-0.3-0.2-0.6-0.2c-0.2,0-0.4,0.1-0.5,0.2c-0.1,0.1-0.2,0.2-0.2,0.4c0,0.1,0,0.2,0.1,0.2c0,0.1,0.1,0.1,0.2,0.2
			c0.1,0,0.2,0.1,0.3,0.1c0.1,0,0.2,0.1,0.3,0.1l0.3,0.1c0.2,0.1,0.4,0.1,0.5,0.2c0.2,0.1,0.3,0.2,0.4,0.2c0.1,0.1,0.2,0.2,0.3,0.3
			c0.1,0.1,0.1,0.3,0.1,0.5c0,0.2,0,0.4-0.1,0.6c-0.1,0.2-0.2,0.3-0.3,0.4c-0.1,0.1-0.3,0.2-0.5,0.3c-0.2,0.1-0.4,0.1-0.7,0.1
			c-0.5,0-0.8-0.1-1.1-0.3c-0.3-0.2-0.5-0.5-0.6-1L857.7,384.3z"/>
		<path id="Fill-25" d="M862.2,383.2h0.7c0.1,0,0.3,0,0.4,0c0.1,0,0.2-0.1,0.3-0.1c0.1-0.1,0.2-0.1,0.2-0.2c0-0.1,0.1-0.2,0.1-0.3
			c0-0.1,0-0.2-0.1-0.3c0-0.1-0.1-0.2-0.2-0.2c-0.1-0.1-0.2-0.1-0.3-0.1c-0.1,0-0.2,0-0.4,0h-0.8V383.2z M861.5,381.1h1.6
			c0.3,0,0.6,0,0.8,0.1c0.2,0.1,0.4,0.2,0.5,0.3c0.1,0.1,0.2,0.3,0.3,0.4c0.1,0.2,0.1,0.3,0.1,0.5c0,0.2,0,0.4-0.1,0.6
			c-0.1,0.2-0.2,0.3-0.3,0.4c-0.1,0.1-0.3,0.2-0.5,0.3c-0.2,0.1-0.4,0.1-0.7,0.1h-0.8v1.7h-0.8V381.1z"/>
		<path id="Fill-27" d="M866.3,383.6h1.5l-0.2-0.7c-0.1-0.3-0.2-0.5-0.2-0.7c-0.1-0.2-0.1-0.3-0.2-0.5H867c0,0.1,0,0.1-0.1,0.2
			c0,0.1-0.1,0.1-0.1,0.2c0,0.1-0.1,0.2-0.1,0.3c0,0.1-0.1,0.2-0.1,0.4L866.3,383.6z M864.9,385.4l1.6-4.3h1.2l1.6,4.3v0.2h-0.8
			l-0.4-1.3h-1.9l-0.4,1.3h-0.7V385.4z"/>
		<path id="Fill-29" d="M874,384.4c-0.1,0.2-0.2,0.3-0.3,0.5c-0.1,0.2-0.3,0.3-0.4,0.4c-0.2,0.1-0.3,0.2-0.6,0.3
			c-0.2,0.1-0.5,0.1-0.7,0.1c-0.3,0-0.6-0.1-0.9-0.2c-0.3-0.1-0.5-0.3-0.7-0.5c-0.2-0.2-0.3-0.5-0.4-0.7c-0.1-0.3-0.2-0.6-0.2-0.9
			c0-0.3,0.1-0.6,0.2-0.9c0.1-0.3,0.3-0.5,0.4-0.7c0.2-0.2,0.4-0.4,0.7-0.5c0.3-0.1,0.6-0.2,0.9-0.2c0.5,0,0.9,0.1,1.2,0.3
			c0.3,0.2,0.6,0.5,0.7,0.9l-0.8,0.2c-0.1-0.2-0.3-0.4-0.5-0.5c-0.2-0.1-0.4-0.2-0.7-0.2c-0.2,0-0.4,0-0.6,0.1s-0.3,0.2-0.4,0.4
			c-0.1,0.1-0.2,0.3-0.3,0.5c-0.1,0.2-0.1,0.4-0.1,0.7c0,0.2,0,0.5,0.1,0.7c0.1,0.2,0.2,0.4,0.3,0.5c0.1,0.1,0.3,0.3,0.4,0.3
			c0.2,0.1,0.4,0.1,0.6,0.1c0.3,0,0.5-0.1,0.7-0.2c0.2-0.1,0.3-0.3,0.4-0.5L874,384.4z"/>
		<g id="Group-33" transform="translate(45.938530, 42.074363)">
			<g id="Fill-31-Clipped">
				<g id="path-5_2_">
				</g>
				<defs>
					<filter id="Adobe_OpacityMaskFilter_47_" filterUnits="userSpaceOnUse" x="829.1" y="339" width="2.9" height="4.5">
						<feColorMatrix  type="matrix" values="1 0 0 0 0  0 1 0 0 0  0 0 1 0 0  0 0 0 1 0"/>
					</filter>
				</defs>
				<mask maskUnits="userSpaceOnUse" x="829.1" y="339" width="2.9" height="4.5" id="mask-38_1_">
					<g class="st114">
						<polygon id="path-37_1_" class="st2" points="829.1,339 832,339 832,343.5 829.1,343.5 						"/>
					</g>
				</mask>
				<polygon id="Fill-31" class="st115" points="829.1,339 832,339 832,339.7 829.8,339.7 829.8,340.9 831.8,340.9 831.8,341.6 
					829.8,341.6 829.8,342.8 832,342.8 832,343.5 829.1,343.5 				"/>
			</g>
		</g>
	</g>
</g>
<path id="Fill-1_15_" class="st116" d="M29.7,376.5H7.8c-1,0-1.8-0.7-1.8-1.6c0-0.9,0.8-1.6,1.8-1.6h21.9c1,0,1.8,0.7,1.8,1.6
	C31.6,375.7,30.7,376.5,29.7,376.5"/>
<path id="Fill-3_6_" class="st117" d="M24.5,387.1c-1.9,0-3.7-0.3-5.5-0.8c-1-0.3-1.6-1.3-1.3-2.3c0.3-1,1.4-1.5,2.4-1.2
	c1.4,0.4,2.9,0.6,4.3,0.6c6.5,0,12.1-4,14-9.9c0.3-1,1.4-1.5,2.4-1.2c1,0.3,1.6,1.3,1.3,2.3C39.7,382.1,32.7,387.1,24.5,387.1"/>
<path id="Fill-5_4_" class="st116" d="M42.5,365.8H20.6c-1,0-1.8-0.7-1.8-1.6c0-0.9,0.8-1.6,1.8-1.6h21.9c1,0,1.8,0.7,1.8,1.6
	C44.3,365.1,43.5,365.8,42.5,365.8"/>
<path id="Fill-7_4_" class="st117" d="M10,366.9c-0.2,0-0.4,0-0.6-0.1c-1-0.3-1.6-1.3-1.3-2.3c2.4-7.5,9.5-12.5,17.6-12.5
	c1.9,0,3.7,0.3,5.5,0.8c1,0.3,1.6,1.3,1.3,2.3c-0.3,1-1.4,1.5-2.4,1.2c-1.4-0.4-2.9-0.6-4.3-0.6c-6.5,0-12.1,4-14,9.9
	C11.6,366.4,10.9,366.9,10,366.9"/>
<path id="Fill-9_1_" class="st116" d="M36.9,357.8c0,0.9-0.7,1.6-1.6,1.6c-0.9,0-1.6-0.7-1.6-1.6c0-0.9,0.7-1.6,1.6-1.6
	C36.2,356.3,36.9,357,36.9,357.8"/>
<path id="Fill-11_1_" class="st116" d="M16.7,381.2c0,0.9-0.7,1.6-1.6,1.6s-1.6-0.7-1.6-1.6c0-0.9,0.7-1.6,1.6-1.6
	S16.7,380.4,16.7,381.2"/>
<g id="Group-3_5_" transform="translate(79.392810, 0.000000)">
	<g id="Clip-2_4_">
	</g>
	<defs>
		<filter id="Adobe_OpacityMaskFilter_48_" filterUnits="userSpaceOnUse" x="356.3" y="152.8" width="40" height="38.4">
			<feColorMatrix  type="matrix" values="1 0 0 0 0  0 1 0 0 0  0 0 1 0 0  0 0 0 1 0"/>
		</filter>
	</defs>
	<mask maskUnits="userSpaceOnUse" x="356.3" y="152.8" width="40" height="38.4" id="mask-40_1_">
		<g class="st118">
			<path id="path-39_1_" class="st2" d="M370.7,170.5c-3.8,2.6-5.2,5.9-3.6,9.6l0,0c1.2,2.8,3.8,3.9,6.6,4.4l0,0
				c-0.7-1.4-0.9-3.4-0.4-5.4l0,0c0.1-0.2,0.1-0.4,0.2-0.6l0,0c0.8,1.2,2.1,1.9,3.3,1.6l0,0c1.7-0.4,2.7-2.5,2.3-4.6l0,0
				c-0.1-0.5-0.3-0.9-0.5-1.3l0,0c0.1,0,0.1,0,0.2,0l0,0c2.2,0.6,3.2,3.8,2.3,7.2l0,0c-0.3,1.1-0.7,2.1-1.3,2.8l0,0
				c3.7-1.2,6.2-4.2,6.8-6.8l0,0c0.7-2.8,0.2-6-1.2-8.5l0,0c-3.4-6.2-13.5-7.6-13.5-7.6l0,0C372,161.2,376.6,166.4,370.7,170.5
				L370.7,170.5z"/>
		</g>
	</mask>
	<polygon id="Fill-1_16_" class="st119" points="356.3,191.2 396.3,191.2 396.3,152.8 356.3,152.8 	"/>
</g>
<g id="Group-16" transform="translate(0.000000, 13.091822)">
	<path id="Fill-4_5_" class="st2" d="M375.1,183.6c0.9-0.6,2.8-1.5,5.1-1.5c2.4,0,3.2,1.4,3.2,3.6v15.9c0,1.8,0.9,2.6,2.6,2.6h3.9
		c1.8,0,2.6-0.9,2.6-2.6v-17.3c0-5.5-2.2-9.7-10-9.7c-3.1,0-5.4,0.8-7.4,1.8v-12.8c0-1.8-0.9-2.6-2.6-2.6h-3.9
		c-1.8,0-2.6,0.9-2.6,2.6v37.8c0,1.8,0.9,2.6,2.6,2.6h3.9c1.8,0,2.6-0.9,2.6-2.6V183.6z"/>
	<path id="Fill-6_5_" class="st2" d="M409.7,204.9c10.5,0,13.4-6.2,13.4-15.2c0-9-2.9-15.2-13.4-15.2c-10.5,0-13.4,6.2-13.4,15.2
		C396.4,198.7,399.2,204.9,409.7,204.9 M409.7,181.9c3.1,0,4.3,2.1,4.3,7.8c0,5.7-1.1,7.8-4.3,7.8c-3.1,0-4.3-2.1-4.3-7.8
		C405.5,184,406.6,181.9,409.7,181.9"/>
	<path id="Fill-8_6_" class="st2" d="M429.3,175.7l-2.6,0.7c-1.6,0.5-2.3,1.2-2.3,2.7v1.3c0,1.8,0.9,2.6,2.6,2.6h2.2v11.7
		c0,6.8,2.9,10.2,11,10.2c1.1,0,2-0.1,2.6-0.2c1.2-0.2,2.3-1.2,2.3-2.9v-1.9c0-1.5-1.1-2.4-2.4-2.4h-0.6c-2.9,0-3.8-1.3-3.8-3.5v-11
		h4.4c1.8,0,2.6-0.9,2.6-2.6V178c0-1.8-0.9-2.6-2.6-2.6h-4.4v-4.8c0-1.8-1-3-3.4-2.4l-3,0.8c-2.1,0.6-2.7,1.2-2.7,2.9V175.7z"/>
	<path id="Fill-10_4_" class="st2" d="M460.7,178c0-1.8-0.8-2.6-2.6-2.6h-3.8c-1.8,0-2.6,0.9-2.6,2.6v29.7c0,2.7-1.7,3.6-3.3,3.8
		c-2.1,0.2-2.6,1.3-2.6,2.6v2.6c0,1.7,1.3,2.6,3.4,2.6c5.9,0,11.5-3.1,11.5-10.9V178z"/>
	<path id="Fill-12_3_" class="st2" d="M477.6,182c2.4,0,3.4,0.7,3.4,2v1.8l-5.2,0.5c-5.1,0.5-10.8,1.7-10.8,9.4
		c0,4.3,2.4,9.1,9.7,9.1c3.4,0,6.3-1.2,8.4-3l0.2,0.4c0.7,1.3,1.3,1.8,2.7,1.8h1.2c1.8,0,2.6-0.9,2.6-2.6v-16
		c0-6.4-1.9-10.9-12.2-10.9c-3.7,0-7.1,0.8-8.8,1.3c-1.1,0.3-2,1.2-2,3v1.6c0,1.7,1.3,3.1,3.6,2.6C471.1,182.9,474.6,182,477.6,182
		L477.6,182z M480.9,190.9v6.4c-0.9,0.9-2.5,1.4-4.1,1.4c-1.9,0-3.3-1.3-3.3-3.4c0-2.2,1-3.5,3.6-3.9L480.9,190.9z"/>
	<path id="Fill-14_2_" class="st2" d="M512.6,177.2c0-1.6-0.8-2.6-3.4-2.6c-3.3,0-6.8,1.5-8.3,2.9c-0.8-1.4-1-2.1-2.6-2.1H497
		c-1.8,0-2.6,0.9-2.6,2.6v23.5c0,1.8,0.9,2.6,2.6,2.6h3.9c1.8,0,2.6-0.9,2.6-2.6v-17.7c0.7-0.7,3.4-1.7,6.5-1.7
		c1.6,0,2.6-0.9,2.6-2.6V177.2z"/>
</g>
<g id="Clip-2_5_">
</g>
<g>
	<path class="st120" d="M182.2,130.3c0,16.6,9.7,31,23.7,37.8l-20.1-54.9C183.5,118.4,182.2,124.2,182.2,130.3z"/>
	<path class="st120" d="M252.6,128.1c0-5.2-1.9-8.8-3.5-11.6c-2.1-3.5-4.1-6.4-4.1-9.9c0-3.9,2.9-7.5,7.1-7.5c0.2,0,0.4,0,0.5,0
		c-7.5-6.9-17.4-11-28.4-11c-14.7,0-27.6,7.5-35.1,18.9c1,0,1.9,0.1,2.7,0.1c4.4,0,11.2-0.5,11.2-0.5c2.3-0.1,2.5,3.2,0.3,3.5
		c0,0-2.3,0.3-4.8,0.4l15.3,45.5l9.2-27.6l-6.5-17.9c-2.3-0.1-4.4-0.4-4.4-0.4c-2.3-0.1-2-3.6,0.3-3.5c0,0,6.9,0.5,11.1,0.5
		c4.4,0,11.2-0.5,11.2-0.5c2.3-0.1,2.5,3.2,0.3,3.5c0,0-2.3,0.3-4.8,0.4l15.2,45.2l4.2-14C251.3,135.9,252.6,131.7,252.6,128.1z"/>
	<path class="st120" d="M225,133.9l-12.6,36.6c3.8,1.1,7.7,1.7,11.9,1.7c4.9,0,9.6-0.8,14-2.4c-0.1-0.2-0.2-0.4-0.3-0.6L225,133.9z"
		/>
	<path class="st120" d="M261.1,110.1c0.2,1.3,0.3,2.8,0.3,4.3c0,4.3-0.8,9.1-3.2,15.1l-12.8,37.1c12.5-7.3,20.9-20.8,20.9-36.3
		C266.3,123,264.4,116.1,261.1,110.1z"/>
	<path class="st120" d="M224.3,81.3c-27,0-49,22-49,49c0,27,22,49,49,49c27,0,49-22,49-49C273.3,103.2,251.3,81.3,224.3,81.3z
		 M224.3,177c-25.8,0-46.8-21-46.8-46.8c0-25.8,21-46.8,46.8-46.8c25.8,0,46.7,21,46.7,46.8C271,156,250,177,224.3,177z"/>
</g>
<g>
	<defs>
		<filter id="Adobe_OpacityMaskFilter_49_" filterUnits="userSpaceOnUse" x="445.2" y="154.4" width="22.3" height="24.5">
			<feColorMatrix  type="matrix" values="1 0 0 0 0  0 1 0 0 0  0 0 1 0 0  0 0 0 1 0"/>
		</filter>
	</defs>
	<mask maskUnits="userSpaceOnUse" x="445.2" y="154.4" width="22.3" height="24.5" id="mask-42_1_">
		<g class="st121">
			<path id="path-41_1_" class="st2" d="M449.8,164.2c-4.1,2.7-5.7,6.3-3.9,10.1l0,0c1.3,3,4.1,4.2,7.2,4.6l0,0
				c-0.8-1.5-1-3.6-0.4-5.8l0,0c0.1-0.2,0.1-0.4,0.2-0.7l0,0c0.8,1.3,2.2,2,3.6,1.7l0,0c1.9-0.4,3-2.6,2.5-4.9l0,0
				c-0.1-0.5-0.3-1-0.6-1.4l0,0c0.1,0,0.1,0,0.2,0l0,0c2.3,0.6,3.5,4.1,2.5,7.6l0,0c-0.3,1.2-0.8,2.2-1.4,3l0,0
				c4-1.3,6.7-4.4,7.4-7.2l0,0c0.8-2.9,0.2-6.3-1.3-9l0,0c-3.7-6.6-14.6-8-14.6-8l0,0C451.2,154.4,456.2,159.9,449.8,164.2"/>
		</g>
	</mask>
	<path id="Fill-1_17_" class="st122" d="M449.8,164.2c-4.1,2.7-5.7,6.3-3.9,10.1l0,0c1.3,3,4.1,4.2,7.2,4.6l0,0
		c-0.8-1.5-1-3.6-0.4-5.8l0,0c0.1-0.2,0.1-0.4,0.2-0.7l0,0c0.8,1.3,2.2,2,3.6,1.7l0,0c1.9-0.4,3-2.6,2.5-4.9l0,0
		c-0.1-0.5-0.3-1-0.6-1.4l0,0c0.1,0,0.1,0,0.2,0l0,0c2.3,0.6,3.5,4.1,2.5,7.6l0,0c-0.3,1.2-0.8,2.2-1.4,3l0,0c4-1.3,6.7-4.4,7.4-7.2
		l0,0c0.8-2.9,0.2-6.3-1.3-9l0,0c-3.7-6.6-14.6-8-14.6-8l0,0C451.2,154.4,456.2,159.9,449.8,164.2"/>
	<g id="Group-6_2_">
		<g id="Clip-5_2_">
		</g>
		<defs>
			<filter id="Adobe_OpacityMaskFilter_50_" filterUnits="userSpaceOnUse" x="359" y="168.2" width="28.8" height="45.9">
				<feColorMatrix  type="matrix" values="1 0 0 0 0  0 1 0 0 0  0 0 1 0 0  0 0 0 1 0"/>
			</filter>
		</defs>
		<mask maskUnits="userSpaceOnUse" x="359" y="168.2" width="28.8" height="45.9" id="mask-44_1_">
			<g class="st123">
				<polygon id="path-43_1_" class="st2" points="359,168.2 387.8,168.2 387.8,214.1 359,214.1 				"/>
			</g>
		</mask>
		<path id="Fill-4_6_" class="st124" d="M368.9,192.2c0.9-0.6,3.1-1.6,5.5-1.6c2.7,0,3.5,1.5,3.5,3.8v16.9c0,1.9,0.9,2.8,2.9,2.8
			h4.2c1.9,0,2.9-0.9,2.9-2.8v-18.4c0-5.9-2.4-10.3-10.8-10.3c-3.4,0-5.9,0.9-8.1,2V171c0-1.9-0.9-2.8-2.9-2.8h-4.2
			c-1.9,0-2.9,0.9-2.9,2.8v40.3c0,1.9,0.9,2.8,2.9,2.8h4.2c1.9,0,2.9-0.9,2.9-2.8V192.2z"/>
	</g>
	<path id="Fill-7_5_" class="st125" d="M406.6,215c11.5,0,14.6-6.6,14.6-16.2c0-9.6-3.1-16.2-14.6-16.2c-11.5,0-14.6,6.6-14.6,16.2
		C392,208.3,395.1,215,406.6,215 M406.6,190.5c3.4,0,4.6,2.2,4.6,8.3c0,6.1-1.2,8.3-4.6,8.3c-3.4,0-4.6-2.2-4.6-8.3
		C401.9,192.7,403.2,190.5,406.6,190.5"/>
	<path id="Fill-9_2_" class="st125" d="M427.9,183.8l-2.8,0.7c-1.8,0.5-2.5,1.3-2.5,2.9v1.4c0,1.9,0.9,2.8,2.9,2.8h2.4v12.5
		c0,7.2,3.2,10.8,12,10.8c1.2,0,2.2-0.1,2.8-0.2c1.3-0.2,2.5-1.3,2.5-3.1v-2c0-1.6-1.2-2.6-2.7-2.6h-0.6c-3.2,0-4.1-1.4-4.1-3.7
		v-11.7h4.8c1.9,0,2.9-0.9,2.9-2.8v-2.5c0-1.9-0.9-2.8-2.9-2.8h-4.8v-5.1c0-1.9-1.1-3.2-3.7-2.5l-3.2,0.9c-2.2,0.6-3,1.3-3,3.1
		V183.8z"/>
	<path id="Fill-11_2_" class="st125" d="M462.1,186.3c0-1.9-0.9-2.8-2.8-2.8h-4.2c-1.9,0-2.8,0.9-2.8,2.8v31.6c0,2.9-1.8,3.9-3.6,4
		c-2.2,0.2-2.8,1.4-2.8,2.8v2.8c0,1.8,1.4,2.8,3.7,2.8c6.4,0,12.5-3.3,12.5-11.6V186.3z"/>
	<path id="Fill-13" class="st125" d="M480.4,190.5c2.7,0,3.7,0.7,3.7,2.1v2l-5.6,0.6c-5.6,0.6-11.7,1.8-11.7,10
		c0,4.6,2.7,9.7,10.5,9.7c3.7,0,6.9-1.2,9.1-3.2l0.2,0.4c0.8,1.4,1.4,1.9,2.9,1.9h1.3c1.9,0,2.8-0.9,2.8-2.8v-17.1
		c0-6.9-2.1-11.6-13.3-11.6c-4,0-7.7,0.9-9.5,1.4c-1.2,0.4-2.2,1.3-2.2,3.2v1.7c0,1.8,1.4,3.3,3.9,2.8
		C473.4,191.5,477.1,190.5,480.4,190.5L480.4,190.5z M484,200v6.8c-1,1-2.7,1.5-4.5,1.5c-2.1,0-3.6-1.4-3.6-3.6
		c0-2.4,1.1-3.7,3.9-4.1L484,200z"/>
	<g id="Group-17_1_" transform="translate(139.299878, 14.571873)">
		<g id="Clip-16">
		</g>
		<defs>
			<filter id="Adobe_OpacityMaskFilter_51_" filterUnits="userSpaceOnUse" x="359.4" y="168" width="19.8" height="31.5">
				<feColorMatrix  type="matrix" values="1 0 0 0 0  0 1 0 0 0  0 0 1 0 0  0 0 0 1 0"/>
			</filter>
		</defs>
		<mask maskUnits="userSpaceOnUse" x="359.4" y="168" width="19.8" height="31.5" id="mask-46_1_">
			<g class="st126">
				<polygon id="path-45_1_" class="st2" points="359.4,168 379.2,168 379.2,199.5 359.4,199.5 				"/>
			</g>
		</mask>
		<path id="Fill-15_2_" class="st127" d="M379.2,170.8c0-1.7-0.9-2.8-3.7-2.8c-3.6,0-7.4,1.6-9,3.1c-0.9-1.5-1.1-2.2-2.8-2.2h-1.5
			c-1.9,0-2.9,0.9-2.9,2.8v25c0,1.9,0.9,2.8,2.9,2.8h4.2c1.9,0,2.9-0.9,2.9-2.8v-18.8c0.8-0.7,3.7-1.8,7.1-1.8c1.7,0,2.8-1,2.8-2.8
			V170.8z"/>
	</g>
</g>
</svg>
