<svg width="1070" height="27" viewBox="0 0 1070 27" fill="none" xmlns="http://www.w3.org/2000/svg">
<path d="M1040.14 24.9837V19.1871H1040.58L1041.56 18.9943L1042.25 18.743L1042.91 18.3691L1043.49 17.9425L1044.03 17.4107L1044.49 16.8089L1044.93 15.9791L1045.16 15.2896L1045.32 14.5651L1045.34 13.9457L1045.3 13.2211L1045.14 12.4965L1044.88 11.8246L1044.52 11.1701L1044.08 10.5858L1043.28 9.86121L1042.65 9.46971L1041.98 9.14833L1041.27 8.9555L1040.53 8.85033H1040.14V2.9895L1040.81 3.00703L1041.93 3.12974L1043.01 3.35763L1044.06 3.69654L1045.06 4.1231L1046.02 4.63731L1046.96 5.29176L1047.88 6.08645L1048.69 6.93957L1049.34 7.81022L1049.91 8.73346L1050.36 9.67423L1050.65 10.5624L1050.74 10.9539V3.39853H1056.09L1063.19 13.8756L1063.17 3.34594L1069 3.39853V24.7382H1063.74L1056.51 14.3196V24.7382H1050.74V17.1712L1050.6 17.5802L1050.22 18.5034L1049.72 19.4617L1049.14 20.3675L1048.46 21.2206L1047.72 21.9977L1046.89 22.7048L1046 23.3242L1045.06 23.8559L1044.04 24.3L1042.91 24.6564L1041.79 24.8843L1040.72 24.9895L1040.14 24.9837ZM1040.14 2.9953V8.8019H1039.78L1039.04 8.90631L1038.34 9.11514L1037.66 9.43418L1037.04 9.82283L1036.48 10.3159L1035.98 10.8612L1035.57 11.4935L1035.27 12.1432L1035.06 12.845L1034.94 13.5817V14.301L1035.04 15.0377L1035.23 15.7396L1035.54 16.4241L1035.68 16.6852L1035.78 16.8244L1035.99 17.126L1036.51 17.6713L1037.07 18.1296L1037.71 18.5182L1038.39 18.7967L1039.1 18.9881L1039.84 19.0751L1040.13 19.0577V24.8121H1039.63L1038.57 24.7251L1037.51 24.5336L1036.45 24.1972L1035.44 23.7737L1034.48 23.2807L1033.6 22.6832L1032.8 22.0161L1032.47 21.7377L1032.19 21.4534V24.5684H1020V3.40136H1025.72V19.3419H1030.61L1030.4 18.9011L1030.18 18.4428L1029.78 17.4741L1029.49 16.4705L1029.28 15.4148L1029.17 14.3591V13.3207L1029.3 12.2302L1029.53 11.1222L1029.84 10.0491L1030.27 9.06293L1030.8 8.129L1031.4 7.24728L1032.09 6.41777L1032.86 5.66367L1033.69 4.99658L1034.59 4.4165L1035.53 3.94083L1036.52 3.53478L1037.55 3.25054L1038.61 3.07651L1039.67 2.9895L1040.14 2.9953ZM979.56 21.1426V16.1932H980.858V12.2347L979.56 14.1994V4.56276L980.306 3.34434H986.508V24.6347H980.858V21.1543L979.56 21.1426ZM991.146 24.6347H996.844V8.52701H1000.94V3.34434H987.221V8.52701H991.152L991.146 24.6347ZM1001.48 24.6347H1007.29V16.6137H1013.16V24.6347H1018.93V3.36182L1013.16 3.34434V11.5401H1007.28V3.36182H1001.47V24.6347H1001.48ZM936.627 8.81133L937.142 8.98636L937.832 9.32477L938.47 9.75069L939.038 10.2466L939.535 10.8126L939.944 11.4485L940.266 12.1195L940.477 12.8255L940.6 13.514L940.635 14.15L940.582 14.7859L940.459 15.4569L940.208 16.1454L939.868 16.8163L939.371 17.4698L938.751 18.0708L938.06 18.5842L937.335 18.9576L936.627 19.2085V24.553L937.142 24.483L938.347 24.1796L939.482 23.7711L940.442 23.2927L941.366 22.6918L942.221 22.0033L942.964 21.2798L943.619 20.4629L944.257 19.5061L944.596 18.9401V24.6347H956.398V19.5061H950.289V16.5655H956.392V11.5011H950.289V8.3679H956.392V3.34434H944.59V9.23725L944.467 8.89885L943.988 8.10534L943.332 7.23599L942.478 6.33164L941.589 5.57314L940.682 4.95468L939.634 4.42373L938.341 3.9628L937.066 3.6244L936.621 3.55438L936.627 8.81133ZM979.738 4.65469V14.2613L978.436 16.2547H979.738V21.1887H976.396L975.986 21.5955L975.147 22.351L974.274 23.0194L973.348 23.5831L972.368 24.0596L971.354 24.449L970.305 24.728L969.22 24.9198L968.118 24.9895L967.034 24.9721L965.967 24.8326L964.864 24.5885L963.745 24.2166L962.713 23.7574L961.804 23.1937L960.931 22.5603L960.168 21.857L959.459 21.0609L958.82 20.2124L958.269 19.2767L957.771 18.1841L957.36 16.9869L957.091 15.8769L956.967 14.7843L956.932 13.7266L957.02 12.6515L957.196 11.5938L957.483 10.5535L957.894 9.5132L958.41 8.50779L959.013 7.60699L959.688 6.77593L960.432 6.03785L961.271 5.36952L962.162 4.77092L963.158 4.24207L964.278 3.78295L965.415 3.46331L966.482 3.27153L967.567 3.16692L968.652 3.20179L969.719 3.3064L970.786 3.5563L971.853 3.91081L972.867 4.33505L973.811 4.86391L974.684 5.47994L975.482 6.16571L976.156 6.83404L976.425 7.15368L973.477 11.7042L973.101 11.3671L972.726 11.03L971.888 10.414L970.944 9.85027L969.93 9.39115L968.915 9.10638L968.024 9.00177L967.168 9.05408L966.295 9.2633L965.439 9.58293L964.747 10.0246L964.178 10.5012L963.698 11.0649L963.287 11.6984L962.988 12.3841L962.777 13.1048L962.689 13.8254V14.546L962.812 15.2667L963.041 15.9699L963.364 16.6557L963.791 17.2717L964.307 17.818L964.876 18.2597L965.515 18.6316L966.224 18.9164L967.022 19.0907L967.825 19.1779L968.587 19.1256L969.296 18.9861L970.006 18.7188L970.645 18.3875L971.249 17.9633L971.729 17.539L971.941 17.3298L979.738 4.65469ZM932.559 19.5045V8.52701H934.151L934.935 8.5445L935.684 8.61445L936.415 8.73688L936.609 8.80684V3.55421L935.749 3.43179L934.281 3.34434H927V24.6347H935.371L936.155 24.5997L936.621 24.5472V19.2071L936.55 19.2246L935.69 19.3995L934.687 19.4695L934.133 19.5045H932.559Z" fill="#C5C5C5"/>
<path d="M174.331 17.0552C174.32 17.9314 173.957 18.8278 173.22 19.4085C172.385 20.0707 171.187 20.2133 170.132 20.0198C169.142 19.8466 168.285 19.1538 167.933 18.2777C167.516 17.3914 167.757 16.3931 167.647 15.466C166.098 15.4966 164.548 15.4456 163 15.4864C163.022 16.6579 162.956 17.8499 163.319 18.9786C163.769 20.5984 164.858 22.0756 166.375 22.9904C168.177 24.0906 170.45 24.3759 172.561 24.0702C174.32 23.8054 175.988 23.0006 177.142 21.7373C178.362 20.413 178.967 18.671 178.989 16.9513C179 14.5471 178.989 12.1449 179 9.74075H174.331C174.331 12.1857 174.342 14.6205 174.331 17.0552Z" fill="#C5C5C5"/>
<path d="M175.867 3.07685C175.218 3.24119 174.643 3.6623 174.313 4.23747C173.93 4.88455 173.898 5.70623 174.218 6.38411C174.611 7.25715 175.58 7.86314 176.569 7.81178C177.665 7.80151 178.676 7.01064 178.932 5.98354C179.134 5.18241 178.879 4.28883 178.272 3.71365C177.663 3.10766 176.718 2.86116 175.867 3.07685Z" fill="#C5C5C5"/>
<path d="M164.925 7.7467C165.777 7.95188 166.726 7.68515 167.322 7.05935C168.143 6.25915 168.228 4.88444 167.525 3.99191C166.971 3.25326 165.969 2.87368 165.042 3.03783C164.403 3.16093 163.817 3.52 163.444 4.04321C162.986 4.669 162.869 5.5205 163.156 6.23863C163.435 6.98754 164.128 7.5723 164.925 7.7467Z" fill="#C5C5C5"/>
<path d="M218 15.2727C216.448 15.2623 214.899 15.2727 213.336 15.2727C213.325 15.8612 213.347 16.46 213.336 17.0588C213.303 17.9984 212.841 18.9483 212.005 19.4955C211.202 20.0324 210.156 20.1253 209.199 19.9704C208.23 19.8052 207.361 19.1754 206.976 18.3081C206.558 17.4718 206.69 16.5116 206.668 15.6134C206.69 14.3125 206.624 13.0116 206.69 11.723C208.549 11.7334 210.42 11.723 212.278 11.723C212.63 11.723 212.993 11.754 213.345 11.7024C213.312 10.3395 213.378 8.96634 213.323 7.60554C211.111 7.63651 208.902 7.59521 206.69 7.62619C206.646 6.40787 206.701 5.18955 206.657 3.96298C205.105 3.9733 203.567 3.98363 202.015 3.96298C201.982 7.78106 202.015 11.5909 202.004 15.409C202.015 16.204 201.96 16.999 202.081 17.794C202.301 19.5492 203.16 21.2507 204.601 22.407C206.032 23.5944 207.957 24.1726 209.859 24.1829C211.785 24.2242 213.763 23.708 215.26 22.5413C216.646 21.4881 217.538 19.9291 217.846 18.2999C218.066 17.2942 217.978 16.2845 218 15.2727Z" fill="#C5C5C5"/>
<path d="M186.687 6.6828C184.533 7.60202 182.787 9.30311 181.84 11.3191C180.848 13.4322 180.724 15.8813 181.525 18.0579C182.19 19.8963 183.487 21.5108 185.187 22.6096C186.788 23.6556 188.75 24.2156 190.71 24.1839C192.739 24.1733 194.812 23.6345 196.458 22.4934C197.958 21.4474 199.085 19.9153 199.559 18.2164C197.845 18.2269 196.145 18.1952 194.442 18.2269C193.98 19.0722 193.134 19.685 192.198 19.9914C190.834 20.4246 189.266 20.319 188.04 19.6216C186.946 19.0088 186.179 17.9522 185.863 16.8111C190.552 16.79 195.243 16.8217 199.931 16.79C200.235 13.8844 199.559 10.7274 197.371 8.55083C194.724 5.86924 190.193 5.15077 186.687 6.6828ZM185.942 13.1364C186.303 12.0058 187.092 10.9915 188.186 10.3998C189.472 9.70249 191.118 9.64967 192.48 10.178C193.811 10.6851 194.837 11.8262 195.164 13.1364H185.942Z" fill="#C5C5C5"/>
<path d="M522 1H547.92V27H522V1Z" fill="white"/>
<path d="M538.35 1L547.92 26.9356V1H538.35ZM522 1V26.9356L531.627 1H522ZM530.773 21.7871H535.273L537.096 27H541.084L534.988 10.5891L530.773 21.7871Z" fill="#C5C5C5"/>
<path d="M565.892 1.61905L560.419 26.6286H563.727L565.17 19.6952H570.222L571.605 26.6286H574.973L569.861 1.61905H565.892ZM565.591 16.9714L566.734 10.9667C567.035 9.35714 567.396 7.06667 567.696 5.27143H567.817C568.057 7.06667 568.418 9.29524 568.719 10.9667L569.861 16.9714H565.591ZM587.663 1H584.295V10.4095H584.235C583.633 9.04762 582.491 8.36667 581.107 8.36667C578.341 8.36667 575.695 11.4 575.695 17.7762C575.695 23.4095 577.679 27 580.927 27C582.671 27 584.054 25.7619 584.595 24.5238H584.716L584.956 26.6905H587.903C587.843 25.4524 587.783 23.4095 587.783 22.0476L587.663 1ZM584.295 20.3143C584.295 20.7476 584.235 21.181 584.174 21.4905C583.573 23.6571 582.611 24.0286 581.829 24.0286C580.025 24.0286 579.063 21.4286 579.063 17.7143C579.063 14.3714 579.784 11.3381 581.889 11.3381C583.092 11.3381 583.994 12.7619 584.174 14.3714C584.235 14.7429 584.235 15.1762 584.235 15.4857C584.295 15.4857 584.295 20.3143 584.295 20.3143ZM595.962 8.30476C592.774 8.30476 589.767 11.0905 589.767 17.6524C589.767 23.8429 592.293 26.9381 595.781 26.9381H595.841C598.488 26.9381 601.916 24.7714 601.916 17.5905C601.916 11.5238 599.39 8.30476 595.962 8.30476ZM595.841 24.2143C593.616 24.2143 593.075 20.6238 593.075 17.6524C593.075 14.9286 593.496 11.0905 595.721 11.0905C597.886 11.0905 598.367 14.9286 598.367 17.6524C598.427 20.3762 597.946 24.2143 595.841 24.2143ZM611.057 8.30476C609.493 8.30476 608.29 8.98571 607.388 10.6571H607.328V1H603.96V22.0476C603.96 23.4095 603.9 25.4524 603.84 26.6905H606.787L606.967 24.4H607.088C607.869 26.0095 608.832 26.9381 610.576 26.9381C613.462 26.9381 616.048 23.781 616.048 17.3429C615.928 11.8333 614.064 8.30476 611.057 8.30476ZM609.734 24.0286C609.072 24.0286 607.99 23.5952 607.448 21.3667C607.328 21.0571 607.328 20.6857 607.328 20.2524V15.1762C607.328 14.8048 607.388 14.3095 607.448 13.9381C607.689 12.6381 608.591 11.2762 609.734 11.2762C611.778 11.2762 612.56 14.0619 612.56 17.5286C612.5 21.3048 611.778 24.0286 609.734 24.0286ZM623.926 8.30476C620.258 8.30476 617.672 11.9571 617.672 17.8381C617.672 23.4095 619.957 26.8143 624.408 26.8143C625.971 26.8143 627.535 26.5048 628.617 25.9476L628.136 23.4095C627.354 23.781 626.332 24.0905 625.129 24.0905C623.085 24.0905 621.1 22.9143 621.1 18.2714L629.339 18.3333C629.399 17.8381 629.399 17.281 629.399 16.4143C629.279 11.9571 627.535 8.30476 623.926 8.30476ZM620.98 15.8571C621.1 13.5667 621.882 10.9667 623.626 10.9667C624.949 10.9667 626.031 12.7 626.031 15.8571H620.98ZM629.098 9.10952C629.219 9.04762 629.279 8.98571 629.279 8.8619C629.279 8.8 629.279 8.7381 629.219 8.67619C629.159 8.61429 629.098 8.61429 628.978 8.61429C628.858 8.61429 628.798 8.61429 628.738 8.61429V9.48095H628.858V9.10952H628.978C629.098 9.10952 629.159 9.17143 629.159 9.29524C629.159 9.41905 629.219 9.48095 629.219 9.54286H629.339C629.339 9.54286 629.279 9.48095 629.279 9.29524C629.219 9.17143 629.159 9.10952 629.098 9.10952ZM628.918 9.04762H628.798V8.7381C628.798 8.7381 628.858 8.7381 628.918 8.7381C629.098 8.7381 629.159 8.8 629.159 8.92381C629.098 8.98571 629.038 9.04762 628.918 9.04762ZM628.978 8.30476C628.557 8.30476 628.196 8.67619 628.196 9.10952C628.196 9.54286 628.557 9.91429 628.978 9.91429C629.399 9.91429 629.76 9.54286 629.76 9.10952C629.7 8.61429 629.399 8.30476 628.978 8.30476ZM628.978 9.79048C628.617 9.79048 628.377 9.48095 628.377 9.10952C628.377 8.7381 628.677 8.42857 628.978 8.42857C629.339 8.42857 629.58 8.7381 629.58 9.10952C629.58 9.48095 629.339 9.79048 628.978 9.79048ZM552.782 1.68095C552.361 1.68095 552 2.05238 552 2.48571C552 2.91905 552.361 3.29048 552.782 3.29048C553.203 3.29048 553.564 2.91905 553.564 2.48571C553.564 2.05238 553.203 1.68095 552.782 1.68095ZM552.782 3.16667C552.421 3.16667 552.18 2.85714 552.18 2.48571C552.18 2.11429 552.481 1.80476 552.782 1.80476C553.143 1.80476 553.383 2.11429 553.383 2.48571C553.383 2.91905 553.143 3.16667 552.782 3.16667ZM552.902 2.54762C553.022 2.48571 553.083 2.42381 553.083 2.3C553.083 2.2381 553.083 2.17619 553.022 2.11429C552.962 2.05238 552.902 2.05238 552.722 2.05238C552.601 2.05238 552.541 2.05238 552.481 2.05238V2.91905H552.601V2.60952H552.722C552.842 2.60952 552.902 2.67143 552.902 2.79524C552.902 2.91905 552.962 2.98095 552.962 3.04286H553.083C553.083 3.04286 553.022 2.98095 553.022 2.79524C553.022 2.60952 553.022 2.54762 552.902 2.54762ZM552.722 2.48571H552.601V2.17619C552.601 2.17619 552.662 2.17619 552.722 2.17619C552.902 2.17619 552.962 2.2381 552.962 2.3619C552.962 2.42381 552.842 2.48571 552.722 2.48571Z" fill="#C5C5C5"/>
<path d="M284.613 19.3238C284.613 18.4571 284.984 18.3333 285.85 18.8286C287.335 19.6952 288.82 20.4381 288.82 20.4381C288.82 19.9429 289.315 19.5714 290.181 19.819C291.047 20.0667 291.914 20.1905 291.914 20.1905C291.914 20.1905 291.419 19.0762 291.171 18.581C290.8 17.7143 291.171 17.219 291.542 17.0952C291.542 17.0952 291.048 16.7238 290.676 16.4762C289.934 15.981 290.057 15.3619 290.8 15.1143C291.79 14.619 293.151 14.1238 293.151 14.1238C292.78 13.8762 292.285 13.2571 292.78 12.3905C293.275 11.6476 294.141 10.5333 294.141 10.5333C294.141 10.5333 292.78 10.5333 291.79 10.5333C290.924 10.5333 290.676 9.79048 290.676 9.29524C290.676 9.29524 289.315 10.2857 288.325 10.9048C287.459 11.5238 286.716 10.9048 286.84 9.91429C287.088 8.42857 287.211 6.69524 287.211 6.69524C286.716 7.19048 285.85 7.06667 285.355 6.32381C284.736 5.08571 284.118 3.6 284.118 3.6C284.118 3.6 283.499 5.08571 282.88 6.32381C282.509 7.06667 281.643 7.19048 281.148 6.81905C281.148 6.81905 281.271 8.55238 281.519 10.0381C281.643 10.9048 280.9 11.5238 280.034 10.9048C279.044 10.2857 277.559 9.29524 277.559 9.29524C277.559 9.79048 277.311 10.4095 276.445 10.5333C275.455 10.5333 274.094 10.5333 274.094 10.5333C274.094 10.5333 274.96 11.6476 275.455 12.3905C275.95 13.1333 275.455 13.8762 275.084 14.1238C275.084 14.1238 276.321 14.7429 277.435 15.1143C278.177 15.4857 278.425 15.981 277.559 16.4762C277.311 16.7238 276.693 17.0952 276.693 17.0952C277.188 17.219 277.559 17.7143 277.188 18.581C276.94 19.0762 276.445 20.1905 276.445 20.1905C276.445 20.1905 277.311 19.9429 278.177 19.819C279.044 19.5714 279.415 20.0667 279.539 20.4381C279.539 20.4381 281.024 19.5714 282.509 18.8286C283.251 18.3333 283.746 18.581 283.746 19.3238V21.4286C283.746 22.6667 283.499 23.9048 283.127 24.6476C277.559 24.0286 272.856 19.5714 272.856 13.6286C272.856 7.5619 277.93 2.60952 284.241 2.60952C290.553 2.60952 295.626 7.5619 295.626 13.6286C295.626 19.3238 291.171 24.0286 285.479 24.6476V26.1333C292.161 25.5143 297.359 20.1905 297.359 13.6286C297.359 6.57143 291.419 1 284.118 1C276.94 1 271 6.57143 271 13.5048C271 19.5714 275.579 24.6476 281.642 25.7619C282.632 26.0095 283.251 26.1333 283.87 26.7524C284.489 25.5143 284.613 23.0381 284.613 21.6762V19.3238Z" fill="#C5C5C5"/>
<path d="M337.701 20.1905V6.81906H344.26C347.725 6.81906 349.334 8.30477 349.457 10.1619C349.457 11.0286 349.334 11.8952 348.715 12.5143C348.096 13.1333 347.849 13.381 346.735 14L351.685 20.3143H348.096L343.641 14.619H340.671V20.1905H337.701ZM340.671 12.8857H342.032C345.621 12.8857 346.364 12.2667 346.364 10.5333C346.364 8.80001 344.755 8.55239 342.404 8.55239H340.671V12.8857Z" fill="#C5C5C5"/>
<path d="M308.372 20.1905L314.189 6.81906H317.777L323.594 20.1905H320.005L318.396 16.6H312.209L310.6 20.1905H308.372ZM312.951 14.8667H317.53L315.179 9.54287L312.951 14.8667Z" fill="#C5C5C5"/>
<path d="M330.771 6.81906H327.677V20.1905H330.771V6.81906Z" fill="#C5C5C5"/>
<path d="M373.96 19.6952C372.475 20.3143 370.619 20.5619 368.391 20.5619C365.793 20.5619 363.689 19.9429 362.204 18.7048C360.719 17.4667 359.976 15.7333 359.976 13.5048C359.976 11.2762 360.719 9.41906 362.204 8.30477C363.689 7.06667 365.793 6.44763 368.639 6.44763C370.371 6.44763 372.104 6.57144 373.96 6.94286V9.17144C371.98 8.55239 370.124 8.30477 368.763 8.30477C367.03 8.30477 365.793 8.80001 364.803 9.66667C363.936 10.5333 363.441 11.8952 363.441 13.5048C363.441 15.1143 363.936 16.3524 364.926 17.3429C365.916 18.2095 367.278 18.7048 369.01 18.7048C370.619 18.7048 372.351 18.3333 373.96 17.7143V19.6952Z" fill="#C5C5C5"/>
<path d="M377.796 20.1905L383.613 6.81906H387.201L393.018 20.1905H389.429L387.82 16.6H381.633L380.024 20.1905H377.796ZM382.499 14.8667H387.078L384.85 9.54287L382.499 14.8667Z" fill="#C5C5C5"/>
<path d="M416.53 20.1905L422.346 6.81906H425.935L431.751 20.1905H428.163L426.554 16.6H420.366L418.758 20.1905H416.53ZM421.109 14.8667H425.688L423.336 9.54287L421.109 14.8667Z" fill="#C5C5C5"/>
<path d="M460.09 9.54287L462.441 14.8667H457.863L460.09 9.54287ZM459.1 6.81906L453.284 20.1905H455.511L457.12 16.6H463.307L464.916 20.1905H468.505L462.689 6.81906H459.1Z" fill="#C5C5C5"/>
<path d="M397.473 20.1905V6.81906H401.061L409.476 16.3524V6.81906H412.075V20.1905H408.734L400.071 10.1619V20.1905H397.473Z" fill="#C5C5C5"/>
<path d="M436.083 20.1905V6.81906H442.518C444.869 6.81906 446.601 7.4381 447.839 8.42858C449.076 9.54287 449.695 11.1524 449.695 13.1333C449.695 15.3619 449.076 17.0952 447.715 18.2095C446.354 19.4476 444.621 20.0667 442.27 20.0667H436.083V20.1905ZM439.176 18.3333H441.528C443.136 18.3333 444.374 17.9619 445.24 17.0952C446.106 16.2286 446.478 15.1143 446.478 13.381C446.478 12.1429 446.106 11.0286 445.488 10.1619C444.993 9.54287 444.498 9.17144 443.879 8.92382C443.26 8.6762 442.394 8.55239 441.156 8.55239H439.3L439.176 18.3333Z" fill="#C5C5C5"/>
<path d="M737.34 19.213L738.746 17.5584C740.015 18.639 741.284 19.2805 742.965 19.2805C744.406 19.2805 745.332 18.639 745.332 17.626V17.5584C745.332 16.613 744.783 16.1065 742.313 15.5325C739.466 14.8571 737.854 14.0468 737.854 11.6156V11.5818C737.854 9.31949 739.775 7.76624 742.416 7.76624C744.166 7.73247 745.915 8.3065 747.252 9.42079L745.983 11.1766C744.783 10.2987 743.582 9.82598 742.348 9.82598C740.976 9.82598 740.187 10.5351 740.187 11.3792V11.413C740.187 12.426 740.804 12.8649 743.342 13.4727C746.155 14.1481 747.63 15.161 747.63 17.3221V17.3559C747.63 19.8208 745.675 21.2727 742.862 21.2727C740.838 21.3065 738.849 20.5636 737.34 19.213Z" fill="#C5C5C5"/>
<path d="M749.208 17.5247V11.2104H751.506V16.8493C751.506 18.4026 752.295 19.2805 753.666 19.2805C755.038 19.2805 755.93 18.3688 755.93 16.8156V11.2104H758.228V21.1377H755.93V20.1247C755.107 20.9688 753.975 21.4416 752.775 21.3403C750.545 21.3403 749.208 19.8208 749.208 17.5247Z" fill="#C5C5C5"/>
<path d="M760.732 11.2104H763.03V12.8649C763.648 11.3792 764.814 10.9403 766.597 11.0078V13.0338H766.46C764.437 13.0338 763.03 14.3506 763.03 17.3558V21.1039H760.732V11.2104Z" fill="#C5C5C5"/>
<path d="M767.421 11.2104H769.89L772.6 18.0987L775.344 11.2104H777.779L773.663 21.2052H771.571L767.421 11.2104Z" fill="#C5C5C5"/>
<path d="M777.779 16.2078V16.174C777.779 13.3377 779.837 11.0078 782.718 11.0078C785.942 11.0078 787.554 13.4727 787.554 16.3429C787.554 16.5455 787.52 16.7481 787.52 16.9844H780.111C780.352 18.6052 781.518 19.5169 783.027 19.5169C784.056 19.5169 785.085 19.0779 785.771 18.3351L787.109 19.5169C786.114 20.7325 784.57 21.4078 782.993 21.374C780.043 21.3403 777.779 19.2468 777.779 16.2078ZM785.256 15.4649C785.119 14.013 784.227 12.8649 782.684 12.8649C781.278 12.8649 780.283 13.9455 780.077 15.4649H785.256Z" fill="#C5C5C5"/>
<path d="M799.765 7.96884H802.269L806.316 14.6883L810.398 7.96884H812.868V21.1039H810.535V11.6831L806.316 18.3688H806.248L802.063 11.7169V21.1039H799.765V7.96884Z" fill="#C5C5C5"/>
<path d="M814.548 16.2078V16.174C814.548 13.2701 816.949 10.8727 819.899 10.8727C822.849 10.8727 825.284 13.2364 825.284 16.1403V16.174C825.284 19.0442 822.917 21.3403 820.002 21.3403C819.968 21.3403 819.933 21.3403 819.899 21.3403C817.018 21.4078 814.617 19.1792 814.548 16.3429C814.548 16.3091 814.548 16.2753 814.548 16.2078ZM822.986 16.2078V16.174C822.986 14.4182 821.717 12.9662 819.899 12.9662C818.081 12.9662 816.846 14.3844 816.846 16.1065V16.1403C816.846 17.8623 818.115 19.3481 819.933 19.3481C821.82 19.3818 822.986 17.9299 822.986 16.2078Z" fill="#C5C5C5"/>
<path d="M838.215 7.39481H840.513V15.6L844.698 11.2104H847.51L843.497 15.2623L847.647 21.1377H844.972L841.919 16.8494L840.513 18.3013V21.1377H838.215V7.39481Z" fill="#C5C5C5"/>
<path d="M847.442 16.2078V16.174C847.442 13.3377 849.499 11.0078 852.381 11.0078C855.605 11.0078 857.217 13.4727 857.217 16.3429C857.217 16.5455 857.183 16.7481 857.183 16.9844H849.774C850.014 18.6052 851.18 19.5169 852.689 19.5169C853.718 19.5169 854.747 19.0779 855.433 18.3351L856.771 19.5169C855.776 20.7325 854.233 21.4078 852.655 21.374C849.705 21.3403 847.442 19.2468 847.442 16.2078ZM854.919 15.4649C854.782 14.013 853.89 12.8649 852.346 12.8649C850.94 12.8649 849.945 13.9455 849.74 15.4649H854.919Z" fill="#C5C5C5"/>
<path d="M795.649 11.2104L792.871 17.9636L790.093 11.2104H787.692L791.67 20.9013L789.578 25.9325H791.979L798.05 11.2104H795.649Z" fill="#C5C5C5"/>
<path d="M1000.28 11.3897C1000.04 11.3897 999.805 11.4572 999.599 11.5585C999.393 11.6598 999.187 11.8624 999.084 12.065C998.982 12.2676 998.913 12.504 998.913 12.7404C998.913 12.9767 998.982 13.2131 999.084 13.4157C999.187 13.6183 999.393 13.7871 999.599 13.9222C1000.01 14.1585 1000.56 14.1585 1000.97 13.9222C1001.18 13.8209 1001.35 13.6183 1001.49 13.4157C1001.73 13.0105 1001.73 12.4702 1001.49 12.065C1001.38 11.8624 1001.18 11.6598 1000.97 11.5585C1000.73 11.4572 1000.53 11.3897 1000.28 11.3897ZM1000.28 11.1196C1000.56 11.1196 1000.83 11.1871 1001.11 11.3222C1001.38 11.4572 1001.59 11.6598 1001.73 11.93C1002.03 12.4365 1002.03 13.0443 1001.73 13.5508C1001.59 13.8209 1001.38 14.0235 1001.11 14.1585C1000.87 14.2936 1000.56 14.3611 1000.28 14.3611C1000.01 14.3611 999.702 14.2936 999.462 14.1585C999.187 14.0235 998.982 13.8209 998.844 13.5508C998.707 13.3144 998.639 13.0105 998.639 12.7404C998.639 12.4365 998.707 12.1663 998.879 11.93C999.016 11.6598 999.222 11.4572 999.496 11.3222C999.702 11.1871 999.976 11.1196 1000.28 11.1196Z" fill="#C5C5C5"/>
<path d="M999.599 11.8287H1000.81C1001.11 11.8287 1001.36 11.9179 1001.61 12.0517C1001.76 12.1854 1001.86 12.3638 1001.86 12.5868C1001.86 12.9436 1001.61 13.2558 1001.21 13.3004L1001.96 14.1923H1001.41L1000.76 13.345H1000.15V14.1923H999.649L999.599 11.8287ZM1000.76 13.0328C1001.11 13.0328 1001.31 12.8544 1001.31 12.6314C1001.31 12.3638 1001.11 12.23 1000.76 12.23H1000.05V13.0328H1000.76Z" fill="#C5C5C5"/>
<path d="M865.312 11.2104L862.533 17.9636L859.755 11.2104H857.354L861.333 20.9013L859.241 25.9325H861.676L867.713 11.2104H865.312Z" fill="#C5C5C5"/>
<path d="M835.883 14.8234V21.1377H833.584V15.4987C833.584 13.9455 832.796 13.0675 831.424 13.0675C830.052 13.0675 829.16 13.9792 829.16 15.5325V21.1377H826.827V11.2104H829.126V12.2234C829.949 11.3792 831.081 10.9065 832.281 11.0078C834.545 11.0078 835.883 12.4935 835.883 14.8234Z" fill="#C5C5C5"/>
<path d="M726.257 13.4772C725.955 13.4772 725.62 13.5114 725.318 13.5798C724.145 8.92777 720.423 5.37035 715.763 4.5152C715.562 4.48099 715.361 4.44678 715.16 4.41258C715.193 3.24957 715.26 1.91554 716.937 0.68412L716.668 0C716.668 0 713.383 1.02618 713.014 3.89949C712.846 3.11275 711.338 2.15498 710.567 1.94974L710.198 2.56545C710.868 2.97592 711.338 3.69425 711.438 4.48099C706.778 5.37035 703.057 8.92777 701.883 13.614C699.771 13.0667 697.659 14.3665 697.123 16.5215C696.586 18.6765 697.86 20.8315 699.972 21.3788C700.777 21.584 701.615 21.5156 702.353 21.2077C702.688 22.0629 703.124 22.8838 703.627 23.6364L706.879 21.413L706.845 21.3788C705.94 20.0789 705.437 18.5397 705.37 16.932C705.269 15.1191 705.705 13.3061 706.845 12.2458C709.192 10.1934 711.74 11.1512 713.349 13.1009H713.785C715.394 11.1512 717.942 10.2276 720.289 12.2458C721.429 13.3061 721.865 15.1191 721.764 16.932C721.697 18.5397 721.194 20.0789 720.289 21.3788L720.256 21.413L723.508 23.6364C724.011 22.8838 724.446 22.0629 724.782 21.2077C726.793 21.9945 729.073 21.0025 729.844 18.9501C730.615 16.8978 729.643 14.5718 727.631 13.785C727.229 13.5798 726.726 13.4772 726.257 13.4772ZM700.878 18.6765C700.241 18.6423 699.738 18.095 699.771 17.4451C699.805 16.8294 700.274 16.3505 700.878 16.3163C701.112 16.3163 701.347 16.3847 701.515 16.5215C701.515 17.1372 701.582 17.7529 701.649 18.3686C701.414 18.5397 701.146 18.6765 700.878 18.6765ZM726.324 18.6765C726.056 18.6765 725.754 18.5739 725.553 18.3686C725.62 17.7529 725.653 17.1372 725.687 16.5215C726.223 16.1452 726.927 16.2821 727.296 16.8294C727.43 17.0346 727.497 17.274 727.497 17.4793C727.464 18.1292 726.961 18.6765 726.324 18.6765Z" fill="#C5C5C5"/>
<path d="M99.6667 8.66666C96.0809 8.66666 93.1667 11.5808 93.1667 15.1667C93.1667 18.7525 96.0809 21.6667 99.6667 21.6667C103.253 21.6667 106.167 18.7525 106.167 15.1667C106.167 11.5808 103.253 8.66666 99.6667 8.66666ZM99.6667 19.0667C97.5109 19.0667 95.7667 17.3225 95.7667 15.1667C95.7667 13.0108 97.5109 11.2667 99.6667 11.2667C101.823 11.2667 103.567 13.0108 103.567 15.1667C103.567 17.3225 101.823 19.0667 99.6667 19.0667Z" fill="#C5C5C5"/>
<path d="M57.2 8.66666C55.6725 8.66666 54.21 9.24083 53.0833 10.2592V4.54999H50.4833V21.45H53.0833V20.0742C54.21 21.0925 55.6725 21.6667 57.2 21.6667C60.6667 21.6667 63.4833 18.7525 63.4833 15.1667C63.4833 11.5808 60.6667 8.66666 57.2 8.66666ZM56.9833 19.0667C54.8275 19.0667 53.0833 17.3225 53.0833 15.1667C53.0833 13.0108 54.8275 11.2667 56.9833 11.2667C59.1392 11.2667 60.8833 13.0108 60.8833 15.1667C60.8833 17.3225 59.1392 19.0667 56.9833 19.0667Z" fill="#C5C5C5"/>
<path d="M91.2167 4.54999H88.6167V21.45H91.2167V4.54999Z" fill="#C5C5C5"/>
<path d="M82.55 8.88333H79.95V21.45H82.55V15.1667C82.55 13.0108 84.2942 11.2667 86.45 11.2667H86.6667V8.66666C85.1392 8.66666 83.6767 9.24083 82.55 10.2592V8.88333Z" fill="#C5C5C5"/>
<path d="M71.5 8.66666C67.9142 8.66666 65 11.5808 65 15.1667C65 18.7525 67.9142 21.6667 71.5 21.6667C74.0025 21.6667 76.2775 20.2367 77.3608 17.9833H74.1975C72.6375 19.4675 70.1675 19.4133 68.6833 17.8642C68.25 17.4092 67.925 16.8567 67.7517 16.25H77.9025C78.4983 12.7075 76.115 9.35999 72.5725 8.75333C72.2258 8.69916 71.8683 8.66666 71.5 8.66666ZM67.7517 14.0833C68.3475 12.0142 70.5142 10.8225 72.5833 11.4183C73.8725 11.7867 74.8692 12.7942 75.2483 14.0833H67.7517Z" fill="#C5C5C5"/>
<path d="M39.8667 4.33334C35.0783 4.33334 31.2 8.21167 31.2 13C31.2 17.7883 35.0783 21.6667 39.8667 21.6667C44.655 21.6667 48.5333 17.7883 48.5333 13C48.5333 8.21167 44.655 4.33334 39.8667 4.33334ZM39.8667 18.85C36.6383 18.85 34.0167 16.2283 34.0167 13C34.0167 9.77167 36.6383 7.15 39.8667 7.15C43.095 7.15 45.7167 9.77167 45.7167 13C45.7167 16.2283 43.095 18.85 39.8667 18.85Z" fill="#C5C5C5"/>
<path d="M10.6167 14.95C11.6936 14.95 12.5667 14.077 12.5667 13C12.5667 11.923 11.6936 11.05 10.6167 11.05C9.53973 11.05 8.66669 11.923 8.66669 13C8.66669 14.077 9.53973 14.95 10.6167 14.95Z" fill="#C5C5C5"/>
<path d="M22.1 0H3.9C1.74417 0 0 1.74417 0 3.9V22.1C0 24.2558 1.74417 26 3.9 26H22.1C24.2558 26 26 24.2558 26 22.1V3.9C26 1.74417 24.2558 0 22.1 0ZM20.3667 16.6833C20.3667 17.7558 19.4892 18.6333 18.4167 18.6333H10.7142C9.685 18.6333 8.68833 18.2217 7.95167 17.4958L4.8425 14.3867C4.08417 13.6283 4.08417 12.3933 4.8425 11.6242L7.95167 8.515C8.68833 7.77833 9.685 7.36667 10.7142 7.36667H18.4167C19.4892 7.36667 20.3667 8.24417 20.3667 9.31667V16.6833Z" fill="#C5C5C5"/>
</svg>
