<svg width="630" height="75" viewBox="0 0 630 75" fill="none" xmlns="http://www.w3.org/2000/svg">
<path d="M481.137 72.9837V67.1871H481.582L482.56 66.9943L483.251 66.743L483.907 66.369L484.492 65.9425L485.025 65.4107L485.488 64.8089L485.933 63.9791L486.161 63.2896L486.319 62.5651L486.337 61.9457L486.302 61.2211L486.143 60.4965L485.88 59.8246L485.523 59.1701L485.078 58.5858L484.275 57.8612L483.655 57.4697L482.981 57.1483L482.273 56.9555L481.529 56.8503H481.137V50.9895L481.81 51.007L482.929 51.1297L484.012 51.3576L485.06 51.6965L486.056 52.1231L487.016 52.6373L487.959 53.2918L488.884 54.0864L489.686 54.9396L490.342 55.8102L490.91 56.7335L491.355 57.6742L491.654 58.5624L491.742 58.9539V51.3985H497.088L504.191 61.8756L504.173 51.3459L510 51.3985V72.7382H504.741L497.51 62.3196V72.7382H491.736V65.1712L491.595 65.5802L491.22 66.5034L490.723 67.4617L490.137 68.3674L489.464 69.2206L488.72 69.9977L487.888 70.7048L486.998 71.3242L486.056 71.8559L485.043 72.3L483.907 72.6564L482.788 72.8843L481.722 72.9895L481.137 72.9837ZM481.137 50.9953V56.8019H480.781L480.041 56.9063L479.336 57.1151L478.659 57.4342L478.042 57.8228L477.476 58.3159L476.981 58.8612L476.573 59.4935L476.27 60.1431L476.06 60.845L475.937 61.5817V62.301L476.042 63.0377L476.235 63.7396L476.538 64.4241L476.678 64.6852L476.783 64.8244L476.992 65.126L477.505 65.6713L478.071 66.1296L478.706 66.5182L479.394 66.7967L480.099 66.9881L480.839 67.0751L481.125 67.0577V72.8121H480.63L479.569 72.7251L478.508 72.5336L477.447 72.1972L476.439 71.7737L475.483 71.2807L474.597 70.6832L473.804 70.0161L473.466 69.7377L473.186 69.4534V72.5684H461.004V51.4014H466.716V67.3419H471.612L471.403 66.9011L471.175 66.4428L470.785 65.4741L470.487 64.4705L470.278 63.4148L470.173 62.359V61.3207L470.295 60.2302L470.528 59.1222L470.843 58.0491L471.268 57.0629L471.799 56.129L472.399 55.2473L473.087 54.4178L473.862 53.6637L474.69 52.9966L475.593 52.4165L476.532 51.9408L477.523 51.5348L478.549 51.2505L479.61 51.0765L480.67 50.9895L481.137 50.9953ZM420.56 69.1426V64.1931H421.858V60.2347L420.56 62.1994V52.5628L421.306 51.3443H427.508V72.6347H421.858V69.1543L420.56 69.1426ZM432.146 72.6347H437.844V56.527H441.94V51.3443H428.221V56.527H432.152L432.146 72.6347ZM442.48 72.6347H448.289V64.6137H454.162V72.6347H459.935V51.3618L454.162 51.3443V59.5401H448.283V51.3618H442.474V72.6347H442.48ZM377.627 56.8113L378.142 56.9864L378.832 57.3248L379.47 57.7507L380.038 58.2466L380.535 58.8126L380.944 59.4485L381.266 60.1195L381.477 60.8255L381.6 61.514L381.635 62.1499L381.582 62.7859L381.459 63.4569L381.208 64.1454L380.868 64.8163L380.371 65.4698L379.751 66.0708L379.06 66.5842L378.335 66.9576L377.627 67.2085V72.553L378.142 72.483L379.347 72.1796L380.482 71.7711L381.442 71.2927L382.366 70.6917L383.221 70.0033L383.964 69.2798L384.619 68.4629L385.257 67.5061L385.596 66.9401V72.6347H397.398V67.5061H391.289V64.5655H397.392V59.5011H391.289V56.3679H397.392V51.3443H385.59V57.2372L385.467 56.8988L384.988 56.1053L384.332 55.236L383.478 54.3316L382.589 53.5731L381.682 52.9547L380.634 52.4237L379.341 51.9628L378.066 51.6244L377.621 51.5544L377.627 56.8113ZM420.738 52.6547V62.2613L419.436 64.2547H420.738V69.1887H417.396L416.986 69.5955L416.147 70.351L415.274 71.0194L414.348 71.5831L413.368 72.0596L412.354 72.449L411.305 72.728L410.22 72.9198L409.118 72.9895L408.034 72.9721L406.967 72.8326L405.864 72.5885L404.745 72.2166L403.713 71.7574L402.804 71.1937L401.931 70.5602L401.168 69.857L400.459 69.0608L399.82 68.2124L399.269 67.2767L398.771 66.1841L398.36 64.9869L398.091 63.8769L397.967 62.7843L397.932 61.7266L398.02 60.6515L398.196 59.5937L398.483 58.5535L398.894 57.5132L399.41 56.5078L400.013 55.607L400.688 54.7759L401.432 54.0378L402.271 53.3695L403.162 52.7709L404.158 52.2421L405.278 51.7829L406.415 51.4633L407.482 51.2715L408.567 51.1669L409.652 51.2018L410.719 51.3064L411.786 51.5563L412.853 51.9108L413.867 52.335L414.811 52.8639L415.684 53.4799L416.482 54.1657L417.156 54.834L417.425 55.1537L414.477 59.7042L414.101 59.3671L413.726 59.03L412.888 58.414L411.944 57.8503L410.93 57.3911L409.915 57.1064L409.024 57.0018L408.168 57.0541L407.295 57.2633L406.439 57.5829L405.747 58.0246L405.178 58.5012L404.698 59.0649L404.287 59.6984L403.988 60.3841L403.777 61.1048L403.689 61.8254V62.546L403.812 63.2667L404.041 63.9699L404.364 64.6557L404.791 65.2717L405.307 65.818L405.876 66.2597L406.515 66.6316L407.224 66.9164L408.022 67.0907L408.825 67.1779L409.587 67.1256L410.296 66.9861L411.006 66.7188L411.645 66.3875L412.249 65.9633L412.729 65.539L412.941 65.3298L420.738 52.6547ZM373.559 67.5045V56.527H375.151L375.935 56.5445L376.684 56.6144L377.415 56.7369L377.609 56.8068V51.5542L376.749 51.4318L375.281 51.3443H368V72.6347H376.371L377.155 72.5997L377.621 72.5472V67.2071L377.55 67.2246L376.69 67.3995L375.687 67.4695L375.133 67.5045H373.559Z" fill="#C5C5C5"/>
<path d="M174.331 17.0552C174.32 17.9314 173.957 18.8278 173.22 19.4085C172.385 20.0707 171.187 20.2133 170.132 20.0198C169.142 19.8466 168.285 19.1538 167.933 18.2777C167.516 17.3914 167.757 16.3931 167.647 15.466C166.098 15.4966 164.548 15.4456 163 15.4864C163.022 16.6579 162.956 17.8499 163.319 18.9786C163.769 20.5984 164.858 22.0756 166.375 22.9904C168.177 24.0906 170.45 24.3759 172.561 24.0702C174.32 23.8054 175.988 23.0006 177.142 21.7373C178.362 20.413 178.967 18.671 178.989 16.9513C179 14.5471 178.989 12.145 179 9.74074H174.331C174.331 12.1857 174.342 14.6205 174.331 17.0552Z" fill="#C5C5C5"/>
<path d="M175.867 3.07685C175.218 3.24119 174.643 3.6623 174.313 4.23747C173.93 4.88455 173.898 5.70623 174.218 6.38411C174.611 7.25715 175.58 7.86314 176.569 7.81178C177.665 7.80151 178.676 7.01064 178.932 5.98354C179.134 5.18241 178.879 4.28883 178.272 3.71365C177.663 3.10766 176.718 2.86116 175.867 3.07685Z" fill="#C5C5C5"/>
<path d="M164.925 7.7467C165.777 7.95188 166.726 7.68515 167.322 7.05935C168.143 6.25915 168.228 4.88444 167.525 3.99191C166.971 3.25326 165.969 2.87368 165.042 3.03783C164.403 3.16093 163.817 3.52 163.444 4.04321C162.986 4.669 162.869 5.5205 163.156 6.23863C163.435 6.98754 164.128 7.5723 164.925 7.7467Z" fill="#C5C5C5"/>
<path d="M218 15.2727C216.448 15.2623 214.899 15.2727 213.336 15.2727C213.325 15.8612 213.347 16.46 213.336 17.0588C213.303 17.9984 212.841 18.9483 212.005 19.4955C211.202 20.0324 210.156 20.1253 209.199 19.9704C208.23 19.8052 207.361 19.1754 206.976 18.3081C206.558 17.4718 206.69 16.5116 206.668 15.6134C206.69 14.3125 206.624 13.0115 206.69 11.723C208.549 11.7333 210.42 11.723 212.278 11.723C212.63 11.723 212.993 11.754 213.345 11.7024C213.312 10.3395 213.378 8.96632 213.323 7.60552C211.111 7.6365 208.902 7.5952 206.69 7.62617C206.646 6.40786 206.701 5.18954 206.657 3.96296C205.105 3.97329 203.567 3.98361 202.015 3.96296C201.982 7.78104 202.015 11.5909 202.004 15.4089C202.015 16.204 201.96 16.999 202.081 17.794C202.301 19.5492 203.16 21.2507 204.601 22.407C206.032 23.5944 207.957 24.1726 209.859 24.1829C211.785 24.2242 213.763 23.708 215.26 22.5413C216.646 21.4881 217.538 19.9291 217.846 18.2999C218.066 17.2942 217.978 16.2845 218 15.2727Z" fill="#C5C5C5"/>
<path d="M186.687 6.68281C184.533 7.60203 182.787 9.30311 181.84 11.3191C180.848 13.4322 180.724 15.8813 181.525 18.0579C182.19 19.8963 183.487 21.5108 185.187 22.6096C186.788 23.6556 188.75 24.2156 190.71 24.1839C192.739 24.1733 194.812 23.6345 196.458 22.4934C197.958 21.4474 199.085 19.9153 199.559 18.2164C197.845 18.2269 196.145 18.1952 194.442 18.2269C193.98 19.0722 193.134 19.685 192.198 19.9914C190.834 20.4246 189.266 20.319 188.04 19.6216C186.946 19.0088 186.179 17.9522 185.863 16.8111C190.552 16.79 195.243 16.8217 199.931 16.79C200.235 13.8844 199.559 10.7274 197.371 8.55083C194.724 5.86925 190.193 5.15078 186.687 6.68281ZM185.942 13.1364C186.303 12.0058 187.092 10.9915 188.186 10.3998C189.472 9.7025 191.118 9.64967 192.48 10.178C193.811 10.6851 194.837 11.8262 195.164 13.1364H185.942Z" fill="#C5C5C5"/>
<path d="M522 1H547.92V27H522V1Z" fill="white"/>
<path d="M538.35 1L547.92 26.9356V1H538.35ZM522 1V26.9356L531.627 1H522ZM530.773 21.7871H535.273L537.096 27H541.084L534.988 10.5891L530.773 21.7871Z" fill="#C5C5C5"/>
<path d="M565.892 1.61905L560.419 26.6286H563.727L565.17 19.6952H570.222L571.605 26.6286H574.973L569.861 1.61905H565.892ZM565.591 16.9714L566.734 10.9667C567.035 9.35714 567.396 7.06667 567.696 5.27143H567.817C568.057 7.06667 568.418 9.29524 568.719 10.9667L569.861 16.9714H565.591ZM587.663 1H584.295V10.4095H584.235C583.633 9.04762 582.491 8.36667 581.107 8.36667C578.341 8.36667 575.695 11.4 575.695 17.7762C575.695 23.4095 577.679 27 580.927 27C582.671 27 584.054 25.7619 584.595 24.5238H584.716L584.956 26.6905H587.903C587.843 25.4524 587.783 23.4095 587.783 22.0476L587.663 1ZM584.295 20.3143C584.295 20.7476 584.235 21.181 584.174 21.4905C583.573 23.6571 582.611 24.0286 581.829 24.0286C580.025 24.0286 579.063 21.4286 579.063 17.7143C579.063 14.3714 579.784 11.3381 581.889 11.3381C583.092 11.3381 583.994 12.7619 584.174 14.3714C584.235 14.7429 584.235 15.1762 584.235 15.4857C584.295 15.4857 584.295 20.3143 584.295 20.3143ZM595.962 8.30476C592.774 8.30476 589.767 11.0905 589.767 17.6524C589.767 23.8429 592.293 26.9381 595.781 26.9381H595.841C598.488 26.9381 601.916 24.7714 601.916 17.5905C601.916 11.5238 599.39 8.30476 595.962 8.30476ZM595.841 24.2143C593.616 24.2143 593.075 20.6238 593.075 17.6524C593.075 14.9286 593.496 11.0905 595.721 11.0905C597.886 11.0905 598.367 14.9286 598.367 17.6524C598.427 20.3762 597.946 24.2143 595.841 24.2143ZM611.057 8.30476C609.493 8.30476 608.29 8.98571 607.388 10.6571H607.328V1H603.96V22.0476C603.96 23.4095 603.9 25.4524 603.84 26.6905H606.787L606.967 24.4H607.088C607.869 26.0095 608.832 26.9381 610.576 26.9381C613.462 26.9381 616.048 23.781 616.048 17.3429C615.928 11.8333 614.064 8.30476 611.057 8.30476ZM609.734 24.0286C609.072 24.0286 607.99 23.5952 607.448 21.3667C607.328 21.0571 607.328 20.6857 607.328 20.2524V15.1762C607.328 14.8048 607.388 14.3095 607.448 13.9381C607.689 12.6381 608.591 11.2762 609.734 11.2762C611.778 11.2762 612.56 14.0619 612.56 17.5286C612.5 21.3048 611.778 24.0286 609.734 24.0286ZM623.926 8.30476C620.258 8.30476 617.672 11.9571 617.672 17.8381C617.672 23.4095 619.957 26.8143 624.408 26.8143C625.971 26.8143 627.535 26.5048 628.617 25.9476L628.136 23.4095C627.354 23.781 626.332 24.0905 625.129 24.0905C623.085 24.0905 621.1 22.9143 621.1 18.2714L629.339 18.3333C629.399 17.8381 629.399 17.281 629.399 16.4143C629.279 11.9571 627.535 8.30476 623.926 8.30476ZM620.98 15.8571C621.1 13.5667 621.882 10.9667 623.626 10.9667C624.949 10.9667 626.031 12.7 626.031 15.8571H620.98ZM629.098 9.10952C629.219 9.04762 629.279 8.98571 629.279 8.8619C629.279 8.8 629.279 8.7381 629.219 8.67619C629.159 8.61429 629.098 8.61429 628.978 8.61429C628.858 8.61429 628.798 8.61429 628.738 8.61429V9.48095H628.858V9.10952H628.978C629.098 9.10952 629.159 9.17143 629.159 9.29524C629.159 9.41905 629.219 9.48095 629.219 9.54286H629.339C629.339 9.54286 629.279 9.48095 629.279 9.29524C629.219 9.17143 629.159 9.10952 629.098 9.10952ZM628.918 9.04762H628.798V8.7381C628.798 8.7381 628.858 8.7381 628.918 8.7381C629.098 8.7381 629.159 8.8 629.159 8.92381C629.098 8.98571 629.038 9.04762 628.918 9.04762ZM628.978 8.30476C628.557 8.30476 628.196 8.67619 628.196 9.10952C628.196 9.54286 628.557 9.91429 628.978 9.91429C629.399 9.91429 629.76 9.54286 629.76 9.10952C629.7 8.61429 629.399 8.30476 628.978 8.30476ZM628.978 9.79048C628.617 9.79048 628.377 9.48095 628.377 9.10952C628.377 8.7381 628.677 8.42857 628.978 8.42857C629.339 8.42857 629.58 8.7381 629.58 9.10952C629.58 9.48095 629.339 9.79048 628.978 9.79048ZM552.782 1.68095C552.361 1.68095 552 2.05238 552 2.48571C552 2.91905 552.361 3.29048 552.782 3.29048C553.203 3.29048 553.564 2.91905 553.564 2.48571C553.564 2.05238 553.203 1.68095 552.782 1.68095ZM552.782 3.16667C552.421 3.16667 552.18 2.85714 552.18 2.48571C552.18 2.11429 552.481 1.80476 552.782 1.80476C553.143 1.80476 553.383 2.11429 553.383 2.48571C553.383 2.91905 553.143 3.16667 552.782 3.16667ZM552.902 2.54762C553.022 2.48571 553.083 2.42381 553.083 2.3C553.083 2.2381 553.083 2.17619 553.022 2.11429C552.962 2.05238 552.902 2.05238 552.722 2.05238C552.601 2.05238 552.541 2.05238 552.481 2.05238V2.91905H552.601V2.60952H552.722C552.842 2.60952 552.902 2.67143 552.902 2.79524C552.902 2.91905 552.962 2.98095 552.962 3.04286H553.083C553.083 3.04286 553.022 2.98095 553.022 2.79524C553.022 2.60952 553.022 2.54762 552.902 2.54762ZM552.722 2.48571H552.601V2.17619C552.601 2.17619 552.662 2.17619 552.722 2.17619C552.902 2.17619 552.962 2.2381 552.962 2.3619C552.962 2.42381 552.842 2.48571 552.722 2.48571Z" fill="#C5C5C5"/>
<path d="M284.613 19.3238C284.613 18.4571 284.984 18.3333 285.85 18.8286C287.335 19.6952 288.82 20.4381 288.82 20.4381C288.82 19.9429 289.315 19.5714 290.181 19.819C291.047 20.0667 291.914 20.1905 291.914 20.1905C291.914 20.1905 291.419 19.0762 291.171 18.581C290.8 17.7143 291.171 17.219 291.542 17.0952C291.542 17.0952 291.048 16.7238 290.676 16.4762C289.934 15.981 290.057 15.3619 290.8 15.1143C291.79 14.619 293.151 14.1238 293.151 14.1238C292.78 13.8762 292.285 13.2571 292.78 12.3905C293.275 11.6476 294.141 10.5333 294.141 10.5333C294.141 10.5333 292.78 10.5333 291.79 10.5333C290.924 10.5333 290.676 9.79048 290.676 9.29524C290.676 9.29524 289.315 10.2857 288.325 10.9048C287.459 11.5238 286.716 10.9048 286.84 9.91429C287.088 8.42857 287.211 6.69524 287.211 6.69524C286.716 7.19048 285.85 7.06667 285.355 6.32381C284.736 5.08571 284.118 3.6 284.118 3.6C284.118 3.6 283.499 5.08571 282.88 6.32381C282.509 7.06667 281.643 7.19048 281.148 6.81905C281.148 6.81905 281.271 8.55238 281.519 10.0381C281.643 10.9048 280.9 11.5238 280.034 10.9048C279.044 10.2857 277.559 9.29524 277.559 9.29524C277.559 9.79048 277.311 10.4095 276.445 10.5333C275.455 10.5333 274.094 10.5333 274.094 10.5333C274.094 10.5333 274.96 11.6476 275.455 12.3905C275.95 13.1333 275.455 13.8762 275.084 14.1238C275.084 14.1238 276.321 14.7429 277.435 15.1143C278.177 15.4857 278.425 15.981 277.559 16.4762C277.311 16.7238 276.693 17.0952 276.693 17.0952C277.188 17.219 277.559 17.7143 277.188 18.581C276.94 19.0762 276.445 20.1905 276.445 20.1905C276.445 20.1905 277.311 19.9429 278.177 19.819C279.044 19.5714 279.415 20.0667 279.539 20.4381C279.539 20.4381 281.024 19.5714 282.509 18.8286C283.251 18.3333 283.746 18.581 283.746 19.3238V21.4286C283.746 22.6667 283.499 23.9048 283.127 24.6476C277.559 24.0286 272.856 19.5714 272.856 13.6286C272.856 7.5619 277.93 2.60952 284.241 2.60952C290.553 2.60952 295.626 7.5619 295.626 13.6286C295.626 19.3238 291.171 24.0286 285.479 24.6476V26.1333C292.161 25.5143 297.359 20.1905 297.359 13.6286C297.359 6.57143 291.419 1 284.118 1C276.94 1 271 6.57143 271 13.5048C271 19.5714 275.579 24.6476 281.642 25.7619C282.632 26.0095 283.251 26.1333 283.87 26.7524C284.489 25.5143 284.613 23.0381 284.613 21.6762V19.3238Z" fill="#C5C5C5"/>
<path d="M337.701 20.1905V6.81905H344.26C347.725 6.81905 349.334 8.30476 349.457 10.1619C349.457 11.0286 349.334 11.8952 348.715 12.5143C348.096 13.1333 347.849 13.381 346.735 14L351.685 20.3143H348.096L343.641 14.619H340.671V20.1905H337.701ZM340.671 12.8857H342.032C345.621 12.8857 346.364 12.2667 346.364 10.5333C346.364 8.8 344.755 8.55238 342.404 8.55238H340.671V12.8857Z" fill="#C5C5C5"/>
<path d="M308.372 20.1905L314.189 6.81905H317.777L323.594 20.1905H320.005L318.396 16.6H312.209L310.6 20.1905H308.372ZM312.951 14.8667H317.53L315.179 9.54286L312.951 14.8667Z" fill="#C5C5C5"/>
<path d="M330.771 6.81905H327.677V20.1905H330.771V6.81905Z" fill="#C5C5C5"/>
<path d="M373.96 19.6952C372.475 20.3143 370.619 20.5619 368.391 20.5619C365.793 20.5619 363.689 19.9429 362.204 18.7048C360.719 17.4667 359.976 15.7333 359.976 13.5048C359.976 11.2762 360.719 9.41905 362.204 8.30476C363.689 7.06667 365.793 6.44762 368.639 6.44762C370.371 6.44762 372.104 6.57143 373.96 6.94286V9.17143C371.98 8.55238 370.124 8.30476 368.763 8.30476C367.03 8.30476 365.793 8.8 364.803 9.66667C363.936 10.5333 363.441 11.8952 363.441 13.5048C363.441 15.1143 363.936 16.3524 364.926 17.3429C365.916 18.2095 367.278 18.7048 369.01 18.7048C370.619 18.7048 372.351 18.3333 373.96 17.7143V19.6952Z" fill="#C5C5C5"/>
<path d="M377.796 20.1905L383.613 6.81905H387.201L393.018 20.1905H389.429L387.82 16.6H381.633L380.024 20.1905H377.796ZM382.499 14.8667H387.078L384.85 9.54286L382.499 14.8667Z" fill="#C5C5C5"/>
<path d="M416.53 20.1905L422.346 6.81905H425.935L431.751 20.1905H428.163L426.554 16.6H420.366L418.758 20.1905H416.53ZM421.109 14.8667H425.688L423.336 9.54286L421.109 14.8667Z" fill="#C5C5C5"/>
<path d="M460.09 9.54286L462.441 14.8667H457.863L460.09 9.54286ZM459.1 6.81905L453.284 20.1905H455.511L457.12 16.6H463.307L464.916 20.1905H468.505L462.689 6.81905H459.1Z" fill="#C5C5C5"/>
<path d="M397.473 20.1905V6.81905H401.061L409.476 16.3524V6.81905H412.075V20.1905H408.734L400.071 10.1619V20.1905H397.473Z" fill="#C5C5C5"/>
<path d="M436.083 20.1905V6.81905H442.518C444.869 6.81905 446.601 7.4381 447.839 8.42857C449.076 9.54286 449.695 11.1524 449.695 13.1333C449.695 15.3619 449.076 17.0952 447.715 18.2095C446.354 19.4476 444.621 20.0667 442.27 20.0667H436.083V20.1905ZM439.176 18.3333H441.528C443.136 18.3333 444.374 17.9619 445.24 17.0952C446.106 16.2286 446.478 15.1143 446.478 13.381C446.478 12.1429 446.106 11.0286 445.488 10.1619C444.993 9.54286 444.498 9.17143 443.879 8.92381C443.26 8.67619 442.394 8.55238 441.156 8.55238H439.3L439.176 18.3333Z" fill="#C5C5C5"/>
<path d="M178.34 67.213L179.746 65.5584C181.015 66.639 182.284 67.2805 183.965 67.2805C185.406 67.2805 186.332 66.639 186.332 65.626V65.5584C186.332 64.613 185.783 64.1065 183.313 63.5325C180.466 62.8571 178.854 62.0468 178.854 59.6156V59.5818C178.854 57.3195 180.775 55.7662 183.416 55.7662C185.166 55.7325 186.915 56.3065 188.252 57.4208L186.983 59.1766C185.783 58.2987 184.582 57.826 183.348 57.826C181.976 57.826 181.187 58.5351 181.187 59.3792V59.413C181.187 60.426 181.804 60.8649 184.342 61.4727C187.155 62.1481 188.63 63.161 188.63 65.3221V65.3558C188.63 67.8208 186.675 69.2727 183.862 69.2727C181.838 69.3065 179.849 68.5636 178.34 67.213Z" fill="#C5C5C5"/>
<path d="M190.208 65.5247V59.2104H192.506V64.8494C192.506 66.4026 193.295 67.2805 194.667 67.2805C196.039 67.2805 196.93 66.3688 196.93 64.8156V59.2104H199.228V69.1377H196.93V68.1247C196.107 68.9688 194.975 69.4416 193.775 69.3403C191.545 69.3403 190.208 67.8208 190.208 65.5247Z" fill="#C5C5C5"/>
<path d="M201.732 59.2104H204.03V60.8649C204.648 59.3792 205.814 58.9403 207.597 59.0078V61.0338H207.46C205.437 61.0338 204.03 62.3506 204.03 65.3558V69.1039H201.732V59.2104Z" fill="#C5C5C5"/>
<path d="M208.421 59.2104H210.89L213.6 66.0987L216.344 59.2104H218.779L214.663 69.2052H212.571L208.421 59.2104Z" fill="#C5C5C5"/>
<path d="M218.779 64.2078V64.174C218.779 61.3377 220.837 59.0078 223.718 59.0078C226.942 59.0078 228.554 61.4727 228.554 64.3429C228.554 64.5455 228.52 64.7481 228.52 64.9844H221.111C221.352 66.6052 222.518 67.5169 224.027 67.5169C225.056 67.5169 226.085 67.0779 226.771 66.3351L228.109 67.5169C227.114 68.7325 225.57 69.4078 223.993 69.374C221.043 69.3403 218.779 67.2468 218.779 64.2078ZM226.256 63.4649C226.119 62.013 225.227 60.8649 223.684 60.8649C222.278 60.8649 221.283 61.9455 221.077 63.4649H226.256Z" fill="#C5C5C5"/>
<path d="M240.765 55.9688H243.269L247.316 62.6883L251.398 55.9688H253.868V69.1039H251.535V59.6831L247.316 66.3688H247.248L243.063 59.7169V69.1039H240.765V55.9688Z" fill="#C5C5C5"/>
<path d="M255.548 64.2078V64.174C255.548 61.2701 257.949 58.8727 260.899 58.8727C263.849 58.8727 266.284 61.2364 266.284 64.1403V64.174C266.284 67.0442 263.917 69.3403 261.002 69.3403C260.968 69.3403 260.933 69.3403 260.899 69.3403C258.018 69.4078 255.617 67.1792 255.548 64.3429C255.548 64.3091 255.548 64.2753 255.548 64.2078ZM263.986 64.2078V64.174C263.986 62.4182 262.717 60.9662 260.899 60.9662C259.081 60.9662 257.846 62.3844 257.846 64.1065V64.1403C257.846 65.8623 259.115 67.3481 260.933 67.3481C262.82 67.3818 263.986 65.9299 263.986 64.2078Z" fill="#C5C5C5"/>
<path d="M279.215 55.3948H281.513V63.6L285.698 59.2104H288.51L284.497 63.2623L288.647 69.1377H285.972L282.919 64.8494L281.513 66.3013V69.1377H279.215V55.3948Z" fill="#C5C5C5"/>
<path d="M288.442 64.2078V64.174C288.442 61.3377 290.5 59.0078 293.381 59.0078C296.605 59.0078 298.217 61.4727 298.217 64.3429C298.217 64.5455 298.183 64.7481 298.183 64.9844H290.774C291.014 66.6052 292.18 67.5169 293.689 67.5169C294.718 67.5169 295.747 67.0779 296.433 66.3351L297.771 67.5169C296.776 68.7325 295.233 69.4078 293.655 69.374C290.705 69.3403 288.442 67.2468 288.442 64.2078ZM295.919 63.4649C295.782 62.013 294.89 60.8649 293.346 60.8649C291.94 60.8649 290.945 61.9455 290.74 63.4649H295.919Z" fill="#C5C5C5"/>
<path d="M236.649 59.2104L233.871 65.9636L231.093 59.2104H228.692L232.67 68.9013L230.578 73.9325H232.979L239.05 59.2104H236.649Z" fill="#C5C5C5"/>
<path d="M311.285 59.3792C311.045 59.3792 310.805 59.4468 310.599 59.5481C310.393 59.6494 310.187 59.8519 310.085 60.0545C309.982 60.2571 309.913 60.4935 309.913 60.7299C309.913 60.9662 309.982 61.2026 310.085 61.4052C310.187 61.6078 310.393 61.7766 310.599 61.9117C311.011 62.1481 311.559 62.1481 311.971 61.9117C312.177 61.8104 312.348 61.6078 312.486 61.4052C312.726 61 312.726 60.4597 312.486 60.0545C312.383 59.8519 312.177 59.6494 311.971 59.5481C311.731 59.4468 311.525 59.3792 311.285 59.3792ZM311.285 59.1091C311.559 59.1091 311.834 59.1766 312.108 59.3117C312.383 59.4468 312.588 59.6494 312.726 59.9195C313.034 60.426 313.034 61.0338 312.726 61.5403C312.588 61.8104 312.383 62.013 312.108 62.1481C311.868 62.2831 311.559 62.3507 311.285 62.3507C311.011 62.3507 310.702 62.2831 310.462 62.1481C310.187 62.013 309.982 61.8104 309.844 61.5403C309.707 61.3039 309.639 61 309.639 60.7299C309.639 60.426 309.707 60.1558 309.879 59.9195C310.016 59.6494 310.222 59.4468 310.496 59.3117C310.702 59.1766 310.976 59.1091 311.285 59.1091Z" fill="#C5C5C5"/>
<path d="M310.599 59.8182H311.807C312.109 59.8182 312.36 59.9074 312.612 60.0412C312.763 60.175 312.863 60.3533 312.863 60.5763C312.863 60.9331 312.612 61.2453 312.209 61.2899L312.964 62.1818H312.41L311.756 61.3345H311.153V62.1818H310.649L310.599 59.8182ZM311.756 61.0223C312.109 61.0223 312.31 60.8439 312.31 60.6209C312.31 60.3533 312.109 60.2196 311.756 60.2196H311.052V61.0223H311.756Z" fill="#C5C5C5"/>
<path d="M306.312 59.2104L303.533 65.9636L300.755 59.2104H298.354L302.333 68.9013L300.241 73.9325H302.676L308.713 59.2104H306.312Z" fill="#C5C5C5"/>
<path d="M276.883 62.8234V69.1377H274.584V63.4987C274.584 61.9455 273.796 61.0675 272.424 61.0675C271.052 61.0675 270.16 61.9792 270.16 63.5325V69.1377H267.827V59.2104H270.126V60.2234C270.949 59.3792 272.081 58.9065 273.281 59.0078C275.545 59.0078 276.883 60.4935 276.883 62.8234Z" fill="#C5C5C5"/>
<path d="M167.257 61.4772C166.955 61.4772 166.62 61.5114 166.318 61.5798C165.145 56.9278 161.423 53.3703 156.763 52.5152C156.562 52.481 156.361 52.4468 156.16 52.4126C156.193 51.2496 156.26 49.9155 157.937 48.6841L157.668 48C157.668 48 154.383 49.0262 154.014 51.8995C153.846 51.1127 152.338 50.155 151.567 49.9497L151.198 50.5655C151.868 50.9759 152.338 51.6943 152.438 52.481C147.778 53.3703 144.057 56.9278 142.883 61.614C140.771 61.0667 138.659 62.3665 138.123 64.5215C137.586 66.6765 138.86 68.8315 140.972 69.3788C141.777 69.584 142.615 69.5156 143.353 69.2077C143.688 70.0629 144.124 70.8838 144.627 71.6364L147.879 69.413L147.845 69.3788C146.94 68.0789 146.437 66.5397 146.37 64.932C146.269 63.1191 146.705 61.3061 147.845 60.2458C150.192 58.1934 152.74 59.1512 154.349 61.1009H154.785C156.394 59.1512 158.942 58.2276 161.289 60.2458C162.429 61.3061 162.865 63.1191 162.764 64.932C162.697 66.5397 162.194 68.0789 161.289 69.3788L161.256 69.413L164.508 71.6364C165.011 70.8838 165.446 70.0629 165.782 69.2077C167.793 69.9945 170.073 69.0025 170.844 66.9501C171.615 64.8978 170.643 62.5718 168.631 61.785C168.229 61.5798 167.726 61.4772 167.257 61.4772ZM141.878 66.6765C141.241 66.6423 140.738 66.095 140.771 65.4451C140.805 64.8294 141.274 64.3505 141.878 64.3163C142.112 64.3163 142.347 64.3847 142.515 64.5215C142.515 65.1372 142.582 65.7529 142.649 66.3686C142.414 66.5397 142.146 66.6765 141.878 66.6765ZM167.324 66.6765C167.056 66.6765 166.754 66.5739 166.553 66.3686C166.62 65.7529 166.653 65.1372 166.687 64.5215C167.223 64.1452 167.927 64.2821 168.296 64.8294C168.43 65.0346 168.497 65.274 168.497 65.4793C168.464 66.1292 167.961 66.6765 167.324 66.6765Z" fill="#C5C5C5"/>
<path d="M99.6667 8.66667C96.0809 8.66667 93.1667 11.5808 93.1667 15.1667C93.1667 18.7525 96.0809 21.6667 99.6667 21.6667C103.253 21.6667 106.167 18.7525 106.167 15.1667C106.167 11.5808 103.253 8.66667 99.6667 8.66667ZM99.6667 19.0667C97.5109 19.0667 95.7667 17.3225 95.7667 15.1667C95.7667 13.0108 97.5109 11.2667 99.6667 11.2667C101.823 11.2667 103.567 13.0108 103.567 15.1667C103.567 17.3225 101.823 19.0667 99.6667 19.0667Z" fill="#C5C5C5"/>
<path d="M57.2 8.66667C55.6725 8.66667 54.21 9.24083 53.0833 10.2592V4.55H50.4833V21.45H53.0833V20.0742C54.21 21.0925 55.6725 21.6667 57.2 21.6667C60.6667 21.6667 63.4833 18.7525 63.4833 15.1667C63.4833 11.5808 60.6667 8.66667 57.2 8.66667ZM56.9833 19.0667C54.8275 19.0667 53.0833 17.3225 53.0833 15.1667C53.0833 13.0108 54.8275 11.2667 56.9833 11.2667C59.1392 11.2667 60.8833 13.0108 60.8833 15.1667C60.8833 17.3225 59.1392 19.0667 56.9833 19.0667Z" fill="#C5C5C5"/>
<path d="M91.2167 4.55H88.6167V21.45H91.2167V4.55Z" fill="#C5C5C5"/>
<path d="M82.55 8.88333H79.95V21.45H82.55V15.1667C82.55 13.0108 84.2942 11.2667 86.45 11.2667H86.6667V8.66667C85.1392 8.66667 83.6767 9.24083 82.55 10.2592V8.88333Z" fill="#C5C5C5"/>
<path d="M71.5 8.66667C67.9142 8.66667 65 11.5808 65 15.1667C65 18.7525 67.9142 21.6667 71.5 21.6667C74.0025 21.6667 76.2775 20.2367 77.3608 17.9833H74.1975C72.6375 19.4675 70.1675 19.4133 68.6833 17.8642C68.25 17.4092 67.925 16.8567 67.7517 16.25H77.9025C78.4983 12.7075 76.115 9.36 72.5725 8.75333C72.2258 8.69917 71.8683 8.66667 71.5 8.66667ZM67.7517 14.0833C68.3475 12.0142 70.5142 10.8225 72.5833 11.4183C73.8725 11.7867 74.8692 12.7942 75.2483 14.0833H67.7517Z" fill="#C5C5C5"/>
<path d="M39.8667 4.33333C35.0783 4.33333 31.2 8.21167 31.2 13C31.2 17.7883 35.0783 21.6667 39.8667 21.6667C44.655 21.6667 48.5333 17.7883 48.5333 13C48.5333 8.21167 44.655 4.33333 39.8667 4.33333ZM39.8667 18.85C36.6383 18.85 34.0167 16.2283 34.0167 13C34.0167 9.77167 36.6383 7.15 39.8667 7.15C43.095 7.15 45.7167 9.77167 45.7167 13C45.7167 16.2283 43.095 18.85 39.8667 18.85Z" fill="#C5C5C5"/>
<path d="M10.6167 14.95C11.6936 14.95 12.5667 14.077 12.5667 13C12.5667 11.923 11.6936 11.05 10.6167 11.05C9.53973 11.05 8.66669 11.923 8.66669 13C8.66669 14.077 9.53973 14.95 10.6167 14.95Z" fill="#C5C5C5"/>
<path d="M22.1 0H3.9C1.74417 0 0 1.74417 0 3.9V22.1C0 24.2558 1.74417 26 3.9 26H22.1C24.2558 26 26 24.2558 26 22.1V3.9C26 1.74417 24.2558 0 22.1 0ZM20.3667 16.6833C20.3667 17.7558 19.4892 18.6333 18.4167 18.6333H10.7142C9.685 18.6333 8.68833 18.2217 7.95167 17.4958L4.8425 14.3867C4.08417 13.6283 4.08417 12.3933 4.8425 11.6242L7.95167 8.515C8.68833 7.77833 9.685 7.36667 10.7142 7.36667H18.4167C19.4892 7.36667 20.3667 8.24417 20.3667 9.31667V16.6833Z" fill="#C5C5C5"/>
</svg>
